<svg width="19" height="13" viewBox="0 0 19 13" fill="none" xmlns="http://www.w3.org/2000/svg">
<g clip-path="url(#clip0_13_600)">
<path d="M6.43663 0.0904113C9.3181 0.507174 10.2622 4.71498 7.61184 6.10084C10.6064 7.63734 10.0557 11.8502 6.81525 12.6385C5.38927 12.985 2.70449 12.8745 1.16541 12.8193C0.801535 12.8042 0.231142 12.8494 -0.00488281 12.6034V0.0904113C1.99149 0.296282 4.51401 -0.190778 6.43663 0.0904113ZM2.63073 5.17693H5.60562C5.72855 5.17693 6.38746 4.70493 6.49072 4.52417C6.771 4.02205 6.74641 3.03286 6.30386 2.62614C6.20552 2.53576 5.5417 2.20435 5.46794 2.20435H2.63073V5.17191V5.17693ZM2.63073 10.5497H5.74822C6.64807 10.5497 7.22338 9.4249 6.99719 8.56627C6.91851 8.25495 6.31862 7.43649 6.02359 7.43649H2.63073V10.5446V10.5497Z" fill="#F4F4F4"/>
<path d="M18.9703 8.99804H12.7402C12.7894 10.4843 14.2793 11.2325 15.5872 10.7053C15.9265 10.5697 16.4822 9.84663 16.5461 9.84663H18.8326C17.977 14.1549 11.4716 13.9892 10.4291 9.73617C8.57534 2.18422 19.6587 1.11469 18.9703 8.99804ZM16.3396 7.15525C16.2068 4.97101 13.0647 5.09152 12.7402 7.15525H16.3396Z" fill="#F4F4F4"/>
<path d="M17.5841 0.793457H11.4917V2.35004H17.5841V0.793457Z" fill="#F4F4F4"/>
</g>
<defs>
<clipPath id="clip0_13_600">
<rect width="19" height="13" fill="white"/>
</clipPath>
</defs>
</svg>
