<svg width="253" height="54" viewBox="0 0 253 54" fill="none" xmlns="http://www.w3.org/2000/svg">
<path d="M102.635 10.156C100.235 10.156 98.3028 8.296 98.3028 5.836C98.3028 3.376 100.235 1.504 102.635 1.504C103.835 1.504 104.831 1.972 105.575 2.716C105.659 2.8 105.647 2.884 105.575 2.968L104.735 3.868C104.663 3.952 104.567 3.952 104.483 3.88C103.979 3.46 103.379 3.184 102.635 3.184C101.159 3.184 100.043 4.312 100.043 5.836C100.043 7.36 101.159 8.476 102.635 8.476C103.379 8.476 103.979 8.2 104.483 7.78C104.567 7.708 104.663 7.708 104.735 7.792L105.575 8.692C105.647 8.764 105.659 8.848 105.575 8.932C104.831 9.688 103.835 10.156 102.635 10.156ZM107.052 10C106.944 10 106.872 9.928 106.872 9.82V4.3C106.872 4.192 106.944 4.12 107.052 4.12H108.3C108.408 4.12 108.468 4.168 108.48 4.312L108.528 5.068C108.732 4.444 109.104 3.976 109.8 3.976C110.076 3.976 110.244 4.048 110.34 4.12C110.424 4.18 110.448 4.252 110.448 4.36V5.416C110.448 5.56 110.364 5.596 110.208 5.56C110.076 5.524 109.944 5.5 109.776 5.5C108.96 5.5 108.528 6.04 108.528 6.88V9.82C108.528 9.928 108.456 10 108.348 10H107.052ZM114.277 10.144C112.345 10.144 111.049 8.812 111.049 7.036C111.049 5.308 112.261 3.976 114.073 3.976C115.861 3.976 116.893 5.296 116.893 6.784C116.893 7.36 116.761 7.684 116.245 7.684H112.669C112.849 8.428 113.461 8.836 114.409 8.836C114.865 8.836 115.297 8.752 115.777 8.476C115.861 8.428 115.921 8.44 115.981 8.524L116.425 9.136C116.485 9.22 116.473 9.304 116.365 9.4C115.861 9.904 115.105 10.144 114.277 10.144ZM112.645 6.52H115.417C115.321 5.74 114.793 5.344 114.085 5.344C113.353 5.344 112.789 5.74 112.645 6.52ZM113.365 3.112L114.253 1.744C114.325 1.636 114.373 1.6 114.481 1.6H115.441C115.573 1.6 115.633 1.696 115.561 1.804L114.661 3.172C114.589 3.28 114.541 3.316 114.433 3.316H113.473C113.341 3.316 113.293 3.22 113.365 3.112ZM120.501 10.144C118.845 10.144 117.705 8.812 117.705 7.06C117.705 5.32 118.845 3.976 120.501 3.976C121.317 3.976 121.917 4.276 122.313 4.804V1.6C122.313 1.492 122.385 1.42 122.493 1.42H123.801C123.909 1.42 123.981 1.492 123.981 1.6V9.82C123.981 9.928 123.897 10 123.789 10H122.625C122.517 10 122.445 9.928 122.445 9.82L122.421 9.172C122.013 9.772 121.377 10.144 120.501 10.144ZM119.325 7.06C119.325 8.008 119.973 8.632 120.849 8.632C121.725 8.632 122.337 8.008 122.337 7.06C122.337 6.112 121.725 5.488 120.849 5.488C119.973 5.488 119.325 6.124 119.325 7.06ZM126.263 3.076C125.735 3.076 125.339 2.668 125.339 2.152C125.339 1.648 125.735 1.24 126.263 1.24C126.791 1.24 127.175 1.648 127.175 2.152C127.175 2.668 126.791 3.076 126.263 3.076ZM125.423 9.82V4.3C125.423 4.192 125.495 4.12 125.603 4.12H126.911C127.019 4.12 127.091 4.192 127.091 4.3V9.82C127.091 9.928 127.019 10 126.911 10H125.603C125.495 10 125.423 9.928 125.423 9.82ZM130.751 10.072C129.815 10.072 128.975 9.64 128.975 8.356V5.404H128.231C128.123 5.404 128.051 5.332 128.051 5.224V4.3C128.051 4.192 128.123 4.12 128.231 4.12H128.975V2.74C128.975 2.632 129.047 2.56 129.155 2.56H130.463C130.571 2.56 130.643 2.632 130.643 2.74V4.12H131.567C131.675 4.12 131.747 4.192 131.747 4.3V5.224C131.747 5.332 131.675 5.404 131.567 5.404H130.643V8.176C130.643 8.524 130.847 8.692 131.159 8.692C131.267 8.692 131.387 8.692 131.531 8.68C131.663 8.668 131.747 8.728 131.747 8.848V9.724C131.747 10 131.147 10.072 130.751 10.072ZM135.531 10.144C133.755 10.144 132.447 8.8 132.447 7.06C132.447 5.32 133.755 3.976 135.531 3.976C137.295 3.976 138.603 5.32 138.603 7.06C138.603 8.8 137.295 10.144 135.531 10.144ZM134.043 7.06C134.043 8.02 134.691 8.62 135.531 8.62C136.359 8.62 137.007 8.02 137.007 7.06C137.007 6.1 136.359 5.5 135.531 5.5C134.691 5.5 134.043 6.1 134.043 7.06ZM141.607 10.144C140.623 10.144 139.879 9.724 139.411 9.172C139.339 9.088 139.351 8.956 139.435 8.824L139.855 8.236C139.951 8.092 140.059 8.116 140.155 8.188C140.647 8.56 141.055 8.764 141.511 8.764C141.907 8.764 142.171 8.608 142.171 8.272C142.171 7.984 141.991 7.852 141.559 7.672L140.815 7.372C140.059 7.072 139.531 6.568 139.531 5.752C139.531 4.624 140.491 3.976 141.583 3.976C142.351 3.976 143.059 4.288 143.551 4.876C143.623 4.96 143.599 5.056 143.539 5.128L143.011 5.764C142.927 5.86 142.843 5.848 142.735 5.764C142.351 5.44 142.015 5.272 141.667 5.272C141.283 5.272 141.103 5.488 141.103 5.74C141.103 6.028 141.343 6.184 141.667 6.304L142.495 6.628C143.239 6.928 143.827 7.444 143.815 8.344C143.803 9.532 142.783 10.144 141.607 10.144Z" fill="#FFFBF3"/>
<path d="M0.756 34C0.675 34 0.621 33.946 0.621 33.865V27.835C0.621 27.754 0.675 27.7 0.756 27.7H1.773C1.854 27.7 1.908 27.754 1.908 27.835V33.865C1.908 33.946 1.854 34 1.773 34H0.756ZM3.20604 34C3.12504 34 3.07104 33.946 3.07104 33.865V27.7C3.07104 27.619 3.12504 27.565 3.20604 27.565H4.18704C4.26804 27.565 4.32204 27.619 4.32204 27.7V33.865C4.32204 33.946 4.26804 34 4.18704 34H3.20604ZM6.98435 34.108C6.05735 34.108 5.39135 33.442 5.39135 32.29V29.725C5.39135 29.644 5.44535 29.59 5.52635 29.59H6.49835C6.57935 29.59 6.63335 29.644 6.63335 29.725V32.011C6.63335 32.632 6.92135 32.965 7.45235 32.965C7.97435 32.965 8.31635 32.632 8.31635 32.011V29.725C8.31635 29.644 8.37035 29.59 8.45135 29.59H9.41435C9.49535 29.59 9.55835 29.644 9.55835 29.725V33.865C9.55835 33.946 9.49535 34 9.41435 34H8.48735C8.40635 34 8.36135 33.964 8.35235 33.856L8.31635 33.334C8.06435 33.784 7.64135 34.108 6.98435 34.108ZM12.1238 34.108C11.3858 34.108 10.8278 33.793 10.4768 33.379C10.4228 33.316 10.4318 33.217 10.4948 33.118L10.8098 32.677C10.8818 32.569 10.9628 32.587 11.0348 32.641C11.4038 32.92 11.7098 33.073 12.0518 33.073C12.3488 33.073 12.5468 32.956 12.5468 32.704C12.5468 32.488 12.4118 32.389 12.0878 32.254L11.5298 32.029C10.9628 31.804 10.5668 31.426 10.5668 30.814C10.5668 29.968 11.2868 29.482 12.1058 29.482C12.6818 29.482 13.2128 29.716 13.5818 30.157C13.6358 30.22 13.6178 30.292 13.5728 30.346L13.1768 30.823C13.1138 30.895 13.0508 30.886 12.9698 30.823C12.6818 30.58 12.4298 30.454 12.1688 30.454C11.8808 30.454 11.7458 30.616 11.7458 30.805C11.7458 31.021 11.9258 31.138 12.1688 31.228L12.7898 31.471C13.3478 31.696 13.7888 32.083 13.7798 32.758C13.7708 33.649 13.0058 34.108 12.1238 34.108ZM16.243 34.054C15.541 34.054 14.911 33.73 14.911 32.767V30.553H14.353C14.272 30.553 14.218 30.499 14.218 30.418V29.725C14.218 29.644 14.272 29.59 14.353 29.59H14.911V28.555C14.911 28.474 14.965 28.42 15.046 28.42H16.027C16.108 28.42 16.162 28.474 16.162 28.555V29.59H16.855C16.936 29.59 16.99 29.644 16.99 29.725V30.418C16.99 30.499 16.936 30.553 16.855 30.553H16.162V32.632C16.162 32.893 16.315 33.019 16.549 33.019C16.63 33.019 16.72 33.019 16.828 33.01C16.927 33.001 16.99 33.046 16.99 33.136V33.793C16.99 34 16.54 34.054 16.243 34.054ZM17.9189 34C17.8379 34 17.7839 33.946 17.7839 33.865V29.725C17.7839 29.644 17.8379 29.59 17.9189 29.59H18.8549C18.9359 29.59 18.9809 29.626 18.9899 29.734L19.0259 30.301C19.1789 29.833 19.4579 29.482 19.9799 29.482C20.1869 29.482 20.3129 29.536 20.3849 29.59C20.4479 29.635 20.4659 29.689 20.4659 29.77V30.562C20.4659 30.67 20.4029 30.697 20.2859 30.67C20.1869 30.643 20.0879 30.625 19.9619 30.625C19.3499 30.625 19.0259 31.03 19.0259 31.66V33.865C19.0259 33.946 18.9719 34 18.8909 34H17.9189ZM23.0134 34.108C21.7714 34.108 20.9164 33.109 20.9164 31.795C20.9164 30.49 21.7714 29.482 23.0134 29.482C23.6794 29.482 24.1564 29.752 24.4534 30.211L24.4714 29.725C24.4714 29.644 24.5254 29.59 24.6064 29.59H25.4884C25.5694 29.59 25.6234 29.644 25.6234 29.725V33.865C25.6234 33.946 25.5604 34 25.4794 34H24.6064C24.5254 34 24.4714 33.946 24.4714 33.865L24.4534 33.379C24.1474 33.829 23.6704 34.108 23.0134 34.108ZM22.1314 31.795C22.1314 32.506 22.6174 32.974 23.2744 32.974C23.9314 32.974 24.3904 32.506 24.3904 31.795C24.3904 31.084 23.9314 30.616 23.2744 30.616C22.6174 30.616 22.1314 31.093 22.1314 31.795ZM28.568 34.108C27.326 34.108 26.471 33.109 26.471 31.795C26.471 30.49 27.326 29.482 28.568 29.482C29.18 29.482 29.63 29.707 29.927 30.103V27.7C29.927 27.619 29.981 27.565 30.062 27.565H31.043C31.124 27.565 31.178 27.619 31.178 27.7V33.865C31.178 33.946 31.115 34 31.034 34H30.161C30.08 34 30.026 33.946 30.026 33.865L30.008 33.379C29.702 33.829 29.225 34.108 28.568 34.108ZM27.686 31.795C27.686 32.506 28.172 32.974 28.829 32.974C29.486 32.974 29.945 32.506 29.945 31.795C29.945 31.084 29.486 30.616 28.829 30.616C28.172 30.616 27.686 31.093 27.686 31.795ZM34.3387 34.108C33.0067 34.108 32.0257 33.1 32.0257 31.795C32.0257 30.49 33.0067 29.482 34.3387 29.482C35.6617 29.482 36.6427 30.49 36.6427 31.795C36.6427 33.1 35.6617 34.108 34.3387 34.108ZM33.2227 31.795C33.2227 32.515 33.7087 32.965 34.3387 32.965C34.9597 32.965 35.4457 32.515 35.4457 31.795C35.4457 31.075 34.9597 30.625 34.3387 30.625C33.7087 30.625 33.2227 31.075 33.2227 31.795ZM37.6152 34C37.5342 34 37.4802 33.946 37.4802 33.865V29.725C37.4802 29.644 37.5342 29.59 37.6152 29.59H38.5512C38.6322 29.59 38.6772 29.626 38.6862 29.734L38.7222 30.301C38.8752 29.833 39.1542 29.482 39.6762 29.482C39.8832 29.482 40.0092 29.536 40.0812 29.59C40.1442 29.635 40.1622 29.689 40.1622 29.77V30.562C40.1622 30.67 40.0992 30.697 39.9822 30.67C39.8832 30.643 39.7842 30.625 39.6582 30.625C39.0462 30.625 38.7222 31.03 38.7222 31.66V33.865C38.7222 33.946 38.6682 34 38.5872 34H37.6152ZM42.7096 34.108C41.4676 34.108 40.6126 33.109 40.6126 31.795C40.6126 30.49 41.4676 29.482 42.7096 29.482C43.3756 29.482 43.8526 29.752 44.1496 30.211L44.1676 29.725C44.1676 29.644 44.2216 29.59 44.3026 29.59H45.1846C45.2656 29.59 45.3196 29.644 45.3196 29.725V33.865C45.3196 33.946 45.2566 34 45.1756 34H44.3026C44.2216 34 44.1676 33.946 44.1676 33.865L44.1496 33.379C43.8436 33.829 43.3666 34.108 42.7096 34.108ZM41.8276 31.795C41.8276 32.506 42.3136 32.974 42.9706 32.974C43.6276 32.974 44.0866 32.506 44.0866 31.795C44.0866 31.084 43.6276 30.616 42.9706 30.616C42.3136 30.616 41.8276 31.093 41.8276 31.795ZM51.8031 34C51.7311 34 51.6771 33.973 51.6411 33.91L50.1201 31.615H49.1121V33.874C49.1121 33.955 49.0671 34 48.9861 34H48.5631C48.4821 34 48.4371 33.955 48.4371 33.874V27.826C48.4371 27.745 48.4821 27.7 48.5631 27.7H50.2821C51.6411 27.7 52.3521 28.519 52.3521 29.662C52.3521 30.634 51.8301 31.381 50.8131 31.57L52.3431 33.838C52.4061 33.937 52.3611 34 52.2531 34H51.8031ZM49.1121 31.012H50.2281C51.0471 31.012 51.6951 30.652 51.6951 29.662C51.6951 28.663 51.0471 28.303 50.2281 28.303H49.1121V31.012ZM53.676 34C53.595 34 53.559 33.955 53.559 33.874V27.691C53.559 27.61 53.595 27.565 53.676 27.565H54.09C54.171 27.565 54.207 27.61 54.207 27.691V30.292C54.459 29.842 54.936 29.482 55.665 29.482C56.628 29.482 57.276 30.112 57.276 31.282V33.874C57.276 33.955 57.24 34 57.159 34H56.736C56.655 34 56.628 33.955 56.628 33.874V31.345C56.628 30.562 56.214 30.085 55.485 30.085C54.756 30.085 54.207 30.562 54.207 31.345V33.874C54.207 33.955 54.171 34 54.09 34H53.676ZM58.9631 28.447C58.7381 28.447 58.5581 28.267 58.5581 28.042C58.5581 27.808 58.7381 27.628 58.9631 27.628C59.1881 27.628 59.3681 27.808 59.3681 28.042C59.3681 28.267 59.1881 28.447 58.9631 28.447ZM58.6391 33.874V29.716C58.6391 29.635 58.6751 29.59 58.7561 29.59H59.1701C59.2511 29.59 59.2871 29.635 59.2871 29.716V33.874C59.2871 33.955 59.2511 34 59.1701 34H58.7561C58.6751 34 58.6391 33.955 58.6391 33.874ZM60.76 34C60.679 34 60.643 33.955 60.643 33.874V29.716C60.643 29.635 60.679 29.59 60.76 29.59H61.138C61.228 29.59 61.264 29.626 61.264 29.725L61.291 30.292C61.543 29.842 62.02 29.482 62.749 29.482C63.712 29.482 64.36 30.112 64.36 31.282V33.874C64.36 33.955 64.324 34 64.243 34H63.82C63.739 34 63.712 33.955 63.712 33.874V31.345C63.712 30.562 63.298 30.085 62.569 30.085C61.84 30.085 61.291 30.562 61.291 31.345V33.874C61.291 33.955 61.255 34 61.174 34H60.76ZM66.2717 35.71C66.1817 35.71 66.1457 35.656 66.1817 35.575L66.8027 34.018L65.1107 29.743C65.0747 29.644 65.1107 29.59 65.2097 29.59H65.6237C65.6957 29.59 65.7407 29.626 65.7677 29.698L67.1267 33.28L68.4947 29.698C68.5217 29.626 68.5667 29.59 68.6387 29.59H69.0527C69.1517 29.59 69.1877 29.644 69.1517 29.743L66.8297 35.602C66.8027 35.674 66.7487 35.71 66.6767 35.71H66.2717ZM71.9608 34C71.8618 34 71.8258 33.937 71.8618 33.847L74.0398 27.808C74.0668 27.736 74.1298 27.7 74.2018 27.7H74.6968C74.7688 27.7 74.8318 27.736 74.8588 27.808L77.0458 33.847C77.0818 33.937 77.0458 34 76.9468 34H76.4968C76.4248 34 76.3798 33.973 76.3528 33.892L75.8938 32.587H73.0138L72.5548 33.892C72.5278 33.973 72.4828 34 72.4018 34H71.9608ZM73.2298 31.984H75.6778L74.4538 28.51L73.2298 31.984ZM78.3117 34C78.2307 34 78.1947 33.955 78.1947 33.874V29.716C78.1947 29.635 78.2307 29.59 78.3117 29.59H78.6897C78.7797 29.59 78.8157 29.626 78.8157 29.725L78.8337 30.229C79.0497 29.815 79.4367 29.482 80.0847 29.482C80.6967 29.482 81.1557 29.77 81.3807 30.346C81.6057 29.869 82.0197 29.482 82.7667 29.482C83.6757 29.482 84.2247 30.076 84.2247 31.237V33.874C84.2247 33.955 84.1887 34 84.1077 34H83.6937C83.6127 34 83.5767 33.955 83.5767 33.874V31.309C83.5767 30.535 83.2617 30.085 82.6227 30.085C81.9747 30.085 81.5337 30.544 81.5337 31.309V33.874C81.5337 33.955 81.4977 34 81.4167 34H81.0027C80.9217 34 80.8857 33.955 80.8857 33.874V31.309C80.8857 30.535 80.5257 30.085 79.8867 30.085C79.2297 30.085 78.8427 30.544 78.8427 31.309V33.874C78.8427 33.955 78.8067 34 78.7257 34H78.3117ZM87.5391 34.108C86.2521 34.108 85.3701 33.118 85.3701 31.795C85.3701 30.481 86.2521 29.482 87.5391 29.482C88.3311 29.482 88.9071 29.869 89.2311 30.454L89.2491 29.716C89.2491 29.635 89.2851 29.59 89.3661 29.59H89.7531C89.8341 29.59 89.8701 29.635 89.8701 29.716V33.874C89.8701 33.955 89.8341 34 89.7531 34H89.3661C89.2851 34 89.2491 33.955 89.2491 33.874L89.2311 33.154C88.9071 33.748 88.3311 34.108 87.5391 34.108ZM86.0001 31.795C86.0001 32.821 86.6841 33.505 87.6291 33.505C88.5741 33.505 89.2311 32.83 89.2311 31.813C89.2311 30.787 88.5741 30.085 87.6291 30.085C86.6841 30.085 86.0001 30.778 86.0001 31.795ZM92.1379 35.71C92.0479 35.71 92.0119 35.656 92.0479 35.575L92.6689 34.018L90.9769 29.743C90.9409 29.644 90.9769 29.59 91.0759 29.59H91.4899C91.5619 29.59 91.6069 29.626 91.6339 29.698L92.9929 33.28L94.3609 29.698C94.3879 29.626 94.4329 29.59 94.5049 29.59H94.9189C95.0179 29.59 95.0539 29.644 95.0179 29.743L92.6959 35.602C92.6689 35.674 92.6149 35.71 92.5429 35.71H92.1379ZM97.7608 34.108C96.4738 34.108 95.5918 33.118 95.5918 31.795C95.5918 30.481 96.4738 29.482 97.7608 29.482C98.5528 29.482 99.1288 29.869 99.4528 30.454L99.4708 29.716C99.4708 29.635 99.5068 29.59 99.5878 29.59H99.9748C100.056 29.59 100.092 29.635 100.092 29.716V33.874C100.092 33.955 100.056 34 99.9748 34H99.5878C99.5068 34 99.4708 33.955 99.4708 33.874L99.4528 33.154C99.1288 33.748 98.5528 34.108 97.7608 34.108ZM96.2218 31.795C96.2218 32.821 96.9058 33.505 97.8508 33.505C98.7958 33.505 99.4528 32.83 99.4528 31.813C99.4528 30.787 98.7958 30.085 97.8508 30.085C96.9058 30.085 96.2218 30.778 96.2218 31.795ZM0.756 43C0.675 43 0.621 42.946 0.621 42.865V36.835C0.621 36.754 0.675 36.7 0.756 36.7H1.773C1.854 36.7 1.908 36.754 1.908 36.835V42.865C1.908 42.946 1.854 43 1.773 43H0.756ZM3.20604 43C3.12504 43 3.07104 42.946 3.07104 42.865V36.7C3.07104 36.619 3.12504 36.565 3.20604 36.565H4.18704C4.26804 36.565 4.32204 36.619 4.32204 36.7V42.865C4.32204 42.946 4.26804 43 4.18704 43H3.20604ZM6.98435 43.108C6.05735 43.108 5.39135 42.442 5.39135 41.29V38.725C5.39135 38.644 5.44535 38.59 5.52635 38.59H6.49835C6.57935 38.59 6.63335 38.644 6.63335 38.725V41.011C6.63335 41.632 6.92135 41.965 7.45235 41.965C7.97435 41.965 8.31635 41.632 8.31635 41.011V38.725C8.31635 38.644 8.37035 38.59 8.45135 38.59H9.41435C9.49535 38.59 9.55835 38.644 9.55835 38.725V42.865C9.55835 42.946 9.49535 43 9.41435 43H8.48735C8.40635 43 8.36135 42.964 8.35235 42.856L8.31635 42.334C8.06435 42.784 7.64135 43.108 6.98435 43.108ZM12.1238 43.108C11.3858 43.108 10.8278 42.793 10.4768 42.379C10.4228 42.316 10.4318 42.217 10.4948 42.118L10.8098 41.677C10.8818 41.569 10.9628 41.587 11.0348 41.641C11.4038 41.92 11.7098 42.073 12.0518 42.073C12.3488 42.073 12.5468 41.956 12.5468 41.704C12.5468 41.488 12.4118 41.389 12.0878 41.254L11.5298 41.029C10.9628 40.804 10.5668 40.426 10.5668 39.814C10.5668 38.968 11.2868 38.482 12.1058 38.482C12.6818 38.482 13.2128 38.716 13.5818 39.157C13.6358 39.22 13.6178 39.292 13.5728 39.346L13.1768 39.823C13.1138 39.895 13.0508 39.886 12.9698 39.823C12.6818 39.58 12.4298 39.454 12.1688 39.454C11.8808 39.454 11.7458 39.616 11.7458 39.805C11.7458 40.021 11.9258 40.138 12.1688 40.228L12.7898 40.471C13.3478 40.696 13.7888 41.083 13.7798 41.758C13.7708 42.649 13.0058 43.108 12.1238 43.108ZM16.243 43.054C15.541 43.054 14.911 42.73 14.911 41.767V39.553H14.353C14.272 39.553 14.218 39.499 14.218 39.418V38.725C14.218 38.644 14.272 38.59 14.353 38.59H14.911V37.555C14.911 37.474 14.965 37.42 15.046 37.42H16.027C16.108 37.42 16.162 37.474 16.162 37.555V38.59H16.855C16.936 38.59 16.99 38.644 16.99 38.725V39.418C16.99 39.499 16.936 39.553 16.855 39.553H16.162V41.632C16.162 41.893 16.315 42.019 16.549 42.019C16.63 42.019 16.72 42.019 16.828 42.01C16.927 42.001 16.99 42.046 16.99 42.136V42.793C16.99 43 16.54 43.054 16.243 43.054ZM17.9189 43C17.8379 43 17.7839 42.946 17.7839 42.865V38.725C17.7839 38.644 17.8379 38.59 17.9189 38.59H18.8549C18.9359 38.59 18.9809 38.626 18.9899 38.734L19.0259 39.301C19.1789 38.833 19.4579 38.482 19.9799 38.482C20.1869 38.482 20.3129 38.536 20.3849 38.59C20.4479 38.635 20.4659 38.689 20.4659 38.77V39.562C20.4659 39.67 20.4029 39.697 20.2859 39.67C20.1869 39.643 20.0879 39.625 19.9619 39.625C19.3499 39.625 19.0259 40.03 19.0259 40.66V42.865C19.0259 42.946 18.9719 43 18.8909 43H17.9189ZM23.0134 43.108C21.7714 43.108 20.9164 42.109 20.9164 40.795C20.9164 39.49 21.7714 38.482 23.0134 38.482C23.6794 38.482 24.1564 38.752 24.4534 39.211L24.4714 38.725C24.4714 38.644 24.5254 38.59 24.6064 38.59H25.4884C25.5694 38.59 25.6234 38.644 25.6234 38.725V42.865C25.6234 42.946 25.5604 43 25.4794 43H24.6064C24.5254 43 24.4714 42.946 24.4714 42.865L24.4534 42.379C24.1474 42.829 23.6704 43.108 23.0134 43.108ZM22.1314 40.795C22.1314 41.506 22.6174 41.974 23.2744 41.974C23.9314 41.974 24.3904 41.506 24.3904 40.795C24.3904 40.084 23.9314 39.616 23.2744 39.616C22.6174 39.616 22.1314 40.093 22.1314 40.795ZM28.568 43.108C27.326 43.108 26.471 42.109 26.471 40.795C26.471 39.49 27.326 38.482 28.568 38.482C29.18 38.482 29.63 38.707 29.927 39.103V36.7C29.927 36.619 29.981 36.565 30.062 36.565H31.043C31.124 36.565 31.178 36.619 31.178 36.7V42.865C31.178 42.946 31.115 43 31.034 43H30.161C30.08 43 30.026 42.946 30.026 42.865L30.008 42.379C29.702 42.829 29.225 43.108 28.568 43.108ZM27.686 40.795C27.686 41.506 28.172 41.974 28.829 41.974C29.486 41.974 29.945 41.506 29.945 40.795C29.945 40.084 29.486 39.616 28.829 39.616C28.172 39.616 27.686 40.093 27.686 40.795ZM34.3387 43.108C33.0067 43.108 32.0257 42.1 32.0257 40.795C32.0257 39.49 33.0067 38.482 34.3387 38.482C35.6617 38.482 36.6427 39.49 36.6427 40.795C36.6427 42.1 35.6617 43.108 34.3387 43.108ZM33.2227 40.795C33.2227 41.515 33.7087 41.965 34.3387 41.965C34.9597 41.965 35.4457 41.515 35.4457 40.795C35.4457 40.075 34.9597 39.625 34.3387 39.625C33.7087 39.625 33.2227 40.075 33.2227 40.795ZM37.6152 43C37.5342 43 37.4802 42.946 37.4802 42.865V38.725C37.4802 38.644 37.5342 38.59 37.6152 38.59H38.5512C38.6322 38.59 38.6772 38.626 38.6862 38.734L38.7222 39.301C38.8752 38.833 39.1542 38.482 39.6762 38.482C39.8832 38.482 40.0092 38.536 40.0812 38.59C40.1442 38.635 40.1622 38.689 40.1622 38.77V39.562C40.1622 39.67 40.0992 39.697 39.9822 39.67C39.8832 39.643 39.7842 39.625 39.6582 39.625C39.0462 39.625 38.7222 40.03 38.7222 40.66V42.865C38.7222 42.946 38.6682 43 38.5872 43H37.6152ZM42.9996 43C42.9186 43 42.8736 42.955 42.8736 42.874V36.826C42.8736 36.745 42.9186 36.7 42.9996 36.7H43.4226C43.5036 36.7 43.5486 36.745 43.5486 36.826V42.397H45.8346C45.9156 42.397 45.9696 42.451 45.9696 42.532V42.865C45.9696 42.946 45.9156 43 45.8346 43H42.9996ZM49.0293 43.108C47.5893 43.108 46.6983 42.064 46.6983 40.777C46.6983 39.481 47.5983 38.482 48.9123 38.482C50.2173 38.482 50.9733 39.49 50.9733 40.57C50.9733 40.894 50.9103 41.029 50.6493 41.029H47.3283C47.4183 41.902 48.0123 42.559 49.0833 42.559C49.6233 42.559 50.0103 42.397 50.3523 42.136C50.3973 42.1 50.4513 42.1 50.4873 42.145L50.6403 42.352C50.7033 42.433 50.6673 42.478 50.6043 42.541C50.2083 42.919 49.6413 43.108 49.0293 43.108ZM47.3283 40.525H50.3973C50.3613 39.652 49.7943 39.058 48.9033 39.058C48.0303 39.058 47.4183 39.625 47.3283 40.525ZM54.1516 43.108C52.8646 43.108 51.8926 42.109 51.8926 40.795C51.8926 39.481 52.8646 38.482 54.1516 38.482C55.4296 38.482 56.4016 39.481 56.4016 40.795C56.4016 42.109 55.4296 43.108 54.1516 43.108ZM52.5226 40.795C52.5226 41.794 53.2156 42.505 54.1516 42.505C55.0786 42.505 55.7716 41.794 55.7716 40.795C55.7716 39.796 55.0786 39.085 54.1516 39.085C53.2156 39.085 52.5226 39.796 52.5226 40.795ZM57.6574 43C57.5764 43 57.5404 42.955 57.5404 42.874V38.716C57.5404 38.635 57.5764 38.59 57.6574 38.59H58.0354C58.1254 38.59 58.1614 38.626 58.1614 38.725L58.1884 39.292C58.4404 38.842 58.9174 38.482 59.6464 38.482C60.6094 38.482 61.2574 39.112 61.2574 40.282V42.874C61.2574 42.955 61.2214 43 61.1404 43H60.7174C60.6364 43 60.6094 42.955 60.6094 42.874V40.345C60.6094 39.562 60.1954 39.085 59.4664 39.085C58.7374 39.085 58.1884 39.562 58.1884 40.345V42.874C58.1884 42.955 58.1524 43 58.0714 43H57.6574ZM64.5645 43.108C63.2775 43.108 62.3955 42.118 62.3955 40.795C62.3955 39.481 63.2775 38.482 64.5645 38.482C65.3565 38.482 65.9325 38.869 66.2565 39.454L66.2745 38.716C66.2745 38.635 66.3105 38.59 66.3915 38.59H66.7785C66.8595 38.59 66.8955 38.635 66.8955 38.716V42.874C66.8955 42.955 66.8595 43 66.7785 43H66.3915C66.3105 43 66.2745 42.955 66.2745 42.874L66.2565 42.154C65.9325 42.748 65.3565 43.108 64.5645 43.108ZM63.0255 40.795C63.0255 41.821 63.7095 42.505 64.6545 42.505C65.5995 42.505 66.2565 41.83 66.2565 40.813C66.2565 39.787 65.5995 39.085 64.6545 39.085C63.7095 39.085 63.0255 39.778 63.0255 40.795ZM68.3713 43C68.2903 43 68.2543 42.955 68.2543 42.874V38.716C68.2543 38.635 68.2903 38.59 68.3713 38.59H68.7493C68.8393 38.59 68.8753 38.626 68.8753 38.725L68.8933 39.229C69.0643 38.815 69.3613 38.482 69.9103 38.482C70.0903 38.482 70.2343 38.518 70.3153 38.572C70.3693 38.608 70.3873 38.644 70.3873 38.725V39.04C70.3873 39.139 70.3243 39.157 70.2253 39.13C70.1083 39.094 70.0003 39.085 69.9103 39.085C69.1183 39.085 68.9023 39.787 68.9023 40.282V42.874C68.9023 42.955 68.8663 43 68.7853 43H68.3713ZM73.1514 43.108C71.8644 43.108 70.9824 42.118 70.9824 40.795C70.9824 39.481 71.8644 38.482 73.1514 38.482C73.9254 38.482 74.5104 38.851 74.8344 39.427V36.691C74.8344 36.61 74.8704 36.565 74.9514 36.565H75.3654C75.4464 36.565 75.4824 36.61 75.4824 36.691V42.874C75.4824 42.955 75.4464 43 75.3654 43H74.9784C74.8974 43 74.8614 42.955 74.8614 42.874L74.8434 42.154C74.5194 42.748 73.9434 43.108 73.1514 43.108ZM71.6124 40.795C71.6124 41.821 72.2964 42.505 73.2414 42.505C74.1864 42.505 74.8434 41.83 74.8434 40.813C74.8434 39.787 74.1864 39.085 73.2414 39.085C72.2964 39.085 71.6124 39.778 71.6124 40.795ZM78.8752 43.108C77.5882 43.108 76.6162 42.109 76.6162 40.795C76.6162 39.481 77.5882 38.482 78.8752 38.482C80.1532 38.482 81.1252 39.481 81.1252 40.795C81.1252 42.109 80.1532 43.108 78.8752 43.108ZM77.2462 40.795C77.2462 41.794 77.9392 42.505 78.8752 42.505C79.8022 42.505 80.4952 41.794 80.4952 40.795C80.4952 39.796 79.8022 39.085 78.8752 39.085C77.9392 39.085 77.2462 39.796 77.2462 40.795ZM84.2818 43C84.2008 43 84.1558 42.955 84.1558 42.874V36.826C84.1558 36.745 84.2008 36.7 84.2818 36.7H84.8668C84.9388 36.7 84.9838 36.727 85.0108 36.79L87.3148 42.262L89.6188 36.79C89.6458 36.727 89.6908 36.7 89.7628 36.7H90.3478C90.4288 36.7 90.4738 36.745 90.4738 36.826V42.874C90.4738 42.955 90.4288 43 90.3478 43H89.9248C89.8438 43 89.7988 42.955 89.7988 42.874V37.843L87.6928 42.901C87.6658 42.973 87.6118 43 87.5398 43H87.0898C87.0178 43 86.9638 42.973 86.9368 42.901L84.8308 37.843V42.874C84.8308 42.955 84.7858 43 84.7048 43H84.2818ZM93.534 43.108C92.58 43.108 91.932 42.478 91.932 41.308V38.716C91.932 38.635 91.968 38.59 92.049 38.59H92.463C92.544 38.59 92.58 38.635 92.58 38.716V41.245C92.58 42.028 92.985 42.505 93.714 42.505C94.443 42.505 95.001 42.028 95.001 41.245V38.716C95.001 38.635 95.028 38.59 95.109 38.59H95.532C95.613 38.59 95.649 38.635 95.649 38.716V42.874C95.649 42.955 95.613 43 95.532 43H95.145C95.055 43 95.028 42.964 95.019 42.865L95.001 42.298C94.749 42.748 94.263 43.108 93.534 43.108ZM97.1291 43C97.0481 43 97.0121 42.955 97.0121 42.874V38.716C97.0121 38.635 97.0481 38.59 97.1291 38.59H97.5071C97.5971 38.59 97.6331 38.626 97.6331 38.725L97.6511 39.229C97.8221 38.815 98.1191 38.482 98.6681 38.482C98.8481 38.482 98.9921 38.518 99.0731 38.572C99.1271 38.608 99.1451 38.644 99.1451 38.725V39.04C99.1451 39.139 99.0821 39.157 98.9831 39.13C98.8661 39.094 98.7581 39.085 98.6681 39.085C97.8761 39.085 97.6601 39.787 97.6601 40.282V42.874C97.6601 42.955 97.6241 43 97.5431 43H97.1291ZM102.035 43.108C100.73 43.108 99.7403 42.118 99.7403 40.795C99.7403 39.472 100.73 38.482 102.035 38.482C102.737 38.482 103.304 38.761 103.682 39.22C103.736 39.292 103.754 39.346 103.7 39.4L103.466 39.616C103.385 39.697 103.313 39.661 103.259 39.607C102.98 39.31 102.638 39.085 102.062 39.085C101.09 39.085 100.37 39.787 100.37 40.795C100.37 41.803 101.09 42.505 102.071 42.505C102.647 42.505 102.989 42.28 103.259 41.992C103.322 41.929 103.394 41.893 103.475 41.974L103.709 42.19C103.763 42.244 103.745 42.298 103.691 42.37C103.313 42.829 102.746 43.108 102.035 43.108ZM105.202 37.447C104.977 37.447 104.797 37.267 104.797 37.042C104.797 36.808 104.977 36.628 105.202 36.628C105.427 36.628 105.607 36.808 105.607 37.042C105.607 37.267 105.427 37.447 105.202 37.447ZM104.878 42.874V38.716C104.878 38.635 104.914 38.59 104.995 38.59H105.409C105.49 38.59 105.526 38.635 105.526 38.716V42.874C105.526 42.955 105.49 43 105.409 43H104.995C104.914 43 104.878 42.955 104.878 42.874ZM108.826 43.108C107.539 43.108 106.657 42.118 106.657 40.795C106.657 39.481 107.539 38.482 108.826 38.482C109.618 38.482 110.194 38.869 110.518 39.454L110.536 38.716C110.536 38.635 110.572 38.59 110.653 38.59H111.04C111.121 38.59 111.157 38.635 111.157 38.716V42.874C111.157 42.955 111.121 43 111.04 43H110.653C110.572 43 110.536 42.955 110.536 42.874L110.518 42.154C110.194 42.748 109.618 43.108 108.826 43.108ZM107.287 40.795C107.287 41.821 107.971 42.505 108.916 42.505C109.861 42.505 110.518 41.83 110.518 40.813C110.518 39.787 109.861 39.085 108.916 39.085C107.971 39.085 107.287 39.778 107.287 40.795ZM0.756 52C0.675 52 0.621 51.946 0.621 51.865V45.835C0.621 45.754 0.675 45.7 0.756 45.7H2.61C4.716 45.7 5.823 47.077 5.823 48.85C5.823 50.623 4.716 52 2.61 52H0.756ZM1.908 50.857H2.592C3.87 50.857 4.518 50.146 4.518 48.85C4.518 47.554 3.87 46.843 2.592 46.843H1.908V50.857ZM7.39266 46.807C6.99666 46.807 6.69966 46.501 6.69966 46.114C6.69966 45.736 6.99666 45.43 7.39266 45.43C7.78866 45.43 8.07666 45.736 8.07666 46.114C8.07666 46.501 7.78866 46.807 7.39266 46.807ZM6.76266 51.865V47.725C6.76266 47.644 6.81666 47.59 6.89766 47.59H7.87866C7.95966 47.59 8.01366 47.644 8.01366 47.725V51.865C8.01366 51.946 7.95966 52 7.87866 52H6.89766C6.81666 52 6.76266 51.946 6.76266 51.865ZM10.5945 52.108C9.85655 52.108 9.29855 51.793 8.94755 51.379C8.89355 51.316 8.90255 51.217 8.96555 51.118L9.28055 50.677C9.35255 50.569 9.43355 50.587 9.50555 50.641C9.87455 50.92 10.1805 51.073 10.5225 51.073C10.8195 51.073 11.0175 50.956 11.0175 50.704C11.0175 50.488 10.8825 50.389 10.5585 50.254L10.0005 50.029C9.43355 49.804 9.03755 49.426 9.03755 48.814C9.03755 47.968 9.75755 47.482 10.5765 47.482C11.1525 47.482 11.6835 47.716 12.0525 48.157C12.1065 48.22 12.0885 48.292 12.0435 48.346L11.6475 48.823C11.5845 48.895 11.5215 48.886 11.4405 48.823C11.1525 48.58 10.9005 48.454 10.6395 48.454C10.3515 48.454 10.2165 48.616 10.2165 48.805C10.2165 49.021 10.3965 49.138 10.6395 49.228L11.2605 49.471C11.8185 49.696 12.2595 50.083 12.2505 50.758C12.2415 51.649 11.4765 52.108 10.5945 52.108ZM15.2866 52.108C13.8376 52.108 12.8656 51.109 12.8656 49.777C12.8656 48.481 13.7746 47.482 15.1336 47.482C16.4746 47.482 17.2486 48.472 17.2486 49.588C17.2486 50.02 17.1496 50.263 16.7626 50.263H14.0806C14.2156 50.821 14.6746 51.127 15.3856 51.127C15.7276 51.127 16.0516 51.064 16.4116 50.857C16.4746 50.821 16.5196 50.83 16.5646 50.893L16.8976 51.352C16.9426 51.415 16.9336 51.478 16.8526 51.55C16.4746 51.928 15.9076 52.108 15.2866 52.108ZM14.0626 49.39H16.1416C16.0696 48.805 15.6736 48.508 15.1426 48.508C14.5936 48.508 14.1706 48.805 14.0626 49.39ZM18.2178 52C18.1368 52 18.0828 51.946 18.0828 51.865V47.725C18.0828 47.644 18.1368 47.59 18.2178 47.59H19.1538C19.2348 47.59 19.2888 47.626 19.2888 47.734L19.3248 48.256C19.5768 47.806 19.9998 47.482 20.6568 47.482C21.5748 47.482 22.2498 48.148 22.2498 49.3V51.865C22.2498 51.946 22.1868 52 22.1058 52H21.1428C21.0618 52 21.0078 51.946 21.0078 51.865V49.579C21.0078 48.958 20.7198 48.625 20.1888 48.625C19.6668 48.625 19.3248 48.958 19.3248 49.579V51.865C19.3248 51.946 19.2708 52 19.1898 52H18.2178ZM18.5778 46.42C18.5958 45.799 19.0368 45.511 19.5138 45.511C20.2068 45.511 20.3418 46.114 20.7738 46.114C20.9988 46.114 21.0978 46.006 21.1248 45.871C21.1338 45.826 21.1698 45.799 21.2238 45.799H21.7188C21.7728 45.799 21.8088 45.835 21.8088 45.889C21.7908 46.537 21.3498 46.825 20.8728 46.825C20.1708 46.825 20.0448 46.222 19.6128 46.222C19.3878 46.222 19.2888 46.33 19.2618 46.465C19.2528 46.51 19.2168 46.537 19.1628 46.537H18.6678C18.6138 46.537 18.5778 46.492 18.5778 46.42ZM25.1843 52.108C23.9423 52.108 23.0873 51.109 23.0873 49.795C23.0873 48.49 23.9423 47.482 25.1843 47.482C25.8503 47.482 26.3273 47.752 26.6243 48.211L26.6423 47.725C26.6423 47.644 26.6963 47.59 26.7773 47.59H27.6593C27.7402 47.59 27.7943 47.644 27.7943 47.725V51.865C27.7943 51.946 27.7313 52 27.6503 52H26.7773C26.6963 52 26.6423 51.946 26.6423 51.865L26.6243 51.379C26.3183 51.829 25.8413 52.108 25.1843 52.108ZM24.3023 49.795C24.3023 50.506 24.7883 50.974 25.4453 50.974C26.1023 50.974 26.5613 50.506 26.5613 49.795C26.5613 49.084 26.1023 48.616 25.4453 48.616C24.7883 48.616 24.3023 49.093 24.3023 49.795ZM30.7389 52.108C29.4969 52.108 28.6419 51.109 28.6419 49.795C28.6419 48.49 29.4969 47.482 30.7389 47.482C31.3509 47.482 31.8009 47.707 32.0979 48.103V45.7C32.0979 45.619 32.1519 45.565 32.2329 45.565H33.2139C33.2949 45.565 33.3489 45.619 33.3489 45.7V51.865C33.3489 51.946 33.2859 52 33.2049 52H32.3319C32.2509 52 32.1969 51.946 32.1969 51.865L32.1789 51.379C31.8729 51.829 31.3959 52.108 30.7389 52.108ZM29.8569 49.795C29.8569 50.506 30.3429 50.974 30.9999 50.974C31.6569 50.974 32.1159 50.506 32.1159 49.795C32.1159 49.084 31.6569 48.616 30.9999 48.616C30.3429 48.616 29.8569 49.093 29.8569 49.795ZM36.5096 52.108C35.1776 52.108 34.1966 51.1 34.1966 49.795C34.1966 48.49 35.1776 47.482 36.5096 47.482C37.8326 47.482 38.8136 48.49 38.8136 49.795C38.8136 51.1 37.8326 52.108 36.5096 52.108ZM35.3936 49.795C35.3936 50.515 35.8796 50.965 36.5096 50.965C37.1306 50.965 37.6166 50.515 37.6166 49.795C37.6166 49.075 37.1306 48.625 36.5096 48.625C35.8796 48.625 35.3936 49.075 35.3936 49.795ZM39.7861 52C39.7051 52 39.6511 51.946 39.6511 51.865V47.725C39.6511 47.644 39.7051 47.59 39.7861 47.59H40.7221C40.8031 47.59 40.8481 47.626 40.8571 47.734L40.8931 48.301C41.0461 47.833 41.3251 47.482 41.8471 47.482C42.0541 47.482 42.1801 47.536 42.2521 47.59C42.3151 47.635 42.3331 47.689 42.3331 47.77V48.562C42.3331 48.67 42.2701 48.697 42.1531 48.67C42.0541 48.643 41.9551 48.625 41.8291 48.625C41.2171 48.625 40.8931 49.03 40.8931 49.66V51.865C40.8931 51.946 40.8391 52 40.7581 52H39.7861ZM44.8805 52.108C43.6385 52.108 42.7835 51.109 42.7835 49.795C42.7835 48.49 43.6385 47.482 44.8805 47.482C45.5465 47.482 46.0235 47.752 46.3205 48.211L46.3385 47.725C46.3385 47.644 46.3925 47.59 46.4735 47.59H47.3555C47.4365 47.59 47.4905 47.644 47.4905 47.725V51.865C47.4905 51.946 47.4275 52 47.3465 52H46.4735C46.3925 52 46.3385 51.946 46.3385 51.865L46.3205 51.379C46.0145 51.829 45.5375 52.108 44.8805 52.108ZM43.9985 49.795C43.9985 50.506 44.4845 50.974 45.1415 50.974C45.7985 50.974 46.2575 50.506 46.2575 49.795C46.2575 49.084 45.7985 48.616 45.1415 48.616C44.4845 48.616 43.9985 49.093 43.9985 49.795ZM50.734 52C50.653 52 50.608 51.955 50.608 51.874V45.826C50.608 45.745 50.653 45.7 50.734 45.7H52.102C54.298 45.7 55.306 47.05 55.306 48.85C55.306 50.65 54.298 52 52.102 52H50.734ZM51.283 51.397H52.093C53.848 51.397 54.622 50.425 54.622 48.85C54.622 47.275 53.848 46.303 52.093 46.303H51.283V51.397ZM58.4825 52.108C57.1955 52.108 56.3135 51.118 56.3135 49.795C56.3135 48.481 57.1955 47.482 58.4825 47.482C59.2745 47.482 59.8505 47.869 60.1745 48.454L60.1925 47.716C60.1925 47.635 60.2285 47.59 60.3095 47.59H60.6965C60.7775 47.59 60.8135 47.635 60.8135 47.716V51.874C60.8135 51.955 60.7775 52 60.6965 52H60.3095C60.2285 52 60.1925 51.955 60.1925 51.874L60.1745 51.154C59.8505 51.748 59.2745 52.108 58.4825 52.108ZM56.9435 49.795C56.9435 50.821 57.6275 51.505 58.5725 51.505C59.5175 51.505 60.1745 50.83 60.1745 49.813C60.1745 48.787 59.5175 48.085 58.5725 48.085C57.6275 48.085 56.9435 48.778 56.9435 49.795ZM62.2893 52C62.2083 52 62.1723 51.955 62.1723 51.874V47.716C62.1723 47.635 62.2083 47.59 62.2893 47.59H62.6673C62.7573 47.59 62.7933 47.626 62.7933 47.725L62.8203 48.292C63.0723 47.842 63.5493 47.482 64.2783 47.482C65.2413 47.482 65.8893 48.112 65.8893 49.282V51.874C65.8893 51.955 65.8533 52 65.7723 52H65.3493C65.2683 52 65.2413 51.955 65.2413 51.874V49.345C65.2413 48.562 64.8273 48.085 64.0983 48.085C63.3693 48.085 62.8203 48.562 62.8203 49.345V51.874C62.8203 51.955 62.7843 52 62.7033 52H62.2893ZM69.3584 52.108C67.9184 52.108 67.0274 51.064 67.0274 49.777C67.0274 48.481 67.9274 47.482 69.2414 47.482C70.5464 47.482 71.3024 48.49 71.3024 49.57C71.3024 49.894 71.2394 50.029 70.9784 50.029H67.6574C67.7474 50.902 68.3414 51.559 69.4124 51.559C69.9524 51.559 70.3394 51.397 70.6814 51.136C70.7264 51.1 70.7804 51.1 70.8164 51.145L70.9694 51.352C71.0324 51.433 70.9964 51.478 70.9334 51.541C70.5374 51.919 69.9704 52.108 69.3584 52.108ZM67.6574 49.525H70.7264C70.6904 48.652 70.1234 48.058 69.2324 48.058C68.3594 48.058 67.7474 48.625 67.6574 49.525ZM72.5637 52C72.4827 52 72.4467 51.955 72.4467 51.874V45.691C72.4467 45.61 72.4827 45.565 72.5637 45.565H72.9777C73.0587 45.565 73.0947 45.61 73.0947 45.691V51.874C73.0947 51.955 73.0587 52 72.9777 52H72.5637ZM74.5676 52C74.4866 52 74.4506 51.955 74.4506 51.874V45.691C74.4506 45.61 74.4866 45.565 74.5676 45.565H74.9816C75.0626 45.565 75.0986 45.61 75.0986 45.691V51.874C75.0986 51.955 75.0626 52 74.9816 52H74.5676ZM77.3635 53.71C77.2735 53.71 77.2375 53.656 77.2735 53.575L77.8945 52.018L76.2025 47.743C76.1665 47.644 76.2025 47.59 76.3015 47.59H76.7155C76.7875 47.59 76.8325 47.626 76.8595 47.698L78.2185 51.28L79.5865 47.698C79.6135 47.626 79.6585 47.59 79.7305 47.59H80.1445C80.2435 47.59 80.2795 47.644 80.2435 47.743L77.9215 53.602C77.8945 53.674 77.8405 53.71 77.7685 53.71H77.3635ZM86.2656 52.117C84.4026 52.117 83.0706 50.695 83.0706 48.877C83.0706 47.059 84.4026 45.628 86.2656 45.628C87.1386 45.628 87.8316 45.943 88.3896 46.438C88.4526 46.501 88.4886 46.564 88.4166 46.654L88.1646 46.933C88.1016 46.996 88.0476 46.996 87.9666 46.933C87.5076 46.528 86.9586 46.285 86.2836 46.285C84.8346 46.285 83.7546 47.383 83.7546 48.877C83.7546 50.371 84.8346 51.46 86.2836 51.46C86.9586 51.46 87.5076 51.217 87.9666 50.812C88.0476 50.74 88.1016 50.749 88.1556 50.803L88.4166 51.091C88.4976 51.172 88.4526 51.235 88.3896 51.298C87.8316 51.802 87.1386 52.117 86.2656 52.117ZM91.5244 52.108C90.0844 52.108 89.1934 51.064 89.1934 49.777C89.1934 48.481 90.0934 47.482 91.4074 47.482C92.7124 47.482 93.4684 48.49 93.4684 49.57C93.4684 49.894 93.4054 50.029 93.1444 50.029H89.8234C89.9134 50.902 90.5074 51.559 91.5784 51.559C92.1184 51.559 92.5054 51.397 92.8474 51.136C92.8924 51.1 92.9464 51.1 92.9824 51.145L93.1354 51.352C93.1984 51.433 93.1624 51.478 93.0994 51.541C92.7034 51.919 92.1364 52.108 91.5244 52.108ZM89.8234 49.525H92.8924C92.8564 48.652 92.2894 48.058 91.3984 48.058C90.5254 48.058 89.9134 48.625 89.8234 49.525ZM94.7297 52C94.6487 52 94.6127 51.955 94.6127 51.874V47.716C94.6127 47.635 94.6487 47.59 94.7297 47.59H95.1077C95.1977 47.59 95.2337 47.626 95.2337 47.725L95.2517 48.229C95.4227 47.815 95.7197 47.482 96.2687 47.482C96.4487 47.482 96.5927 47.518 96.6737 47.572C96.7277 47.608 96.7457 47.644 96.7457 47.725V48.04C96.7457 48.139 96.6827 48.157 96.5837 48.13C96.4667 48.094 96.3587 48.085 96.2687 48.085C95.4767 48.085 95.2607 48.787 95.2607 49.282V51.874C95.2607 51.955 95.2247 52 95.1437 52H94.7297ZM97.9114 52C97.8304 52 97.7944 51.955 97.7944 51.874V47.716C97.7944 47.635 97.8304 47.59 97.9114 47.59H98.2894C98.3794 47.59 98.4154 47.626 98.4154 47.725L98.4334 48.229C98.6044 47.815 98.9014 47.482 99.4504 47.482C99.6304 47.482 99.7744 47.518 99.8554 47.572C99.9094 47.608 99.9274 47.644 99.9274 47.725V48.04C99.9274 48.139 99.8644 48.157 99.7654 48.13C99.6484 48.094 99.5404 48.085 99.4504 48.085C98.6584 48.085 98.4424 48.787 98.4424 49.282V51.874C98.4424 51.955 98.4064 52 98.3254 52H97.9114ZM101.3 46.447C101.075 46.447 100.895 46.267 100.895 46.042C100.895 45.808 101.075 45.628 101.3 45.628C101.525 45.628 101.705 45.808 101.705 46.042C101.705 46.267 101.525 46.447 101.3 46.447ZM100.976 51.874V47.716C100.976 47.635 101.012 47.59 101.093 47.59H101.507C101.588 47.59 101.624 47.635 101.624 47.716V51.874C101.624 51.955 101.588 52 101.507 52H101.093C101.012 52 100.976 51.955 100.976 51.874ZM104.26 52.054C103.648 52.054 103.324 51.748 103.324 51.1V48.13H102.748C102.667 48.13 102.622 48.085 102.622 48.004V47.716C102.622 47.635 102.667 47.59 102.748 47.59H103.324V46.546C103.324 46.465 103.36 46.42 103.441 46.42H103.855C103.936 46.42 103.972 46.465 103.972 46.546V47.59H104.719C104.8 47.59 104.845 47.635 104.845 47.716V48.004C104.845 48.085 104.8 48.13 104.719 48.13H103.972V51.01C103.972 51.352 104.107 51.478 104.377 51.478C104.449 51.478 104.575 51.469 104.656 51.46C104.791 51.442 104.827 51.487 104.827 51.577V51.856C104.827 52.009 104.494 52.054 104.26 52.054ZM107.932 52.108C106.645 52.108 105.673 51.109 105.673 49.795C105.673 48.481 106.645 47.482 107.932 47.482C109.21 47.482 110.182 48.481 110.182 49.795C110.182 51.109 109.21 52.108 107.932 52.108ZM106.303 49.795C106.303 50.794 106.996 51.505 107.932 51.505C108.859 51.505 109.552 50.794 109.552 49.795C109.552 48.796 108.859 48.085 107.932 48.085C106.996 48.085 106.303 48.796 106.303 49.795ZM112.529 52.108C111.818 52.108 111.341 51.757 111.098 51.442C111.035 51.37 111.035 51.298 111.089 51.217L111.224 51.037C111.278 50.965 111.359 50.965 111.431 51.037C111.701 51.325 112.025 51.532 112.511 51.532C113.024 51.532 113.393 51.307 113.393 50.848C113.393 50.434 113.114 50.236 112.7 50.065L112.178 49.849C111.638 49.624 111.188 49.291 111.188 48.661C111.188 47.932 111.8 47.482 112.538 47.482C113.042 47.482 113.51 47.698 113.825 48.094C113.879 48.157 113.87 48.229 113.816 48.292L113.672 48.454C113.591 48.544 113.537 48.535 113.456 48.454C113.177 48.166 112.889 48.031 112.565 48.031C112.16 48.031 111.809 48.229 111.809 48.643C111.809 49.066 112.115 49.219 112.565 49.408L112.997 49.588C113.573 49.822 114.032 50.155 114.032 50.839C114.032 51.667 113.321 52.108 112.529 52.108Z" fill="white"/>
<path d="M127.756 34C127.675 34 127.621 33.946 127.621 33.865V27.835C127.621 27.754 127.675 27.7 127.756 27.7H128.773C128.854 27.7 128.908 27.754 128.908 27.835V33.865C128.908 33.946 128.854 34 128.773 34H127.756ZM130.206 34C130.125 34 130.071 33.946 130.071 33.865V27.7C130.071 27.619 130.125 27.565 130.206 27.565H131.187C131.268 27.565 131.322 27.619 131.322 27.7V33.865C131.322 33.946 131.268 34 131.187 34H130.206ZM133.984 34.108C133.057 34.108 132.391 33.442 132.391 32.29V29.725C132.391 29.644 132.445 29.59 132.526 29.59H133.498C133.579 29.59 133.633 29.644 133.633 29.725V32.011C133.633 32.632 133.921 32.965 134.452 32.965C134.974 32.965 135.316 32.632 135.316 32.011V29.725C135.316 29.644 135.37 29.59 135.451 29.59H136.414C136.495 29.59 136.558 29.644 136.558 29.725V33.865C136.558 33.946 136.495 34 136.414 34H135.487C135.406 34 135.361 33.964 135.352 33.856L135.316 33.334C135.064 33.784 134.641 34.108 133.984 34.108ZM139.124 34.108C138.386 34.108 137.828 33.793 137.477 33.379C137.423 33.316 137.432 33.217 137.495 33.118L137.81 32.677C137.882 32.569 137.963 32.587 138.035 32.641C138.404 32.92 138.71 33.073 139.052 33.073C139.349 33.073 139.547 32.956 139.547 32.704C139.547 32.488 139.412 32.389 139.088 32.254L138.53 32.029C137.963 31.804 137.567 31.426 137.567 30.814C137.567 29.968 138.287 29.482 139.106 29.482C139.682 29.482 140.213 29.716 140.582 30.157C140.636 30.22 140.618 30.292 140.573 30.346L140.177 30.823C140.114 30.895 140.051 30.886 139.97 30.823C139.682 30.58 139.43 30.454 139.169 30.454C138.881 30.454 138.746 30.616 138.746 30.805C138.746 31.021 138.926 31.138 139.169 31.228L139.79 31.471C140.348 31.696 140.789 32.083 140.78 32.758C140.771 33.649 140.006 34.108 139.124 34.108ZM143.243 34.054C142.541 34.054 141.911 33.73 141.911 32.767V30.553H141.353C141.272 30.553 141.218 30.499 141.218 30.418V29.725C141.218 29.644 141.272 29.59 141.353 29.59H141.911V28.555C141.911 28.474 141.965 28.42 142.046 28.42H143.027C143.108 28.42 143.162 28.474 143.162 28.555V29.59H143.855C143.936 29.59 143.99 29.644 143.99 29.725V30.418C143.99 30.499 143.936 30.553 143.855 30.553H143.162V32.632C143.162 32.893 143.315 33.019 143.549 33.019C143.63 33.019 143.72 33.019 143.828 33.01C143.927 33.001 143.99 33.046 143.99 33.136V33.793C143.99 34 143.54 34.054 143.243 34.054ZM144.919 34C144.838 34 144.784 33.946 144.784 33.865V29.725C144.784 29.644 144.838 29.59 144.919 29.59H145.855C145.936 29.59 145.981 29.626 145.99 29.734L146.026 30.301C146.179 29.833 146.458 29.482 146.98 29.482C147.187 29.482 147.313 29.536 147.385 29.59C147.448 29.635 147.466 29.689 147.466 29.77V30.562C147.466 30.67 147.403 30.697 147.286 30.67C147.187 30.643 147.088 30.625 146.962 30.625C146.35 30.625 146.026 31.03 146.026 31.66V33.865C146.026 33.946 145.972 34 145.891 34H144.919ZM150.013 34.108C148.771 34.108 147.916 33.109 147.916 31.795C147.916 30.49 148.771 29.482 150.013 29.482C150.679 29.482 151.156 29.752 151.453 30.211L151.471 29.725C151.471 29.644 151.525 29.59 151.606 29.59H152.488C152.569 29.59 152.623 29.644 152.623 29.725V33.865C152.623 33.946 152.56 34 152.479 34H151.606C151.525 34 151.471 33.946 151.471 33.865L151.453 33.379C151.147 33.829 150.67 34.108 150.013 34.108ZM149.131 31.795C149.131 32.506 149.617 32.974 150.274 32.974C150.931 32.974 151.39 32.506 151.39 31.795C151.39 31.084 150.931 30.616 150.274 30.616C149.617 30.616 149.131 31.093 149.131 31.795ZM155.568 34.108C154.326 34.108 153.471 33.109 153.471 31.795C153.471 30.49 154.326 29.482 155.568 29.482C156.18 29.482 156.63 29.707 156.927 30.103V27.7C156.927 27.619 156.981 27.565 157.062 27.565H158.043C158.124 27.565 158.178 27.619 158.178 27.7V33.865C158.178 33.946 158.115 34 158.034 34H157.161C157.08 34 157.026 33.946 157.026 33.865L157.008 33.379C156.702 33.829 156.225 34.108 155.568 34.108ZM154.686 31.795C154.686 32.506 155.172 32.974 155.829 32.974C156.486 32.974 156.945 32.506 156.945 31.795C156.945 31.084 156.486 30.616 155.829 30.616C155.172 30.616 154.686 31.093 154.686 31.795ZM161.339 34.108C160.007 34.108 159.026 33.1 159.026 31.795C159.026 30.49 160.007 29.482 161.339 29.482C162.662 29.482 163.643 30.49 163.643 31.795C163.643 33.1 162.662 34.108 161.339 34.108ZM160.223 31.795C160.223 32.515 160.709 32.965 161.339 32.965C161.96 32.965 162.446 32.515 162.446 31.795C162.446 31.075 161.96 30.625 161.339 30.625C160.709 30.625 160.223 31.075 160.223 31.795ZM164.615 34C164.534 34 164.48 33.946 164.48 33.865V29.725C164.48 29.644 164.534 29.59 164.615 29.59H165.551C165.632 29.59 165.677 29.626 165.686 29.734L165.722 30.301C165.875 29.833 166.154 29.482 166.676 29.482C166.883 29.482 167.009 29.536 167.081 29.59C167.144 29.635 167.162 29.689 167.162 29.77V30.562C167.162 30.67 167.099 30.697 166.982 30.67C166.883 30.643 166.784 30.625 166.658 30.625C166.046 30.625 165.722 31.03 165.722 31.66V33.865C165.722 33.946 165.668 34 165.587 34H164.615ZM169.71 34.108C168.468 34.108 167.613 33.109 167.613 31.795C167.613 30.49 168.468 29.482 169.71 29.482C170.376 29.482 170.853 29.752 171.15 30.211L171.168 29.725C171.168 29.644 171.222 29.59 171.303 29.59H172.185C172.266 29.59 172.32 29.644 172.32 29.725V33.865C172.32 33.946 172.257 34 172.176 34H171.303C171.222 34 171.168 33.946 171.168 33.865L171.15 33.379C170.844 33.829 170.367 34.108 169.71 34.108ZM168.828 31.795C168.828 32.506 169.314 32.974 169.971 32.974C170.628 32.974 171.087 32.506 171.087 31.795C171.087 31.084 170.628 30.616 169.971 30.616C169.314 30.616 168.828 31.093 168.828 31.795ZM175.563 34C175.482 34 175.437 33.955 175.437 33.874V27.826C175.437 27.745 175.482 27.7 175.563 27.7H178.497C178.578 27.7 178.623 27.745 178.623 27.826V28.177C178.623 28.258 178.578 28.303 178.497 28.303H176.112V30.391H178.38C178.461 30.391 178.506 30.436 178.506 30.517V30.868C178.506 30.949 178.461 30.994 178.38 30.994H176.112V33.874C176.112 33.955 176.067 34 175.986 34H175.563ZM181.607 34.108C180.32 34.108 179.438 33.118 179.438 31.795C179.438 30.481 180.32 29.482 181.607 29.482C182.399 29.482 182.975 29.869 183.299 30.454L183.317 29.716C183.317 29.635 183.353 29.59 183.434 29.59H183.821C183.902 29.59 183.938 29.635 183.938 29.716V33.874C183.938 33.955 183.902 34 183.821 34H183.434C183.353 34 183.317 33.955 183.317 33.874L183.299 33.154C182.975 33.748 182.399 34.108 181.607 34.108ZM180.068 31.795C180.068 32.821 180.752 33.505 181.697 33.505C182.642 33.505 183.299 32.83 183.299 31.813C183.299 30.787 182.642 30.085 181.697 30.085C180.752 30.085 180.068 30.778 180.068 31.795ZM181.535 28.843L182.057 27.808C182.093 27.727 182.138 27.7 182.21 27.7H182.561C182.66 27.7 182.687 27.763 182.642 27.844L182.111 28.879C182.066 28.96 182.03 28.987 181.958 28.987H181.616C181.517 28.987 181.49 28.924 181.535 28.843ZM186.664 34.054C186.052 34.054 185.728 33.748 185.728 33.1V30.13H185.152C185.071 30.13 185.026 30.085 185.026 30.004V29.716C185.026 29.635 185.071 29.59 185.152 29.59H185.728V28.546C185.728 28.465 185.764 28.42 185.845 28.42H186.259C186.34 28.42 186.376 28.465 186.376 28.546V29.59H187.123C187.204 29.59 187.249 29.635 187.249 29.716V30.004C187.249 30.085 187.204 30.13 187.123 30.13H186.376V33.01C186.376 33.352 186.511 33.478 186.781 33.478C186.853 33.478 186.979 33.469 187.06 33.46C187.195 33.442 187.231 33.487 187.231 33.577V33.856C187.231 34.009 186.898 34.054 186.664 34.054ZM188.67 28.447C188.445 28.447 188.265 28.267 188.265 28.042C188.265 27.808 188.445 27.628 188.67 27.628C188.895 27.628 189.075 27.808 189.075 28.042C189.075 28.267 188.895 28.447 188.67 28.447ZM188.346 33.874V29.716C188.346 29.635 188.382 29.59 188.463 29.59H188.877C188.958 29.59 188.994 29.635 188.994 29.716V33.874C188.994 33.955 188.958 34 188.877 34H188.463C188.382 34 188.346 33.955 188.346 33.874ZM190.467 34C190.386 34 190.35 33.955 190.35 33.874V29.716C190.35 29.635 190.386 29.59 190.467 29.59H190.845C190.935 29.59 190.971 29.626 190.971 29.725L190.989 30.229C191.205 29.815 191.592 29.482 192.24 29.482C192.852 29.482 193.311 29.77 193.536 30.346C193.761 29.869 194.175 29.482 194.922 29.482C195.831 29.482 196.38 30.076 196.38 31.237V33.874C196.38 33.955 196.344 34 196.263 34H195.849C195.768 34 195.732 33.955 195.732 33.874V31.309C195.732 30.535 195.417 30.085 194.778 30.085C194.13 30.085 193.689 30.544 193.689 31.309V33.874C193.689 33.955 193.653 34 193.572 34H193.158C193.077 34 193.041 33.955 193.041 33.874V31.309C193.041 30.535 192.681 30.085 192.042 30.085C191.385 30.085 190.998 30.544 190.998 31.309V33.874C190.998 33.955 190.962 34 190.881 34H190.467ZM199.694 34.108C198.407 34.108 197.525 33.118 197.525 31.795C197.525 30.481 198.407 29.482 199.694 29.482C200.486 29.482 201.062 29.869 201.386 30.454L201.404 29.716C201.404 29.635 201.44 29.59 201.521 29.59H201.908C201.989 29.59 202.025 29.635 202.025 29.716V33.874C202.025 33.955 201.989 34 201.908 34H201.521C201.44 34 201.404 33.955 201.404 33.874L201.386 33.154C201.062 33.748 200.486 34.108 199.694 34.108ZM198.155 31.795C198.155 32.821 198.839 33.505 199.784 33.505C200.729 33.505 201.386 32.83 201.386 31.813C201.386 30.787 200.729 30.085 199.784 30.085C198.839 30.085 198.155 30.778 198.155 31.795ZM205.402 34C205.321 34 205.276 33.955 205.276 33.874V27.826C205.276 27.745 205.321 27.7 205.402 27.7H205.825C205.906 27.7 205.951 27.745 205.951 27.826V33.397H208.237C208.318 33.397 208.372 33.451 208.372 33.532V33.865C208.372 33.946 208.318 34 208.237 34H205.402ZM211.36 34.108C210.073 34.108 209.101 33.109 209.101 31.795C209.101 30.481 210.073 29.482 211.36 29.482C212.638 29.482 213.61 30.481 213.61 31.795C213.61 33.109 212.638 34.108 211.36 34.108ZM209.731 31.795C209.731 32.794 210.424 33.505 211.36 33.505C212.287 33.505 212.98 32.794 212.98 31.795C212.98 30.796 212.287 30.085 211.36 30.085C210.424 30.085 209.731 30.796 209.731 31.795ZM211.117 28.843L211.639 27.808C211.675 27.727 211.72 27.7 211.792 27.7H212.143C212.242 27.7 212.269 27.763 212.224 27.844L211.693 28.879C211.648 28.96 211.612 28.987 211.54 28.987H211.198C211.099 28.987 211.072 28.924 211.117 28.843ZM214.865 35.71C214.784 35.71 214.748 35.665 214.748 35.584V29.716C214.748 29.635 214.784 29.59 214.865 29.59H215.243C215.324 29.59 215.36 29.635 215.36 29.716L215.378 30.454C215.702 29.869 216.287 29.482 217.07 29.482C218.366 29.482 219.248 30.481 219.248 31.795C219.248 33.118 218.366 34.108 217.07 34.108C216.296 34.108 215.72 33.748 215.396 33.181V35.584C215.396 35.665 215.36 35.71 215.279 35.71H214.865ZM215.387 31.813C215.387 32.83 216.044 33.505 216.98 33.505C217.934 33.505 218.618 32.821 218.618 31.795C218.618 30.778 217.934 30.085 216.98 30.085C216.044 30.085 215.387 30.787 215.387 31.813ZM222.488 34.108C221.048 34.108 220.157 33.064 220.157 31.777C220.157 30.481 221.057 29.482 222.371 29.482C223.676 29.482 224.432 30.49 224.432 31.57C224.432 31.894 224.369 32.029 224.108 32.029H220.787C220.877 32.902 221.471 33.559 222.542 33.559C223.082 33.559 223.469 33.397 223.811 33.136C223.856 33.1 223.91 33.1 223.946 33.145L224.099 33.352C224.162 33.433 224.126 33.478 224.063 33.541C223.667 33.919 223.1 34.108 222.488 34.108ZM220.787 31.525H223.856C223.82 30.652 223.253 30.058 222.362 30.058C221.489 30.058 220.877 30.625 220.787 31.525ZM225.435 34C225.354 34 225.309 33.955 225.309 33.874V33.532C225.309 33.469 225.336 33.415 225.372 33.37L227.892 30.148H225.462C225.381 30.148 225.336 30.103 225.336 30.022V29.716C225.336 29.635 225.381 29.59 225.462 29.59H228.486C228.567 29.59 228.621 29.635 228.621 29.716V30.058C228.621 30.121 228.594 30.175 228.558 30.22L226.029 33.442H228.504C228.585 33.442 228.63 33.487 228.63 33.568V33.874C228.63 33.955 228.585 34 228.504 34H225.435ZM127.756 43C127.675 43 127.621 42.946 127.621 42.865V36.835C127.621 36.754 127.675 36.7 127.756 36.7H129.61C131.716 36.7 132.823 38.077 132.823 39.85C132.823 41.623 131.716 43 129.61 43H127.756ZM128.908 41.857H129.592C130.87 41.857 131.518 41.146 131.518 39.85C131.518 38.554 130.87 37.843 129.592 37.843H128.908V41.857ZM134.393 37.807C133.997 37.807 133.7 37.501 133.7 37.114C133.7 36.736 133.997 36.43 134.393 36.43C134.789 36.43 135.077 36.736 135.077 37.114C135.077 37.501 134.789 37.807 134.393 37.807ZM133.763 42.865V38.725C133.763 38.644 133.817 38.59 133.898 38.59H134.879C134.96 38.59 135.014 38.644 135.014 38.725V42.865C135.014 42.946 134.96 43 134.879 43H133.898C133.817 43 133.763 42.946 133.763 42.865ZM137.595 43.108C136.857 43.108 136.299 42.793 135.948 42.379C135.894 42.316 135.903 42.217 135.966 42.118L136.281 41.677C136.353 41.569 136.434 41.587 136.506 41.641C136.875 41.92 137.181 42.073 137.523 42.073C137.82 42.073 138.018 41.956 138.018 41.704C138.018 41.488 137.883 41.389 137.559 41.254L137.001 41.029C136.434 40.804 136.038 40.426 136.038 39.814C136.038 38.968 136.758 38.482 137.577 38.482C138.153 38.482 138.684 38.716 139.053 39.157C139.107 39.22 139.089 39.292 139.044 39.346L138.648 39.823C138.585 39.895 138.522 39.886 138.441 39.823C138.153 39.58 137.901 39.454 137.64 39.454C137.352 39.454 137.217 39.616 137.217 39.805C137.217 40.021 137.397 40.138 137.64 40.228L138.261 40.471C138.819 40.696 139.26 41.083 139.251 41.758C139.242 42.649 138.477 43.108 137.595 43.108ZM142.287 43.108C140.838 43.108 139.866 42.109 139.866 40.777C139.866 39.481 140.775 38.482 142.134 38.482C143.475 38.482 144.249 39.472 144.249 40.588C144.249 41.02 144.15 41.263 143.763 41.263H141.081C141.216 41.821 141.675 42.127 142.386 42.127C142.728 42.127 143.052 42.064 143.412 41.857C143.475 41.821 143.52 41.83 143.565 41.893L143.898 42.352C143.943 42.415 143.934 42.478 143.853 42.55C143.475 42.928 142.908 43.108 142.287 43.108ZM141.063 40.39H143.142C143.07 39.805 142.674 39.508 142.143 39.508C141.594 39.508 141.171 39.805 141.063 40.39ZM145.218 43C145.137 43 145.083 42.946 145.083 42.865V38.725C145.083 38.644 145.137 38.59 145.218 38.59H146.154C146.235 38.59 146.289 38.626 146.289 38.734L146.325 39.256C146.577 38.806 147 38.482 147.657 38.482C148.575 38.482 149.25 39.148 149.25 40.3V42.865C149.25 42.946 149.187 43 149.106 43H148.143C148.062 43 148.008 42.946 148.008 42.865V40.579C148.008 39.958 147.72 39.625 147.189 39.625C146.667 39.625 146.325 39.958 146.325 40.579V42.865C146.325 42.946 146.271 43 146.19 43H145.218ZM145.578 37.42C145.596 36.799 146.037 36.511 146.514 36.511C147.207 36.511 147.342 37.114 147.774 37.114C147.999 37.114 148.098 37.006 148.125 36.871C148.134 36.826 148.17 36.799 148.224 36.799H148.719C148.773 36.799 148.809 36.835 148.809 36.889C148.791 37.537 148.35 37.825 147.873 37.825C147.171 37.825 147.045 37.222 146.613 37.222C146.388 37.222 146.289 37.33 146.262 37.465C146.253 37.51 146.217 37.537 146.163 37.537H145.668C145.614 37.537 145.578 37.492 145.578 37.42ZM152.184 43.108C150.942 43.108 150.087 42.109 150.087 40.795C150.087 39.49 150.942 38.482 152.184 38.482C152.85 38.482 153.327 38.752 153.624 39.211L153.642 38.725C153.642 38.644 153.696 38.59 153.777 38.59H154.659C154.74 38.59 154.794 38.644 154.794 38.725V42.865C154.794 42.946 154.731 43 154.65 43H153.777C153.696 43 153.642 42.946 153.642 42.865L153.624 42.379C153.318 42.829 152.841 43.108 152.184 43.108ZM151.302 40.795C151.302 41.506 151.788 41.974 152.445 41.974C153.102 41.974 153.561 41.506 153.561 40.795C153.561 40.084 153.102 39.616 152.445 39.616C151.788 39.616 151.302 40.093 151.302 40.795ZM157.739 43.108C156.497 43.108 155.642 42.109 155.642 40.795C155.642 39.49 156.497 38.482 157.739 38.482C158.351 38.482 158.801 38.707 159.098 39.103V36.7C159.098 36.619 159.152 36.565 159.233 36.565H160.214C160.295 36.565 160.349 36.619 160.349 36.7V42.865C160.349 42.946 160.286 43 160.205 43H159.332C159.251 43 159.197 42.946 159.197 42.865L159.179 42.379C158.873 42.829 158.396 43.108 157.739 43.108ZM156.857 40.795C156.857 41.506 157.343 41.974 158 41.974C158.657 41.974 159.116 41.506 159.116 40.795C159.116 40.084 158.657 39.616 158 39.616C157.343 39.616 156.857 40.093 156.857 40.795ZM163.51 43.108C162.178 43.108 161.197 42.1 161.197 40.795C161.197 39.49 162.178 38.482 163.51 38.482C164.833 38.482 165.814 39.49 165.814 40.795C165.814 42.1 164.833 43.108 163.51 43.108ZM162.394 40.795C162.394 41.515 162.88 41.965 163.51 41.965C164.131 41.965 164.617 41.515 164.617 40.795C164.617 40.075 164.131 39.625 163.51 39.625C162.88 39.625 162.394 40.075 162.394 40.795ZM166.786 43C166.705 43 166.651 42.946 166.651 42.865V38.725C166.651 38.644 166.705 38.59 166.786 38.59H167.722C167.803 38.59 167.848 38.626 167.857 38.734L167.893 39.301C168.046 38.833 168.325 38.482 168.847 38.482C169.054 38.482 169.18 38.536 169.252 38.59C169.315 38.635 169.333 38.689 169.333 38.77V39.562C169.333 39.67 169.27 39.697 169.153 39.67C169.054 39.643 168.955 39.625 168.829 39.625C168.217 39.625 167.893 40.03 167.893 40.66V42.865C167.893 42.946 167.839 43 167.758 43H166.786ZM171.881 43.108C170.639 43.108 169.784 42.109 169.784 40.795C169.784 39.49 170.639 38.482 171.881 38.482C172.547 38.482 173.024 38.752 173.321 39.211L173.339 38.725C173.339 38.644 173.393 38.59 173.474 38.59H174.356C174.437 38.59 174.491 38.644 174.491 38.725V42.865C174.491 42.946 174.428 43 174.347 43H173.474C173.393 43 173.339 42.946 173.339 42.865L173.321 42.379C173.015 42.829 172.538 43.108 171.881 43.108ZM170.999 40.795C170.999 41.506 171.485 41.974 172.142 41.974C172.799 41.974 173.258 41.506 173.258 40.795C173.258 40.084 172.799 39.616 172.142 39.616C171.485 39.616 170.999 40.093 170.999 40.795ZM177.41 43C177.311 43 177.275 42.937 177.311 42.847L179.489 36.808C179.516 36.736 179.579 36.7 179.651 36.7H180.146C180.218 36.7 180.281 36.736 180.308 36.808L182.495 42.847C182.531 42.937 182.495 43 182.396 43H181.946C181.874 43 181.829 42.973 181.802 42.892L181.343 41.587H178.463L178.004 42.892C177.977 42.973 177.932 43 177.851 43H177.41ZM178.679 40.984H181.127L179.903 37.51L178.679 40.984ZM185.228 43.108C183.941 43.108 183.059 42.118 183.059 40.795C183.059 39.481 183.941 38.482 185.228 38.482C186.002 38.482 186.587 38.851 186.911 39.427V36.691C186.911 36.61 186.947 36.565 187.028 36.565H187.442C187.523 36.565 187.559 36.61 187.559 36.691V42.874C187.559 42.955 187.523 43 187.442 43H187.055C186.974 43 186.938 42.955 186.938 42.874L186.92 42.154C186.596 42.748 186.02 43.108 185.228 43.108ZM183.689 40.795C183.689 41.821 184.373 42.505 185.318 42.505C186.263 42.505 186.92 41.83 186.92 40.813C186.92 39.787 186.263 39.085 185.318 39.085C184.373 39.085 183.689 39.778 183.689 40.795ZM189.034 43C188.953 43 188.917 42.955 188.917 42.874V38.716C188.917 38.635 188.953 38.59 189.034 38.59H189.412C189.502 38.59 189.538 38.626 189.538 38.725L189.556 39.229C189.727 38.815 190.024 38.482 190.573 38.482C190.753 38.482 190.897 38.518 190.978 38.572C191.032 38.608 191.05 38.644 191.05 38.725V39.04C191.05 39.139 190.987 39.157 190.888 39.13C190.771 39.094 190.663 39.085 190.573 39.085C189.781 39.085 189.565 39.787 189.565 40.282V42.874C189.565 42.955 189.529 43 189.448 43H189.034ZM192.423 37.447C192.198 37.447 192.018 37.267 192.018 37.042C192.018 36.808 192.198 36.628 192.423 36.628C192.648 36.628 192.828 36.808 192.828 37.042C192.828 37.267 192.648 37.447 192.423 37.447ZM192.099 42.874V38.716C192.099 38.635 192.135 38.59 192.216 38.59H192.63C192.711 38.59 192.747 38.635 192.747 38.716V42.874C192.747 42.955 192.711 43 192.63 43H192.216C192.135 43 192.099 42.955 192.099 42.874ZM196.047 43.108C194.76 43.108 193.878 42.118 193.878 40.795C193.878 39.481 194.76 38.482 196.047 38.482C196.839 38.482 197.415 38.869 197.739 39.454L197.757 38.716C197.757 38.635 197.793 38.59 197.874 38.59H198.261C198.342 38.59 198.378 38.635 198.378 38.716V42.874C198.378 42.955 198.342 43 198.261 43H197.874C197.793 43 197.757 42.955 197.757 42.874L197.739 42.154C197.415 42.748 196.839 43.108 196.047 43.108ZM194.508 40.795C194.508 41.821 195.192 42.505 196.137 42.505C197.082 42.505 197.739 41.83 197.739 40.813C197.739 39.787 197.082 39.085 196.137 39.085C195.192 39.085 194.508 39.778 194.508 40.795ZM199.854 43C199.773 43 199.737 42.955 199.737 42.874V38.716C199.737 38.635 199.773 38.59 199.854 38.59H200.232C200.322 38.59 200.358 38.626 200.358 38.725L200.385 39.292C200.637 38.842 201.114 38.482 201.843 38.482C202.806 38.482 203.454 39.112 203.454 40.282V42.874C203.454 42.955 203.418 43 203.337 43H202.914C202.833 43 202.806 42.955 202.806 42.874V40.345C202.806 39.562 202.392 39.085 201.663 39.085C200.934 39.085 200.385 39.562 200.385 40.345V42.874C200.385 42.955 200.349 43 200.268 43H199.854ZM206.761 43.108C205.474 43.108 204.592 42.118 204.592 40.795C204.592 39.481 205.474 38.482 206.761 38.482C207.553 38.482 208.129 38.869 208.453 39.454L208.471 38.716C208.471 38.635 208.507 38.59 208.588 38.59H208.975C209.056 38.59 209.092 38.635 209.092 38.716V42.874C209.092 42.955 209.056 43 208.975 43H208.588C208.507 43 208.471 42.955 208.471 42.874L208.453 42.154C208.129 42.748 207.553 43.108 206.761 43.108ZM205.222 40.795C205.222 41.821 205.906 42.505 206.851 42.505C207.796 42.505 208.453 41.83 208.453 40.813C208.453 39.787 207.796 39.085 206.851 39.085C205.906 39.085 205.222 39.778 205.222 40.795ZM214.385 43C214.313 43 214.25 42.964 214.223 42.892L212.045 36.853C212.009 36.763 212.045 36.7 212.144 36.7H212.585C212.666 36.7 212.711 36.727 212.738 36.808L214.637 42.199L216.536 36.808C216.563 36.727 216.608 36.7 216.68 36.7H217.13C217.229 36.7 217.265 36.763 217.229 36.853L215.042 42.892C215.015 42.964 214.952 43 214.88 43H214.385ZM219.514 43.108C218.227 43.108 217.345 42.118 217.345 40.795C217.345 39.481 218.227 38.482 219.514 38.482C220.306 38.482 220.882 38.869 221.206 39.454L221.224 38.716C221.224 38.635 221.26 38.59 221.341 38.59H221.728C221.809 38.59 221.845 38.635 221.845 38.716V42.874C221.845 42.955 221.809 43 221.728 43H221.341C221.26 43 221.224 42.955 221.224 42.874L221.206 42.154C220.882 42.748 220.306 43.108 219.514 43.108ZM217.975 40.795C217.975 41.821 218.659 42.505 219.604 42.505C220.549 42.505 221.206 41.83 221.206 40.813C221.206 39.787 220.549 39.085 219.604 39.085C218.659 39.085 217.975 39.778 217.975 40.795ZM223.15 43C223.069 43 223.024 42.955 223.024 42.874V42.532C223.024 42.469 223.051 42.415 223.087 42.37L225.607 39.148H223.177C223.096 39.148 223.051 39.103 223.051 39.022V38.716C223.051 38.635 223.096 38.59 223.177 38.59H226.201C226.282 38.59 226.336 38.635 226.336 38.716V39.058C226.336 39.121 226.309 39.175 226.273 39.22L223.744 42.442H226.219C226.3 42.442 226.345 42.487 226.345 42.568V42.874C226.345 42.955 226.3 43 226.219 43H223.15ZM231.008 44.71C230.927 44.71 230.891 44.665 230.891 44.584V42.181C230.567 42.748 229.982 43.108 229.208 43.108C227.921 43.108 227.039 42.118 227.039 40.795C227.039 39.481 227.921 38.482 229.208 38.482C230 38.482 230.576 38.869 230.9 39.454L230.918 38.716C230.918 38.635 230.954 38.59 231.035 38.59H231.422C231.503 38.59 231.539 38.635 231.539 38.716V44.584C231.539 44.665 231.503 44.71 231.422 44.71H231.008ZM227.669 40.795C227.669 41.821 228.353 42.505 229.298 42.505C230.243 42.505 230.9 41.83 230.9 40.813C230.9 39.787 230.243 39.085 229.298 39.085C228.353 39.085 227.669 39.778 227.669 40.795ZM234.5 43.108C233.546 43.108 232.898 42.478 232.898 41.308V38.716C232.898 38.635 232.934 38.59 233.015 38.59H233.429C233.51 38.59 233.546 38.635 233.546 38.716V41.245C233.546 42.028 233.951 42.505 234.68 42.505C235.409 42.505 235.967 42.028 235.967 41.245V38.716C235.967 38.635 235.994 38.59 236.075 38.59H236.498C236.579 38.59 236.615 38.635 236.615 38.716V42.874C236.615 42.955 236.579 43 236.498 43H236.111C236.021 43 235.994 42.964 235.985 42.865L235.967 42.298C235.715 42.748 235.229 43.108 234.5 43.108ZM240.084 43.108C238.644 43.108 237.753 42.064 237.753 40.777C237.753 39.481 238.653 38.482 239.967 38.482C241.272 38.482 242.028 39.49 242.028 40.57C242.028 40.894 241.965 41.029 241.704 41.029H238.383C238.473 41.902 239.067 42.559 240.138 42.559C240.678 42.559 241.065 42.397 241.407 42.136C241.452 42.1 241.506 42.1 241.542 42.145L241.695 42.352C241.758 42.433 241.722 42.478 241.659 42.541C241.263 42.919 240.696 43.108 240.084 43.108ZM238.383 40.525H241.452C241.416 39.652 240.849 39.058 239.958 39.058C239.085 39.058 238.473 39.625 238.383 40.525ZM243.03 43C242.949 43 242.904 42.955 242.904 42.874V42.532C242.904 42.469 242.931 42.415 242.967 42.37L245.487 39.148H243.057C242.976 39.148 242.931 39.103 242.931 39.022V38.716C242.931 38.635 242.976 38.59 243.057 38.59H246.081C246.162 38.59 246.216 38.635 246.216 38.716V39.058C246.216 39.121 246.189 39.175 246.153 39.22L243.624 42.442H246.099C246.18 42.442 246.225 42.487 246.225 42.568V42.874C246.225 42.955 246.18 43 246.099 43H243.03ZM127.756 52C127.675 52 127.621 51.946 127.621 51.865V45.835C127.621 45.754 127.675 45.7 127.756 45.7H128.773C128.854 45.7 128.908 45.754 128.908 45.835V51.865C128.908 51.946 128.854 52 128.773 52H127.756ZM130.206 52C130.125 52 130.071 51.946 130.071 51.865V45.7C130.071 45.619 130.125 45.565 130.206 45.565H131.187C131.268 45.565 131.322 45.619 131.322 45.7V51.865C131.322 51.946 131.268 52 131.187 52H130.206ZM133.984 52.108C133.057 52.108 132.391 51.442 132.391 50.29V47.725C132.391 47.644 132.445 47.59 132.526 47.59H133.498C133.579 47.59 133.633 47.644 133.633 47.725V50.011C133.633 50.632 133.921 50.965 134.452 50.965C134.974 50.965 135.316 50.632 135.316 50.011V47.725C135.316 47.644 135.37 47.59 135.451 47.59H136.414C136.495 47.59 136.558 47.644 136.558 47.725V51.865C136.558 51.946 136.495 52 136.414 52H135.487C135.406 52 135.361 51.964 135.352 51.856L135.316 51.334C135.064 51.784 134.641 52.108 133.984 52.108ZM139.124 52.108C138.386 52.108 137.828 51.793 137.477 51.379C137.423 51.316 137.432 51.217 137.495 51.118L137.81 50.677C137.882 50.569 137.963 50.587 138.035 50.641C138.404 50.92 138.71 51.073 139.052 51.073C139.349 51.073 139.547 50.956 139.547 50.704C139.547 50.488 139.412 50.389 139.088 50.254L138.53 50.029C137.963 49.804 137.567 49.426 137.567 48.814C137.567 47.968 138.287 47.482 139.106 47.482C139.682 47.482 140.213 47.716 140.582 48.157C140.636 48.22 140.618 48.292 140.573 48.346L140.177 48.823C140.114 48.895 140.051 48.886 139.97 48.823C139.682 48.58 139.43 48.454 139.169 48.454C138.881 48.454 138.746 48.616 138.746 48.805C138.746 49.021 138.926 49.138 139.169 49.228L139.79 49.471C140.348 49.696 140.789 50.083 140.78 50.758C140.771 51.649 140.006 52.108 139.124 52.108ZM143.243 52.054C142.541 52.054 141.911 51.73 141.911 50.767V48.553H141.353C141.272 48.553 141.218 48.499 141.218 48.418V47.725C141.218 47.644 141.272 47.59 141.353 47.59H141.911V46.555C141.911 46.474 141.965 46.42 142.046 46.42H143.027C143.108 46.42 143.162 46.474 143.162 46.555V47.59H143.855C143.936 47.59 143.99 47.644 143.99 47.725V48.418C143.99 48.499 143.936 48.553 143.855 48.553H143.162V50.632C143.162 50.893 143.315 51.019 143.549 51.019C143.63 51.019 143.72 51.019 143.828 51.01C143.927 51.001 143.99 51.046 143.99 51.136V51.793C143.99 52 143.54 52.054 143.243 52.054ZM144.919 52C144.838 52 144.784 51.946 144.784 51.865V47.725C144.784 47.644 144.838 47.59 144.919 47.59H145.855C145.936 47.59 145.981 47.626 145.99 47.734L146.026 48.301C146.179 47.833 146.458 47.482 146.98 47.482C147.187 47.482 147.313 47.536 147.385 47.59C147.448 47.635 147.466 47.689 147.466 47.77V48.562C147.466 48.67 147.403 48.697 147.286 48.67C147.187 48.643 147.088 48.625 146.962 48.625C146.35 48.625 146.026 49.03 146.026 49.66V51.865C146.026 51.946 145.972 52 145.891 52H144.919ZM150.013 52.108C148.771 52.108 147.916 51.109 147.916 49.795C147.916 48.49 148.771 47.482 150.013 47.482C150.679 47.482 151.156 47.752 151.453 48.211L151.471 47.725C151.471 47.644 151.525 47.59 151.606 47.59H152.488C152.569 47.59 152.623 47.644 152.623 47.725V51.865C152.623 51.946 152.56 52 152.479 52H151.606C151.525 52 151.471 51.946 151.471 51.865L151.453 51.379C151.147 51.829 150.67 52.108 150.013 52.108ZM149.131 49.795C149.131 50.506 149.617 50.974 150.274 50.974C150.931 50.974 151.39 50.506 151.39 49.795C151.39 49.084 150.931 48.616 150.274 48.616C149.617 48.616 149.131 49.093 149.131 49.795ZM155.568 52.108C154.326 52.108 153.471 51.109 153.471 49.795C153.471 48.49 154.326 47.482 155.568 47.482C156.18 47.482 156.63 47.707 156.927 48.103V45.7C156.927 45.619 156.981 45.565 157.062 45.565H158.043C158.124 45.565 158.178 45.619 158.178 45.7V51.865C158.178 51.946 158.115 52 158.034 52H157.161C157.08 52 157.026 51.946 157.026 51.865L157.008 51.379C156.702 51.829 156.225 52.108 155.568 52.108ZM154.686 49.795C154.686 50.506 155.172 50.974 155.829 50.974C156.486 50.974 156.945 50.506 156.945 49.795C156.945 49.084 156.486 48.616 155.829 48.616C155.172 48.616 154.686 49.093 154.686 49.795ZM161.339 52.108C160.007 52.108 159.026 51.1 159.026 49.795C159.026 48.49 160.007 47.482 161.339 47.482C162.662 47.482 163.643 48.49 163.643 49.795C163.643 51.1 162.662 52.108 161.339 52.108ZM160.223 49.795C160.223 50.515 160.709 50.965 161.339 50.965C161.96 50.965 162.446 50.515 162.446 49.795C162.446 49.075 161.96 48.625 161.339 48.625C160.709 48.625 160.223 49.075 160.223 49.795ZM164.615 52C164.534 52 164.48 51.946 164.48 51.865V47.725C164.48 47.644 164.534 47.59 164.615 47.59H165.551C165.632 47.59 165.677 47.626 165.686 47.734L165.722 48.301C165.875 47.833 166.154 47.482 166.676 47.482C166.883 47.482 167.009 47.536 167.081 47.59C167.144 47.635 167.162 47.689 167.162 47.77V48.562C167.162 48.67 167.099 48.697 166.982 48.67C166.883 48.643 166.784 48.625 166.658 48.625C166.046 48.625 165.722 49.03 165.722 49.66V51.865C165.722 51.946 165.668 52 165.587 52H164.615ZM169.71 52.108C168.468 52.108 167.613 51.109 167.613 49.795C167.613 48.49 168.468 47.482 169.71 47.482C170.376 47.482 170.853 47.752 171.15 48.211L171.168 47.725C171.168 47.644 171.222 47.59 171.303 47.59H172.185C172.266 47.59 172.32 47.644 172.32 47.725V51.865C172.32 51.946 172.257 52 172.176 52H171.303C171.222 52 171.168 51.946 171.168 51.865L171.15 51.379C170.844 51.829 170.367 52.108 169.71 52.108ZM168.828 49.795C168.828 50.506 169.314 50.974 169.971 50.974C170.628 50.974 171.087 50.506 171.087 49.795C171.087 49.084 170.628 48.616 169.971 48.616C169.314 48.616 168.828 49.093 168.828 49.795ZM175.563 52C175.482 52 175.437 51.955 175.437 51.874V45.826C175.437 45.745 175.482 45.7 175.563 45.7H178.578C178.659 45.7 178.704 45.745 178.704 45.826V46.177C178.704 46.258 178.659 46.303 178.578 46.303H176.112V48.445H178.452C178.533 48.445 178.578 48.49 178.578 48.571V48.922C178.578 49.003 178.533 49.048 178.452 49.048H176.112V51.397H178.587C178.668 51.397 178.713 51.442 178.713 51.523V51.874C178.713 51.955 178.668 52 178.587 52H175.563ZM181.369 52C181.297 52 181.234 51.964 181.207 51.892L179.56 47.743C179.524 47.644 179.56 47.59 179.659 47.59H180.073C180.145 47.59 180.19 47.626 180.217 47.698L181.576 51.28L182.944 47.698C182.971 47.626 183.016 47.59 183.088 47.59H183.502C183.601 47.59 183.637 47.644 183.601 47.743L181.954 51.892C181.927 51.964 181.864 52 181.792 52H181.369ZM186.344 52.108C185.057 52.108 184.175 51.118 184.175 49.795C184.175 48.481 185.057 47.482 186.344 47.482C187.136 47.482 187.712 47.869 188.036 48.454L188.054 47.716C188.054 47.635 188.09 47.59 188.171 47.59H188.558C188.639 47.59 188.675 47.635 188.675 47.716V51.874C188.675 51.955 188.639 52 188.558 52H188.171C188.09 52 188.054 51.955 188.054 51.874L188.036 51.154C187.712 51.748 187.136 52.108 186.344 52.108ZM184.805 49.795C184.805 50.821 185.489 51.505 186.434 51.505C187.379 51.505 188.036 50.83 188.036 49.813C188.036 48.787 187.379 48.085 186.434 48.085C185.489 48.085 184.805 48.778 184.805 49.795ZM193.563 52.108C192.645 52.108 192.033 51.685 191.691 51.172C191.646 51.1 191.646 51.046 191.709 50.974L191.916 50.74C191.988 50.659 192.069 50.686 192.123 50.749C192.456 51.181 192.879 51.487 193.563 51.487C194.373 51.487 194.85 51.055 194.85 50.398C194.85 49.705 194.346 49.426 193.707 49.111L192.942 48.742C192.276 48.427 191.835 47.95 191.835 47.203C191.835 46.231 192.6 45.628 193.581 45.628C194.301 45.628 194.85 45.934 195.255 46.429C195.336 46.519 195.318 46.573 195.255 46.645L195.057 46.87C194.985 46.951 194.913 46.942 194.841 46.87C194.49 46.465 194.121 46.249 193.599 46.249C192.978 46.249 192.492 46.573 192.492 47.194C192.492 47.653 192.753 47.95 193.311 48.22L194.058 48.589C194.796 48.949 195.507 49.381 195.507 50.389C195.507 51.46 194.688 52.108 193.563 52.108ZM198.631 52.108C197.344 52.108 196.462 51.118 196.462 49.795C196.462 48.481 197.344 47.482 198.631 47.482C199.423 47.482 199.999 47.869 200.323 48.454L200.341 47.716C200.341 47.635 200.377 47.59 200.458 47.59H200.845C200.926 47.59 200.962 47.635 200.962 47.716V51.874C200.962 51.955 200.926 52 200.845 52H200.458C200.377 52 200.341 51.955 200.341 51.874L200.323 51.154C199.999 51.748 199.423 52.108 198.631 52.108ZM197.092 49.795C197.092 50.821 197.776 51.505 198.721 51.505C199.666 51.505 200.323 50.83 200.323 49.813C200.323 48.787 199.666 48.085 198.721 48.085C197.776 48.085 197.092 48.778 197.092 49.795ZM202.438 52C202.357 52 202.321 51.955 202.321 51.874V47.716C202.321 47.635 202.357 47.59 202.438 47.59H202.816C202.906 47.59 202.942 47.626 202.942 47.725L202.969 48.292C203.221 47.842 203.698 47.482 204.427 47.482C205.39 47.482 206.038 48.112 206.038 49.282V51.874C206.038 51.955 206.002 52 205.921 52H205.498C205.417 52 205.39 51.955 205.39 51.874V49.345C205.39 48.562 204.976 48.085 204.247 48.085C203.518 48.085 202.969 48.562 202.969 49.345V51.874C202.969 51.955 202.933 52 202.852 52H202.438ZM209.345 52.108C208.058 52.108 207.176 51.118 207.176 49.795C207.176 48.481 208.058 47.482 209.345 47.482C210.119 47.482 210.704 47.851 211.028 48.427V45.691C211.028 45.61 211.064 45.565 211.145 45.565H211.559C211.64 45.565 211.676 45.61 211.676 45.691V51.874C211.676 51.955 211.64 52 211.559 52H211.172C211.091 52 211.055 51.955 211.055 51.874L211.037 51.154C210.713 51.748 210.137 52.108 209.345 52.108ZM207.806 49.795C207.806 50.821 208.49 51.505 209.435 51.505C210.38 51.505 211.037 50.83 211.037 49.813C211.037 48.787 210.38 48.085 209.435 48.085C208.49 48.085 207.806 48.778 207.806 49.795ZM215.069 52.108C213.782 52.108 212.81 51.109 212.81 49.795C212.81 48.481 213.782 47.482 215.069 47.482C216.347 47.482 217.319 48.481 217.319 49.795C217.319 51.109 216.347 52.108 215.069 52.108ZM213.44 49.795C213.44 50.794 214.133 51.505 215.069 51.505C215.996 51.505 216.689 50.794 216.689 49.795C216.689 48.796 215.996 48.085 215.069 48.085C214.133 48.085 213.44 48.796 213.44 49.795ZM219.698 52C219.626 52 219.563 51.964 219.536 51.892L217.889 47.743C217.853 47.644 217.889 47.59 217.988 47.59H218.402C218.474 47.59 218.519 47.626 218.546 47.698L219.905 51.28L221.273 47.698C221.3 47.626 221.345 47.59 221.417 47.59H221.831C221.93 47.59 221.966 47.644 221.93 47.743L220.283 51.892C220.256 51.964 220.193 52 220.121 52H219.698ZM224.673 52.108C223.386 52.108 222.504 51.118 222.504 49.795C222.504 48.481 223.386 47.482 224.673 47.482C225.465 47.482 226.041 47.869 226.365 48.454L226.383 47.716C226.383 47.635 226.419 47.59 226.5 47.59H226.887C226.968 47.59 227.004 47.635 227.004 47.716V51.874C227.004 51.955 226.968 52 226.887 52H226.5C226.419 52 226.383 51.955 226.383 51.874L226.365 51.154C226.041 51.748 225.465 52.108 224.673 52.108ZM223.134 49.795C223.134 50.821 223.818 51.505 224.763 51.505C225.708 51.505 226.365 50.83 226.365 49.813C226.365 48.787 225.708 48.085 224.763 48.085C223.818 48.085 223.134 48.778 223.134 49.795ZM228.48 52C228.399 52 228.363 51.955 228.363 51.874V45.691C228.363 45.61 228.399 45.565 228.48 45.565H228.894C228.975 45.565 229.011 45.61 229.011 45.691V51.874C229.011 51.955 228.975 52 228.894 52H228.48Z" fill="white"/>
<path d="M229 18H1V19H229V18Z" fill="white"/>
</svg>
