<svg width="268" height="90" viewBox="0 0 268 90" fill="none" xmlns="http://www.w3.org/2000/svg">
<path d="M73.8014 31.56H77.0414C77.8514 31.56 78.2564 31.155 78.2564 30.345V3.615C78.2564 3.195 78.1514 2.895 77.9414 2.715C77.7614 2.505 77.4614 2.4 77.0414 2.4H73.8014V0.959999H90.2714C92.7614 0.959999 95.0414 1.635 97.1114 2.985C99.1814 4.305 100.816 6.165 102.016 8.565C103.246 10.935 103.861 13.65 103.861 16.71C103.861 19.77 103.246 22.545 102.016 25.035C100.816 27.525 99.1664 29.475 97.0664 30.885C94.9964 32.295 92.7314 33 90.2714 33H73.8014V31.56ZM90.0914 31.56C92.1914 31.56 93.9164 30.855 95.2664 29.445C96.6164 28.005 97.5914 26.175 98.1914 23.955C98.7914 21.705 99.0914 19.29 99.0914 16.71C99.0914 12.69 98.3564 9.3 96.8864 6.54C95.4464 3.78 93.1814 2.4 90.0914 2.4H83.6114C83.1914 2.4 82.8764 2.505 82.6664 2.715C82.4864 2.895 82.3964 3.195 82.3964 3.615V30.345C82.3964 31.155 82.8014 31.56 83.6114 31.56H90.0914ZM110.714 6.9C110.054 6.9 109.499 6.675 109.049 6.225C108.599 5.775 108.374 5.22 108.374 4.56C108.374 3.87 108.599 3.315 109.049 2.895C109.499 2.445 110.054 2.22 110.714 2.22C111.404 2.22 111.959 2.445 112.379 2.895C112.829 3.315 113.054 3.87 113.054 4.56C113.054 5.22 112.829 5.775 112.379 6.225C111.959 6.675 111.404 6.9 110.714 6.9ZM106.484 31.92H108.374C108.734 31.92 108.989 31.845 109.139 31.695C109.289 31.545 109.364 31.29 109.364 30.93V14.55C109.364 14.19 109.289 13.935 109.139 13.785C108.989 13.635 108.734 13.56 108.374 13.56H106.484V12.48H112.604V30.93C112.604 31.29 112.679 31.545 112.829 31.695C112.979 31.845 113.234 31.92 113.594 31.92H115.484V33H106.484V31.92ZM118.253 24.63H119.063L120.728 28.185C122.348 31.035 124.448 32.46 127.028 32.46C128.408 32.46 129.428 32.13 130.088 31.47C130.778 30.78 131.123 29.85 131.123 28.68C131.123 27.99 130.853 27.375 130.313 26.835C129.803 26.265 129.113 25.815 128.243 25.485L123.113 23.415C121.493 22.755 120.218 21.96 119.288 21.03C118.358 20.1 117.893 18.915 117.893 17.475C117.893 15.645 118.463 14.265 119.603 13.335C120.743 12.405 122.183 11.94 123.923 11.94C124.793 11.94 125.603 12.09 126.353 12.39C127.133 12.66 127.778 12.99 128.288 13.38C128.948 13.86 129.443 14.1 129.773 14.1C130.163 14.1 130.403 13.83 130.493 13.29L130.583 12.39H131.393V19.23H130.583L129.953 17.655C129.263 15.945 128.348 14.745 127.208 14.055C126.098 13.365 124.988 13.02 123.878 13.02C122.768 13.02 121.853 13.305 121.133 13.875C120.413 14.415 120.053 15.18 120.053 16.17C120.053 17.04 120.398 17.76 121.088 18.33C121.808 18.87 122.783 19.395 124.013 19.905L128.873 21.93C130.313 22.53 131.393 23.265 132.113 24.135C132.833 24.975 133.193 26.16 133.193 27.69C133.193 29.7 132.623 31.185 131.483 32.145C130.343 33.075 128.843 33.54 126.983 33.54C125.873 33.54 124.973 33.39 124.283 33.09C123.593 32.79 122.918 32.385 122.258 31.875C121.988 31.665 121.718 31.485 121.448 31.335C121.178 31.185 120.938 31.11 120.728 31.11C120.008 31.11 119.513 31.62 119.243 32.64L119.063 33.54H118.253V24.63ZM145.144 33.54C142.354 33.54 140.104 32.595 138.394 30.705C136.714 28.815 135.874 26.19 135.874 22.83C135.874 20.91 136.249 19.125 136.999 17.475C137.749 15.795 138.784 14.46 140.104 13.47C141.454 12.45 142.954 11.94 144.604 11.94C146.434 11.94 147.934 12.435 149.104 13.425C150.274 14.415 151.114 15.675 151.624 17.205C152.164 18.705 152.434 20.25 152.434 21.84C152.434 22.17 152.329 22.395 152.119 22.515C151.909 22.605 151.549 22.65 151.039 22.65H139.834C139.834 25.65 140.254 28.035 141.094 29.805C141.964 31.575 143.374 32.46 145.324 32.46C146.704 32.46 147.994 31.935 149.194 30.885C150.424 29.835 151.204 28.2 151.534 25.98H152.614C152.434 28.17 151.669 29.985 150.319 31.425C148.999 32.835 147.274 33.54 145.144 33.54ZM148.564 21.57C148.564 19.17 148.249 17.145 147.619 15.495C146.989 13.845 145.954 13.02 144.514 13.02C142.984 13.02 141.814 13.86 141.004 15.54C140.224 17.19 139.834 19.2 139.834 21.57H148.564ZM159.093 7.89C159.273 6.81 159.693 5.88 160.353 5.1C161.013 4.32 161.883 3.93 162.963 3.93C163.533 3.93 164.073 4.02 164.583 4.2C165.093 4.35 165.678 4.56 166.338 4.83C166.908 5.07 167.388 5.25 167.778 5.37C168.168 5.49 168.588 5.55 169.038 5.55C170.058 5.55 170.748 4.92 171.108 3.66L171.873 3.84C171.693 4.92 171.273 5.85 170.613 6.63C169.953 7.41 169.083 7.8 168.003 7.8C167.433 7.8 166.893 7.725 166.383 7.575C165.873 7.395 165.288 7.17 164.628 6.9C164.058 6.66 163.578 6.48 163.188 6.36C162.798 6.24 162.378 6.18 161.928 6.18C160.908 6.18 160.218 6.81 159.858 8.07L159.093 7.89ZM154.773 31.92H156.663C157.023 31.92 157.278 31.845 157.428 31.695C157.578 31.545 157.653 31.29 157.653 30.93V14.55C157.653 14.19 157.578 13.935 157.428 13.785C157.278 13.635 157.023 13.56 156.663 13.56H154.773V12.48H160.893V16.17L161.073 16.215C161.763 14.775 162.618 13.71 163.638 13.02C164.658 12.3 165.783 11.94 167.013 11.94C169.203 11.94 170.748 12.615 171.648 13.965C172.578 15.315 173.043 16.935 173.043 18.825V30.93C173.043 31.29 173.118 31.545 173.268 31.695C173.418 31.845 173.673 31.92 174.033 31.92H175.923V33H166.923V31.92H168.813C169.173 31.92 169.428 31.845 169.578 31.695C169.728 31.545 169.803 31.29 169.803 30.93V17.97C169.803 16.65 169.533 15.525 168.993 14.595C168.483 13.665 167.598 13.2 166.338 13.2C165.288 13.2 164.343 13.575 163.503 14.325C162.693 15.045 162.048 16.05 161.568 17.34C161.118 18.6 160.893 20.01 160.893 21.57V30.93C160.893 31.29 160.968 31.545 161.118 31.695C161.268 31.845 161.523 31.92 161.883 31.92H163.773V33H154.773V31.92ZM187.174 33.54C185.524 33.54 184.009 33.06 182.629 32.1C181.249 31.11 180.154 29.79 179.344 28.14C178.564 26.49 178.174 24.69 178.174 22.74C178.174 20.79 178.564 18.99 179.344 17.34C180.154 15.69 181.249 14.385 182.629 13.425C184.009 12.435 185.524 11.94 187.174 11.94C188.824 11.94 190.339 12.435 191.719 13.425C193.099 14.385 194.179 15.69 194.959 17.34C195.769 18.99 196.174 20.79 196.174 22.74C196.174 24.69 195.769 26.49 194.959 28.14C194.179 29.79 193.099 31.11 191.719 32.1C190.339 33.06 188.824 33.54 187.174 33.54ZM187.174 32.46C188.974 32.46 190.264 31.62 191.044 29.94C191.824 28.23 192.214 25.83 192.214 22.74C192.214 19.65 191.824 17.265 191.044 15.585C190.264 13.875 188.974 13.02 187.174 13.02C185.374 13.02 184.084 13.875 183.304 15.585C182.524 17.265 182.134 19.65 182.134 22.74C182.134 25.83 182.524 28.23 183.304 29.94C184.084 31.62 185.374 32.46 187.174 32.46ZM57.1921 78.66C53.7821 78.66 51.0321 77.505 48.9421 75.195C46.8887 72.885 45.8621 69.6767 45.8621 65.57C45.8621 63.2233 46.3204 61.0417 47.2371 59.025C48.1537 56.9717 49.4187 55.34 51.0321 54.13C52.6821 52.8833 54.5154 52.26 56.5321 52.26C58.7687 52.26 60.6021 52.865 62.0321 54.075C63.4621 55.285 64.4887 56.825 65.1121 58.695C65.7721 60.5283 66.1021 62.4167 66.1021 64.36C66.1021 64.7633 65.9737 65.0383 65.7171 65.185C65.4604 65.295 65.0204 65.35 64.3971 65.35H50.7021C50.7021 69.0167 51.2154 71.9317 52.2421 74.095C53.3054 76.2583 55.0287 77.34 57.4121 77.34C59.0987 77.34 60.6754 76.6983 62.1421 75.415C63.6454 74.1317 64.5987 72.1333 65.0021 69.42H66.3221C66.1021 72.0967 65.1671 74.315 63.5171 76.075C61.9037 77.7983 59.7954 78.66 57.1921 78.66ZM61.3721 64.03C61.3721 61.0967 60.9871 58.6217 60.2171 56.605C59.4471 54.5883 58.1821 53.58 56.4221 53.58C54.5521 53.58 53.1221 54.6067 52.1321 56.66C51.1787 58.6767 50.7021 61.1333 50.7021 64.03H61.3721ZM79.1899 78.66C77.4666 78.66 75.8533 78.0917 74.3499 76.955C72.8833 75.7817 71.7099 74.1867 70.8299 72.17C69.9499 70.1533 69.5099 67.9167 69.5099 65.46C69.5099 63.0033 69.9499 60.7667 70.8299 58.75C71.7099 56.7333 72.8833 55.1567 74.3499 54.02C75.8533 52.8467 77.4666 52.26 79.1899 52.26C80.6199 52.26 81.9033 52.7367 83.0399 53.69C84.1766 54.6067 85.0199 55.725 85.5699 57.045L85.7899 56.99V41.37C85.7899 40.93 85.6983 40.6183 85.5149 40.435C85.3316 40.2517 85.0199 40.16 84.5799 40.16H80.6199V38.84H89.7499V75.47C89.7499 75.91 89.8416 76.2217 90.0249 76.405C90.2083 76.5883 90.5199 76.68 90.9599 76.68H93.8199V78H85.7899V73.93L85.5699 73.875C84.8733 75.3417 83.9749 76.515 82.8749 77.395C81.8116 78.2383 80.5833 78.66 79.1899 78.66ZM79.7949 77.12C80.8949 77.12 81.9033 76.7167 82.8199 75.91C83.7366 75.1033 84.4516 74.0033 84.9649 72.61C85.5149 71.18 85.7899 69.64 85.7899 67.99V62.93C85.7899 61.28 85.5149 59.7583 84.9649 58.365C84.4516 56.935 83.7366 55.8167 82.8199 55.01C81.9033 54.2033 80.8949 53.8 79.7949 53.8C77.9983 53.8 76.6416 54.8083 75.7249 56.825C74.8083 58.8417 74.3499 61.72 74.3499 65.46C74.3499 69.2 74.8083 72.0783 75.7249 74.095C76.6416 76.1117 77.9983 77.12 79.7949 77.12ZM101.215 46.1C100.409 46.1 99.7303 45.825 99.1803 45.275C98.6303 44.725 98.3553 44.0467 98.3553 43.24C98.3553 42.3967 98.6303 41.7183 99.1803 41.205C99.7303 40.655 100.409 40.38 101.215 40.38C102.059 40.38 102.737 40.655 103.25 41.205C103.8 41.7183 104.075 42.3967 104.075 43.24C104.075 44.0467 103.8 44.725 103.25 45.275C102.737 45.825 102.059 46.1 101.215 46.1ZM96.0453 76.68H98.3553C98.7953 76.68 99.1069 76.5883 99.2903 76.405C99.4736 76.2217 99.5653 75.91 99.5653 75.47V55.45C99.5653 55.01 99.4736 54.6983 99.2903 54.515C99.1069 54.3317 98.7953 54.24 98.3553 54.24H96.0453V52.92H103.525V75.47C103.525 75.91 103.617 76.2217 103.8 76.405C103.984 76.5883 104.295 76.68 104.735 76.68H107.045V78H96.0453V76.68ZM118.459 78.66C116.809 78.66 115.434 78.0733 114.334 76.9C113.271 75.7267 112.739 74.1317 112.739 72.115V54.46H108.669V52.92H109.879C111.529 52.92 112.813 52.04 113.729 50.28C114.683 48.4833 115.159 46.5033 115.159 44.34V42.36H116.699V52.92H123.519V54.46H116.699V72.39C116.699 73.49 116.919 74.4067 117.359 75.14C117.799 75.8733 118.551 76.24 119.614 76.24C122.218 76.24 123.519 74.04 123.519 69.64H124.509C124.509 72.0967 124.143 74.2233 123.409 76.02C122.713 77.78 121.063 78.66 118.459 78.66ZM138.348 78.66C136.331 78.66 134.48 78.0733 132.793 76.9C131.106 75.69 129.768 74.0767 128.778 72.06C127.825 70.0433 127.348 67.8433 127.348 65.46C127.348 63.0767 127.825 60.8767 128.778 58.86C129.768 56.8433 131.106 55.2483 132.793 54.075C134.48 52.865 136.331 52.26 138.348 52.26C140.365 52.26 142.216 52.865 143.903 54.075C145.59 55.2483 146.91 56.8433 147.863 58.86C148.853 60.8767 149.348 63.0767 149.348 65.46C149.348 67.8433 148.853 70.0433 147.863 72.06C146.91 74.0767 145.59 75.69 143.903 76.9C142.216 78.0733 140.365 78.66 138.348 78.66ZM138.348 77.34C140.548 77.34 142.125 76.3133 143.078 74.26C144.031 72.17 144.508 69.2367 144.508 65.46C144.508 61.6833 144.031 58.7683 143.078 56.715C142.125 54.625 140.548 53.58 138.348 53.58C136.148 53.58 134.571 54.625 133.618 56.715C132.665 58.7683 132.188 61.6833 132.188 65.46C132.188 69.2367 132.665 72.17 133.618 74.26C134.571 76.3133 136.148 77.34 138.348 77.34ZM152.433 76.68H154.743C155.183 76.68 155.495 76.5883 155.678 76.405C155.862 76.2217 155.953 75.91 155.953 75.47V55.45C155.953 55.01 155.862 54.6983 155.678 54.515C155.495 54.3317 155.183 54.24 154.743 54.24H152.433V52.92H159.913V58.42L160.133 58.475C160.903 56.5683 161.893 55.065 163.103 53.965C164.35 52.8283 165.67 52.26 167.063 52.26C168.457 52.26 169.593 52.6633 170.473 53.47C171.353 54.2767 171.793 55.3767 171.793 56.77C171.793 57.5767 171.5 58.365 170.913 59.135C170.363 59.905 169.648 60.29 168.768 60.29C168.072 60.29 167.485 60.1067 167.008 59.74C166.532 59.3733 166.293 58.86 166.293 58.2C166.293 57.43 166.66 56.77 167.393 56.22C167.723 56 167.962 55.7983 168.108 55.615C168.292 55.4317 168.383 55.1933 168.383 54.9C168.383 54.57 168.218 54.3133 167.888 54.13C167.595 53.91 167.173 53.8 166.623 53.8C165.487 53.8 164.387 54.35 163.323 55.45C162.297 56.55 161.472 57.98 160.848 59.74C160.225 61.5 159.913 63.3333 159.913 65.24V75.47C159.913 75.91 160.005 76.2217 160.188 76.405C160.372 76.5883 160.683 76.68 161.123 76.68H163.433V78H152.433V76.68ZM178.512 46.1C177.705 46.1 177.027 45.825 176.477 45.275C175.927 44.725 175.652 44.0467 175.652 43.24C175.652 42.3967 175.927 41.7183 176.477 41.205C177.027 40.655 177.705 40.38 178.512 40.38C179.355 40.38 180.033 40.655 180.547 41.205C181.097 41.7183 181.372 42.3967 181.372 43.24C181.372 44.0467 181.097 44.725 180.547 45.275C180.033 45.825 179.355 46.1 178.512 46.1ZM173.342 76.68H175.652C176.092 76.68 176.403 76.5883 176.587 76.405C176.77 76.2217 176.862 75.91 176.862 75.47V55.45C176.862 55.01 176.77 54.6983 176.587 54.515C176.403 54.3317 176.092 54.24 175.652 54.24H173.342V52.92H180.822V75.47C180.822 75.91 180.913 76.2217 181.097 76.405C181.28 76.5883 181.592 76.68 182.032 76.68H184.342V78H173.342V76.68ZM194.106 78.66C192.163 78.66 190.476 78.1833 189.046 77.23C187.653 76.2767 186.956 74.59 186.956 72.17C186.956 70.3 187.433 68.8333 188.386 67.77C189.339 66.7067 190.439 65.955 191.686 65.515C192.969 65.0383 194.509 64.635 196.306 64.305L201.366 63.37V58.695C201.366 55.285 199.661 53.58 196.251 53.58C195.004 53.58 193.868 53.91 192.841 54.57C191.814 55.1933 191.301 55.9083 191.301 56.715C191.301 57.0817 191.356 57.3567 191.466 57.54C191.539 57.65 191.649 57.76 191.796 57.87C191.979 57.98 192.144 58.0533 192.291 58.09C192.951 58.2733 193.446 58.53 193.776 58.86C194.143 59.19 194.326 59.6483 194.326 60.235C194.326 61.005 194.088 61.555 193.611 61.885C193.171 62.215 192.603 62.38 191.906 62.38C191.099 62.38 190.366 62.0683 189.706 61.445C189.046 60.8217 188.716 59.9233 188.716 58.75C188.716 57.3933 189.083 56.22 189.816 55.23C190.586 54.24 191.558 53.5067 192.731 53.03C193.941 52.5167 195.169 52.26 196.416 52.26C198.836 52.26 200.926 52.9017 202.686 54.185C204.446 55.4317 205.326 57.3933 205.326 60.07V73.6C205.326 75.4333 205.894 76.35 207.031 76.35C207.948 76.35 208.608 75.8183 209.011 74.755C209.414 73.6917 209.616 72.39 209.616 70.85H210.606C210.606 73.05 210.276 74.9017 209.616 76.405C208.993 77.9083 207.856 78.66 206.206 78.66C204.629 78.66 203.438 78.2017 202.631 77.285C201.861 76.3317 201.439 75.03 201.366 73.38L201.091 73.27C200.541 74.5533 199.643 75.7817 198.396 76.955C197.186 78.0917 195.756 78.66 194.106 78.66ZM194.986 76.68C196.636 76.68 197.919 76.0383 198.836 74.755C199.789 73.435 200.633 71.7667 201.366 69.75V64.525L196.581 65.57C194.821 65.9367 193.538 66.67 192.731 67.77C191.961 68.8333 191.576 70.355 191.576 72.335C191.576 74.0217 191.924 75.1767 192.621 75.8C193.318 76.3867 194.106 76.68 194.986 76.68ZM211.494 76.68H214.354C214.794 76.68 215.105 76.5883 215.289 76.405C215.472 76.2217 215.564 75.91 215.564 75.47V41.37C215.564 40.93 215.472 40.6183 215.289 40.435C215.105 40.2517 214.794 40.16 214.354 40.16H211.494V38.84H219.524V75.47C219.524 75.91 219.615 76.2217 219.799 76.405C219.982 76.5883 220.294 76.68 220.734 76.68H223.594V78H211.494V76.68Z" fill="#7651A6"/>
<g clip-path="url(#clip0_321_1638)">
<path d="M253.129 60.0995C252.917 59.9032 253.466 57.8084 251.486 56.8799C249.137 55.7777 248.098 57.2611 247.317 57.129C246.117 56.9214 245.196 53.3545 242.039 55.9287C239.396 58.0839 239.745 63.4965 240.757 66.3727C244.219 76.2542 259.866 68.2259 257.815 61.6659C257.168 59.5937 253.329 60.2882 253.129 60.1033V60.0995Z" fill="#7651A6"/>
</g>
<path d="M15.8708 60.1003C16.0826 59.9041 15.5336 57.8092 17.514 56.8807C19.863 55.7786 20.9022 57.2619 21.6826 57.1298C22.8826 56.9222 23.8042 53.3554 26.961 55.9295C29.6042 58.0848 29.2551 63.4974 28.2434 66.3735C24.7806 76.2551 9.13357 68.2268 11.1845 61.6668C11.8316 59.5946 15.6708 60.2891 15.8708 60.1041V60.1003Z" fill="#7651A6"/>
<g clip-path="url(#clip1_321_1638)">
<path d="M84 88.9932C120.838 87.6598 162.162 87.6598 199 88.9932C162.162 90.3265 120.838 90.3265 84 88.9932Z" fill="#7651A6"/>
</g>
<defs>
<clipPath id="clip0_321_1638">
<rect width="18" height="16" fill="white" transform="matrix(-1 0 0 1 258 55)"/>
</clipPath>
<clipPath id="clip1_321_1638">
<rect width="115" height="2" fill="white" transform="translate(84 88)"/>
</clipPath>
</defs>
</svg>
