<svg width="268" height="112" viewBox="0 0 268 112" fill="none" xmlns="http://www.w3.org/2000/svg">
<g clip-path="url(#clip0_321_1628)">
<path d="M82 82.5034C114.994 83.1701 152.006 83.1701 185 82.5034C152.006 81.8368 114.994 81.8368 82 82.5034Z" fill="#0D94A6"/>
</g>
<path d="M262.125 53.1003C261.914 52.9041 262.463 50.8092 260.482 49.8807C258.133 48.7786 257.094 50.2619 256.314 50.1298C255.114 49.9222 254.192 46.3554 251.035 48.9295C248.392 51.0848 248.741 56.4974 249.753 59.3735C253.215 69.2551 268.863 61.2268 266.812 54.6668C266.164 52.5946 262.325 53.2891 262.125 53.1041V53.1003Z" fill="#0F7C8A"/>
<path d="M11.8708 53.1003C12.0826 52.9041 11.5336 50.8092 13.514 49.8807C15.863 48.7786 16.9022 50.2619 17.6826 50.1298C18.8826 49.9222 19.8042 46.3554 22.961 48.9295C25.6042 51.0848 25.2551 56.4974 24.2434 59.3735C20.7806 69.2551 5.13357 61.2268 7.18455 54.6668C7.83161 52.5946 11.6708 53.2891 11.8708 53.1041V53.1003Z" fill="#0F7C8A"/>
<path d="M54.7324 27.784H57.4684C58.1524 27.784 58.4944 27.442 58.4944 26.758V4.186C58.4944 3.83133 58.4058 3.578 58.2284 3.426C58.0764 3.24867 57.8231 3.16 57.4684 3.16H54.7324V1.944H65.7524V3.16H63.0164C62.6618 3.16 62.3958 3.24867 62.2184 3.426C62.0664 3.578 61.9904 3.83133 61.9904 4.186V26.758C61.9904 27.442 62.3324 27.784 63.0164 27.784H65.7524V29H54.7324V27.784ZM67.2555 28.088H69.2315C69.5355 28.088 69.7509 28.0247 69.8775 27.898C70.0042 27.7713 70.0675 27.556 70.0675 27.252V3.692C70.0675 3.388 70.0042 3.17267 69.8775 3.046C69.7509 2.91933 69.5355 2.856 69.2315 2.856H67.2555V1.944H72.8035V27.252C72.8035 27.556 72.8669 27.7713 72.9935 27.898C73.1202 28.0247 73.3355 28.088 73.6395 28.088H75.6155V29H67.2555V28.088ZM84.0337 29.456C82.1844 29.456 80.867 28.886 80.0817 27.746C79.3217 26.606 78.9417 25.238 78.9417 23.642V13.42C78.9417 13.116 78.8784 12.9007 78.7517 12.774C78.625 12.6473 78.4097 12.584 78.1057 12.584H76.5097V11.672H81.6777V24.364C81.6777 25.4787 81.893 26.4287 82.3237 27.214C82.7797 27.9993 83.5397 28.392 84.6037 28.392C85.4904 28.392 86.2757 28.088 86.9597 27.48C87.669 26.8467 88.2137 25.998 88.5937 24.934C88.999 23.8447 89.2017 22.6413 89.2017 21.324V13.42C89.2017 13.116 89.1384 12.9007 89.0117 12.774C88.885 12.6473 88.6697 12.584 88.3657 12.584H86.7697V11.672H91.9377V27.252C91.9377 27.556 92.001 27.7713 92.1277 27.898C92.2544 28.0247 92.4697 28.088 92.7737 28.088H94.3697V29H89.2017V25.884L89.0497 25.846C88.467 27.062 87.745 27.974 86.8837 28.582C86.0224 29.1647 85.0724 29.456 84.0337 29.456ZM96.7325 21.932H97.4165L98.8225 24.934C100.191 27.3407 101.964 28.544 104.143 28.544C105.308 28.544 106.169 28.2653 106.727 27.708C107.309 27.1253 107.601 26.34 107.601 25.352C107.601 24.7693 107.373 24.25 106.917 23.794C106.486 23.3127 105.903 22.9327 105.169 22.654L100.837 20.906C99.4685 20.3487 98.3919 19.6773 97.6065 18.892C96.8212 18.1067 96.4285 17.106 96.4285 15.89C96.4285 14.3447 96.9099 13.1793 97.8725 12.394C98.8352 11.6087 100.051 11.216 101.521 11.216C102.255 11.216 102.939 11.3427 103.573 11.596C104.231 11.824 104.776 12.1027 105.207 12.432C105.764 12.8373 106.182 13.04 106.461 13.04C106.79 13.04 106.993 12.812 107.069 12.356L107.145 11.596H107.829V17.372H107.145L106.613 16.042C106.03 14.598 105.257 13.5847 104.295 13.002C103.357 12.4193 102.42 12.128 101.483 12.128C100.545 12.128 99.7725 12.3687 99.1645 12.85C98.5565 13.306 98.2525 13.952 98.2525 14.788C98.2525 15.5227 98.5439 16.1307 99.1265 16.612C99.7345 17.068 100.558 17.5113 101.597 17.942L105.701 19.652C106.917 20.1587 107.829 20.7793 108.437 21.514C109.045 22.2233 109.349 23.224 109.349 24.516C109.349 26.2133 108.867 27.4673 107.905 28.278C106.942 29.0633 105.675 29.456 104.105 29.456C103.167 29.456 102.407 29.3293 101.825 29.076C101.242 28.8227 100.672 28.4807 100.115 28.05C99.8865 27.8727 99.6585 27.7207 99.4305 27.594C99.2025 27.4673 98.9999 27.404 98.8225 27.404C98.2145 27.404 97.7965 27.8347 97.5685 28.696L97.4165 29.456H96.7325V21.932ZM117.617 29.456C116.477 29.456 115.527 29.0507 114.767 28.24C114.032 27.4293 113.665 26.3273 113.665 24.934V12.736H110.853V11.672H111.689C112.829 11.672 113.716 11.064 114.349 9.848C115.008 8.60667 115.337 7.23867 115.337 5.744V4.376H116.401V11.672H121.113V12.736H116.401V25.124C116.401 25.884 116.553 26.5173 116.857 27.024C117.161 27.5307 117.68 27.784 118.415 27.784C120.214 27.784 121.113 26.264 121.113 23.224H121.797C121.797 24.9213 121.544 26.3907 121.037 27.632C120.556 28.848 119.416 29.456 117.617 29.456ZM123.378 28.088H124.974C125.278 28.088 125.494 28.0247 125.62 27.898C125.747 27.7713 125.81 27.556 125.81 27.252V13.42C125.81 13.116 125.747 12.9007 125.62 12.774C125.494 12.6473 125.278 12.584 124.974 12.584H123.378V11.672H128.546V15.472L128.698 15.51C129.23 14.1927 129.914 13.154 130.75 12.394C131.612 11.6087 132.524 11.216 133.486 11.216C134.449 11.216 135.234 11.4947 135.842 12.052C136.45 12.6093 136.754 13.3693 136.754 14.332C136.754 14.8893 136.552 15.434 136.146 15.966C135.766 16.498 135.272 16.764 134.664 16.764C134.183 16.764 133.778 16.6373 133.448 16.384C133.119 16.1307 132.954 15.776 132.954 15.32C132.954 14.788 133.208 14.332 133.714 13.952C133.942 13.8 134.107 13.6607 134.208 13.534C134.335 13.4073 134.398 13.2427 134.398 13.04C134.398 12.812 134.284 12.6347 134.056 12.508C133.854 12.356 133.562 12.28 133.182 12.28C132.397 12.28 131.637 12.66 130.902 13.42C130.193 14.18 129.623 15.168 129.192 16.384C128.762 17.6 128.546 18.8667 128.546 20.184V27.252C128.546 27.556 128.61 27.7713 128.736 27.898C128.863 28.0247 129.078 28.088 129.382 28.088H130.978V29H123.378V28.088ZM143.068 29.456C141.726 29.456 140.56 29.1267 139.572 28.468C138.61 27.8093 138.128 26.644 138.128 24.972C138.128 23.68 138.458 22.6667 139.116 21.932C139.775 21.1973 140.535 20.678 141.396 20.374C142.283 20.0447 143.347 19.766 144.588 19.538L148.084 18.892V15.662C148.084 13.306 146.906 12.128 144.55 12.128C143.689 12.128 142.904 12.356 142.194 12.812C141.485 13.2427 141.13 13.7367 141.13 14.294C141.13 14.5473 141.168 14.7373 141.244 14.864C141.295 14.94 141.371 15.016 141.472 15.092C141.599 15.168 141.713 15.2187 141.814 15.244C142.27 15.3707 142.612 15.548 142.84 15.776C143.094 16.004 143.22 16.3207 143.22 16.726C143.22 17.258 143.056 17.638 142.726 17.866C142.422 18.094 142.03 18.208 141.548 18.208C140.991 18.208 140.484 17.9927 140.028 17.562C139.572 17.1313 139.344 16.5107 139.344 15.7C139.344 14.7627 139.598 13.952 140.104 13.268C140.636 12.584 141.308 12.0773 142.118 11.748C142.954 11.3933 143.803 11.216 144.664 11.216C146.336 11.216 147.78 11.6593 148.996 12.546C150.212 13.4073 150.82 14.7627 150.82 16.612V25.96C150.82 27.2267 151.213 27.86 151.998 27.86C152.632 27.86 153.088 27.4927 153.366 26.758C153.645 26.0233 153.784 25.124 153.784 24.06H154.468C154.468 25.58 154.24 26.8593 153.784 27.898C153.354 28.9367 152.568 29.456 151.428 29.456C150.339 29.456 149.516 29.1393 148.958 28.506C148.426 27.8473 148.135 26.948 148.084 25.808L147.894 25.732C147.514 26.6187 146.894 27.4673 146.032 28.278C145.196 29.0633 144.208 29.456 143.068 29.456ZM143.676 28.088C144.816 28.088 145.703 27.6447 146.336 26.758C146.995 25.846 147.578 24.6933 148.084 23.3V19.69L144.778 20.412C143.562 20.6653 142.676 21.172 142.118 21.932C141.586 22.6667 141.32 23.718 141.32 25.086C141.32 26.2513 141.561 27.0493 142.042 27.48C142.524 27.8853 143.068 28.088 143.676 28.088ZM163.29 29.456C161.82 29.456 160.516 29.0507 159.376 28.24C158.261 27.4293 157.387 26.3273 156.754 24.934C156.146 23.5407 155.842 22.008 155.842 20.336C155.842 18.664 156.158 17.1313 156.792 15.738C157.425 14.3447 158.299 13.2427 159.414 12.432C160.554 11.6213 161.846 11.216 163.29 11.216C164.455 11.216 165.468 11.4693 166.33 11.976C167.191 12.4573 167.85 13.0907 168.306 13.876C168.762 14.636 168.99 15.4087 168.99 16.194C168.99 16.9793 168.787 17.6 168.382 18.056C167.976 18.4867 167.482 18.702 166.9 18.702C166.393 18.702 165.962 18.5373 165.608 18.208C165.278 17.8787 165.114 17.486 165.114 17.03C165.114 16.574 165.24 16.194 165.494 15.89C165.747 15.586 166.051 15.3833 166.406 15.282C166.811 15.1553 167.014 14.9273 167.014 14.598C167.014 14.294 166.874 13.952 166.596 13.572C166.342 13.192 165.937 12.8627 165.38 12.584C164.822 12.28 164.126 12.128 163.29 12.128C161.694 12.128 160.604 12.812 160.022 14.18C159.464 15.548 159.186 17.6 159.186 20.336C159.186 23.072 159.464 25.124 160.022 26.492C160.579 27.86 161.668 28.544 163.29 28.544C164.835 28.544 166.026 27.9993 166.862 26.91C167.698 25.8207 168.204 24.5413 168.382 23.072H169.294C169.218 24.1107 168.952 25.124 168.496 26.112C168.04 27.0747 167.368 27.8727 166.482 28.506C165.595 29.1393 164.531 29.456 163.29 29.456ZM174.444 6.96C173.887 6.96 173.418 6.77 173.038 6.39C172.658 6.01 172.468 5.54133 172.468 4.984C172.468 4.40133 172.658 3.93267 173.038 3.578C173.418 3.198 173.887 3.008 174.444 3.008C175.027 3.008 175.496 3.198 175.85 3.578C176.23 3.93267 176.42 4.40133 176.42 4.984C176.42 5.54133 176.23 6.01 175.85 6.39C175.496 6.77 175.027 6.96 174.444 6.96ZM170.872 28.088H172.468C172.772 28.088 172.988 28.0247 173.114 27.898C173.241 27.7713 173.304 27.556 173.304 27.252V13.42C173.304 13.116 173.241 12.9007 173.114 12.774C172.988 12.6473 172.772 12.584 172.468 12.584H170.872V11.672H176.04V27.252C176.04 27.556 176.104 27.7713 176.23 27.898C176.357 28.0247 176.572 28.088 176.876 28.088H178.472V29H170.872V28.088ZM187.005 9.278L190.501 4.224C190.83 3.768 191.134 3.45133 191.413 3.274C191.691 3.09667 192.008 3.008 192.363 3.008C192.692 3.008 192.945 3.122 193.123 3.35C193.325 3.55267 193.427 3.83133 193.427 4.186C193.427 4.76866 193.072 5.326 192.363 5.858L187.499 9.696L187.005 9.278ZM187.955 29.456C186.561 29.456 185.282 29.0507 184.117 28.24C182.951 27.404 182.027 26.2893 181.343 24.896C180.684 23.5027 180.355 21.9827 180.355 20.336C180.355 18.6893 180.684 17.1693 181.343 15.776C182.027 14.3827 182.951 13.2807 184.117 12.47C185.282 11.634 186.561 11.216 187.955 11.216C189.348 11.216 190.627 11.634 191.793 12.47C192.958 13.2807 193.87 14.3827 194.529 15.776C195.213 17.1693 195.555 18.6893 195.555 20.336C195.555 21.9827 195.213 23.5027 194.529 24.896C193.87 26.2893 192.958 27.404 191.793 28.24C190.627 29.0507 189.348 29.456 187.955 29.456ZM187.955 28.544C189.475 28.544 190.564 27.8347 191.223 26.416C191.881 24.972 192.211 22.9453 192.211 20.336C192.211 17.7267 191.881 15.7127 191.223 14.294C190.564 12.85 189.475 12.128 187.955 12.128C186.435 12.128 185.345 12.85 184.687 14.294C184.028 15.7127 183.699 17.7267 183.699 20.336C183.699 22.9453 184.028 24.972 184.687 26.416C185.345 27.8347 186.435 28.544 187.955 28.544ZM197.686 28.088H199.282C199.586 28.088 199.801 28.0247 199.928 27.898C200.055 27.7713 200.118 27.556 200.118 27.252V13.42C200.118 13.116 200.055 12.9007 199.928 12.774C199.801 12.6473 199.586 12.584 199.282 12.584H197.686V11.672H202.854V14.788L203.006 14.826C203.589 13.61 204.311 12.7107 205.172 12.128C206.033 11.52 206.983 11.216 208.022 11.216C209.871 11.216 211.176 11.786 211.936 12.926C212.721 14.066 213.114 15.434 213.114 17.03V27.252C213.114 27.556 213.177 27.7713 213.304 27.898C213.431 28.0247 213.646 28.088 213.95 28.088H215.546V29H207.946V28.088H209.542C209.846 28.088 210.061 28.0247 210.188 27.898C210.315 27.7713 210.378 27.556 210.378 27.252V16.308C210.378 15.1933 210.15 14.2433 209.694 13.458C209.263 12.6727 208.516 12.28 207.452 12.28C206.565 12.28 205.767 12.5967 205.058 13.23C204.374 13.838 203.829 14.6867 203.424 15.776C203.044 16.84 202.854 18.0307 202.854 19.348V27.252C202.854 27.556 202.917 27.7713 203.044 27.898C203.171 28.0247 203.386 28.088 203.69 28.088H205.286V29H197.686V28.088ZM30.062 73.08H32.282C34.642 73.08 36.362 71.62 37.442 68.7L50.342 32.28H51.842L64.862 70.44C65.262 71.44 65.742 72.14 66.302 72.54C66.862 72.9 67.582 73.08 68.462 73.08H71.822V75H53.222V73.08H57.182C57.782 73.08 58.282 72.94 58.682 72.66C59.082 72.34 59.282 71.98 59.282 71.58C59.282 71.06 59.202 70.62 59.042 70.26L56.222 62.28H42.182L40.742 66.3C40.182 67.9 39.902 69.06 39.902 69.78C39.902 70.66 40.122 71.44 40.562 72.12C41.002 72.76 41.762 73.08 42.842 73.08H46.502V75H30.062V73.08ZM42.842 60.36H55.562L49.322 42.06L42.842 60.36ZM73.0023 87.36H76.1223C76.6023 87.36 76.9423 87.26 77.1423 87.06C77.3423 86.86 77.4423 86.52 77.4423 86.04V50.4C77.4423 49.92 77.3423 49.58 77.1423 49.38C76.9423 49.18 76.6023 49.08 76.1223 49.08H73.0023V47.64H81.7623V52.08L82.0023 52.14C82.7623 50.54 83.7223 49.28 84.8823 48.36C86.0823 47.4 87.4423 46.92 88.9623 46.92C90.8423 46.92 92.5823 47.56 94.1823 48.84C95.8223 50.08 97.1223 51.8 98.0823 54C99.0423 56.2 99.5223 58.64 99.5223 61.32C99.5223 64 99.0423 66.44 98.0823 68.64C97.1223 70.84 95.8223 72.58 94.1823 73.86C92.5823 75.1 90.8423 75.72 88.9623 75.72C87.4023 75.72 86.0023 75.22 84.7623 74.22C83.5223 73.18 82.6023 71.94 82.0023 70.5L81.7623 70.56V86.04C81.7623 86.52 81.8623 86.86 82.0623 87.06C82.2623 87.26 82.6023 87.36 83.0823 87.36H86.2023V88.8H73.0023V87.36ZM88.3023 74.04C90.2623 74.04 91.7423 72.94 92.7423 70.74C93.7423 68.54 94.2423 65.4 94.2423 61.32C94.2423 57.24 93.7423 54.1 92.7423 51.9C91.7423 49.7 90.2623 48.6 88.3023 48.6C87.1023 48.6 86.0023 49.04 85.0023 49.92C84.0023 50.8 83.2023 52.02 82.6023 53.58C82.0423 55.1 81.7623 56.76 81.7623 58.56V64.08C81.7623 65.88 82.0423 67.56 82.6023 69.12C83.2023 70.64 84.0023 71.84 85.0023 72.72C86.0023 73.6 87.1023 74.04 88.3023 74.04ZM102.257 73.56H105.377C105.857 73.56 106.197 73.46 106.397 73.26C106.597 73.06 106.697 72.72 106.697 72.24V35.04C106.697 34.56 106.597 34.22 106.397 34.02C106.197 33.82 105.857 33.72 105.377 33.72H102.257V32.28H111.017V72.24C111.017 72.72 111.117 73.06 111.317 73.26C111.517 73.46 111.857 73.56 112.337 73.56H115.457V75H102.257V73.56ZM122.869 40.2C121.989 40.2 121.249 39.9 120.649 39.3C120.049 38.7 119.749 37.96 119.749 37.08C119.749 36.16 120.049 35.42 120.649 34.86C121.249 34.26 121.989 33.96 122.869 33.96C123.789 33.96 124.529 34.26 125.089 34.86C125.689 35.42 125.989 36.16 125.989 37.08C125.989 37.96 125.689 38.7 125.089 39.3C124.529 39.9 123.789 40.2 122.869 40.2ZM117.229 73.56H119.749C120.229 73.56 120.569 73.46 120.769 73.26C120.969 73.06 121.069 72.72 121.069 72.24V50.4C121.069 49.92 120.969 49.58 120.769 49.38C120.569 49.18 120.229 49.08 119.749 49.08H117.229V47.64H125.389V72.24C125.389 72.72 125.489 73.06 125.689 73.26C125.889 73.46 126.229 73.56 126.709 73.56H129.229V75H117.229V73.56ZM143.961 75.72C141.641 75.72 139.581 75.08 137.781 73.8C136.021 72.52 134.641 70.78 133.641 68.58C132.681 66.38 132.201 63.96 132.201 61.32C132.201 58.68 132.701 56.26 133.701 54.06C134.701 51.86 136.081 50.12 137.841 48.84C139.641 47.56 141.681 46.92 143.961 46.92C145.801 46.92 147.401 47.32 148.761 48.12C150.121 48.88 151.161 49.88 151.881 51.12C152.601 52.32 152.961 53.54 152.961 54.78C152.961 56.02 152.641 57 152.001 57.72C151.361 58.4 150.581 58.74 149.661 58.74C148.861 58.74 148.181 58.48 147.621 57.96C147.101 57.44 146.841 56.82 146.841 56.1C146.841 55.38 147.041 54.78 147.441 54.3C147.841 53.82 148.321 53.5 148.881 53.34C149.521 53.14 149.841 52.78 149.841 52.26C149.841 51.78 149.621 51.24 149.181 50.64C148.781 50.04 148.141 49.52 147.261 49.08C146.381 48.6 145.281 48.36 143.961 48.36C141.441 48.36 139.721 49.44 138.801 51.6C137.921 53.76 137.481 57 137.481 61.32C137.481 65.64 137.921 68.88 138.801 71.04C139.681 73.2 141.401 74.28 143.961 74.28C146.401 74.28 148.281 73.42 149.601 71.7C150.921 69.98 151.721 67.96 152.001 65.64H153.441C153.321 67.28 152.901 68.88 152.181 70.44C151.461 71.96 150.401 73.22 149.001 74.22C147.601 75.22 145.921 75.72 143.961 75.72ZM164.214 75.72C162.094 75.72 160.254 75.2 158.694 74.16C157.174 73.12 156.414 71.28 156.414 68.64C156.414 66.6 156.934 65 157.974 63.84C159.014 62.68 160.214 61.86 161.574 61.38C162.974 60.86 164.654 60.42 166.614 60.06L172.134 59.04V53.94C172.134 50.22 170.274 48.36 166.554 48.36C165.194 48.36 163.954 48.72 162.834 49.44C161.714 50.12 161.154 50.9 161.154 51.78C161.154 52.18 161.214 52.48 161.334 52.68C161.414 52.8 161.534 52.92 161.694 53.04C161.894 53.16 162.074 53.24 162.234 53.28C162.954 53.48 163.494 53.76 163.854 54.12C164.254 54.48 164.454 54.98 164.454 55.62C164.454 56.46 164.194 57.06 163.674 57.42C163.194 57.78 162.574 57.96 161.814 57.96C160.934 57.96 160.134 57.62 159.414 56.94C158.694 56.26 158.334 55.28 158.334 54C158.334 52.52 158.734 51.24 159.534 50.16C160.374 49.08 161.434 48.28 162.714 47.76C164.034 47.2 165.374 46.92 166.734 46.92C169.374 46.92 171.654 47.62 173.574 49.02C175.494 50.38 176.454 52.52 176.454 55.44V70.2C176.454 72.2 177.074 73.2 178.314 73.2C179.314 73.2 180.034 72.62 180.474 71.46C180.914 70.3 181.134 68.88 181.134 67.2H182.214C182.214 69.6 181.854 71.62 181.134 73.26C180.454 74.9 179.214 75.72 177.414 75.72C175.694 75.72 174.394 75.22 173.514 74.22C172.674 73.18 172.214 71.76 172.134 69.96L171.834 69.84C171.234 71.24 170.254 72.58 168.894 73.86C167.574 75.1 166.014 75.72 164.214 75.72ZM165.174 73.56C166.974 73.56 168.374 72.86 169.374 71.46C170.414 70.02 171.334 68.2 172.134 66V60.3L166.914 61.44C164.994 61.84 163.594 62.64 162.714 63.84C161.874 65 161.454 66.66 161.454 68.82C161.454 70.66 161.834 71.92 162.594 72.6C163.354 73.24 164.214 73.56 165.174 73.56ZM194.942 75.72C193.062 75.72 191.302 75.1 189.662 73.86C188.062 72.58 186.782 70.84 185.822 68.64C184.862 66.44 184.382 64 184.382 61.32C184.382 58.64 184.862 56.2 185.822 54C186.782 51.8 188.062 50.08 189.662 48.84C191.302 47.56 193.062 46.92 194.942 46.92C196.502 46.92 197.902 47.44 199.142 48.48C200.382 49.48 201.302 50.7 201.902 52.14L202.142 52.08V35.04C202.142 34.56 202.042 34.22 201.842 34.02C201.642 33.82 201.302 33.72 200.822 33.72H196.502V32.28H206.462V72.24C206.462 72.72 206.562 73.06 206.762 73.26C206.962 73.46 207.302 73.56 207.782 73.56H210.902V75H202.142V70.56L201.902 70.5C201.142 72.1 200.162 73.38 198.962 74.34C197.802 75.26 196.462 75.72 194.942 75.72ZM195.602 74.04C196.802 74.04 197.902 73.6 198.902 72.72C199.902 71.84 200.682 70.64 201.242 69.12C201.842 67.56 202.142 65.88 202.142 64.08V58.56C202.142 56.76 201.842 55.1 201.242 53.58C200.682 52.02 199.902 50.8 198.902 49.92C197.902 49.04 196.802 48.6 195.602 48.6C193.642 48.6 192.162 49.7 191.162 51.9C190.162 54.1 189.662 57.24 189.662 61.32C189.662 65.4 190.162 68.54 191.162 70.74C192.162 72.94 193.642 74.04 195.602 74.04ZM221.61 75.72C219.49 75.72 217.65 75.2 216.09 74.16C214.57 73.12 213.81 71.28 213.81 68.64C213.81 66.6 214.33 65 215.37 63.84C216.41 62.68 217.61 61.86 218.97 61.38C220.37 60.86 222.05 60.42 224.01 60.06L229.53 59.04V53.94C229.53 50.22 227.67 48.36 223.95 48.36C222.59 48.36 221.35 48.72 220.23 49.44C219.11 50.12 218.55 50.9 218.55 51.78C218.55 52.18 218.61 52.48 218.73 52.68C218.81 52.8 218.93 52.92 219.09 53.04C219.29 53.16 219.47 53.24 219.63 53.28C220.35 53.48 220.89 53.76 221.25 54.12C221.65 54.48 221.85 54.98 221.85 55.62C221.85 56.46 221.59 57.06 221.07 57.42C220.59 57.78 219.97 57.96 219.21 57.96C218.33 57.96 217.53 57.62 216.81 56.94C216.09 56.26 215.73 55.28 215.73 54C215.73 52.52 216.13 51.24 216.93 50.16C217.77 49.08 218.83 48.28 220.11 47.76C221.43 47.2 222.77 46.92 224.13 46.92C226.77 46.92 229.05 47.62 230.97 49.02C232.89 50.38 233.85 52.52 233.85 55.44V70.2C233.85 72.2 234.47 73.2 235.71 73.2C236.71 73.2 237.43 72.62 237.87 71.46C238.31 70.3 238.53 68.88 238.53 67.2H239.61C239.61 69.6 239.25 71.62 238.53 73.26C237.85 74.9 236.61 75.72 234.81 75.72C233.09 75.72 231.79 75.22 230.91 74.22C230.07 73.18 229.61 71.76 229.53 69.96L229.23 69.84C228.63 71.24 227.65 72.58 226.29 73.86C224.97 75.1 223.41 75.72 221.61 75.72ZM222.57 73.56C224.37 73.56 225.77 72.86 226.77 71.46C227.81 70.02 228.73 68.2 229.53 66V60.3L224.31 61.44C222.39 61.84 220.99 62.64 220.11 63.84C219.27 65 218.85 66.66 218.85 68.82C218.85 70.66 219.23 71.92 219.99 72.6C220.75 73.24 221.61 73.56 222.57 73.56Z" fill="#0F7C8A"/>
<defs>
<clipPath id="clip0_321_1628">
<rect width="103" height="1" fill="white" transform="matrix(1 0 0 -1 82 83)"/>
</clipPath>
</defs>
</svg>
