<svg width="321" height="61" viewBox="0 0 321 61" fill="none" xmlns="http://www.w3.org/2000/svg">
<path d="M33.934 34.4H37.534C38.434 34.4 38.884 33.95 38.884 33.05V3.35C38.884 2.88333 38.7673 2.55 38.534 2.35C38.334 2.11667 38.0007 2 37.534 2H33.934V0.399999H61.834L62.034 12.9H60.784C60.784 12.2333 60.634 11.1 60.334 9.5C60.0673 7.9 59.5173 6.46667 58.684 5.2C57.284 3.06667 55.3173 2 52.784 2H44.834C44.3673 2 44.0173 2.11667 43.784 2.35C43.584 2.55 43.484 2.88333 43.484 3.35V16.8H47.334C49.034 16.8 50.2507 15.9 50.984 14.1C51.7507 12.2667 52.134 10.35 52.134 8.35H53.434V26.85H52.134C52.134 24.85 51.7507 22.95 50.984 21.15C50.2507 19.3167 49.034 18.4 47.334 18.4H43.484V32.75C43.484 33.25 43.584 33.65 43.784 33.95C44.0173 34.25 44.3673 34.4 44.834 34.4H49.234V36H33.934V34.4ZM69.0504 10.05L73.6504 3.4C74.0837 2.8 74.4837 2.38333 74.8504 2.15C75.2171 1.91667 75.6337 1.8 76.1004 1.8C76.5337 1.8 76.8671 1.95 77.1004 2.25C77.3671 2.51666 77.5004 2.88333 77.5004 3.35C77.5004 4.11666 77.0337 4.85 76.1004 5.55L69.7004 10.6L69.0504 10.05ZM67.7004 36.6C65.9337 36.6 64.4004 36.1667 63.1004 35.3C61.8337 34.4333 61.2004 32.9 61.2004 30.7C61.2004 29 61.6337 27.6667 62.5004 26.7C63.3671 25.7333 64.3671 25.05 65.5004 24.65C66.6671 24.2167 68.0671 23.85 69.7004 23.55L74.3004 22.7V18.45C74.3004 15.35 72.7504 13.8 69.6504 13.8C68.5171 13.8 67.4837 14.1 66.5504 14.7C65.6171 15.2667 65.1504 15.9167 65.1504 16.65C65.1504 16.9833 65.2004 17.2333 65.3004 17.4C65.3671 17.5 65.4671 17.6 65.6004 17.7C65.7671 17.8 65.9171 17.8667 66.0504 17.9C66.6504 18.0667 67.1004 18.3 67.4004 18.6C67.7337 18.9 67.9004 19.3167 67.9004 19.85C67.9004 20.55 67.6837 21.05 67.2504 21.35C66.8504 21.65 66.3337 21.8 65.7004 21.8C64.9671 21.8 64.3004 21.5167 63.7004 20.95C63.1004 20.3833 62.8004 19.5667 62.8004 18.5C62.8004 17.2667 63.1337 16.2 63.8004 15.3C64.5004 14.4 65.3837 13.7333 66.4504 13.3C67.5504 12.8333 68.6671 12.6 69.8004 12.6C72.0004 12.6 73.9004 13.1833 75.5004 14.35C77.1004 15.4833 77.9004 17.2667 77.9004 19.7V32C77.9004 33.6667 78.4171 34.5 79.4504 34.5C80.2837 34.5 80.8837 34.0167 81.2504 33.05C81.6171 32.0833 81.8004 30.9 81.8004 29.5H82.7004C82.7004 31.5 82.4004 33.1833 81.8004 34.55C81.2337 35.9167 80.2004 36.6 78.7004 36.6C77.2671 36.6 76.1837 36.1833 75.4504 35.35C74.7504 34.4833 74.3671 33.3 74.3004 31.8L74.0504 31.7C73.5504 32.8667 72.7337 33.9833 71.6004 35.05C70.5004 36.0833 69.2004 36.6 67.7004 36.6ZM68.5004 34.8C70.0004 34.8 71.1671 34.2167 72.0004 33.05C72.8671 31.85 73.6337 30.3333 74.3004 28.5V23.75L69.9504 24.7C68.3504 25.0333 67.1837 25.7 66.4504 26.7C65.7504 27.6667 65.4004 29.05 65.4004 30.85C65.4004 32.3833 65.7171 33.4333 66.3504 34C66.9837 34.5333 67.7004 34.8 68.5004 34.8ZM91.4074 36.6C89.9074 36.6 88.6574 36.0667 87.6574 35C86.6908 33.9333 86.2074 32.4833 86.2074 30.65V14.6H82.5074V13.2H83.6074C85.1074 13.2 86.2741 12.4 87.1074 10.8C87.9741 9.16667 88.4074 7.36666 88.4074 5.4V3.6H89.8074V13.2H96.0074V14.6H89.8074V30.9C89.8074 31.9 90.0074 32.7333 90.4074 33.4C90.8074 34.0667 91.4908 34.4 92.4574 34.4C94.8241 34.4 96.0074 32.4 96.0074 28.4H96.9074C96.9074 30.6333 96.5741 32.5667 95.9074 34.2C95.2741 35.8 93.7741 36.6 91.4074 36.6ZM102.688 7C101.955 7 101.338 6.75 100.838 6.25C100.338 5.75 100.088 5.13333 100.088 4.4C100.088 3.63333 100.338 3.01667 100.838 2.55C101.338 2.05 101.955 1.8 102.688 1.8C103.455 1.8 104.071 2.05 104.538 2.55C105.038 3.01667 105.288 3.63333 105.288 4.4C105.288 5.13333 105.038 5.75 104.538 6.25C104.071 6.75 103.455 7 102.688 7ZM97.9879 34.8H100.088C100.488 34.8 100.771 34.7167 100.938 34.55C101.105 34.3833 101.188 34.1 101.188 33.7V15.5C101.188 15.1 101.105 14.8167 100.938 14.65C100.771 14.4833 100.488 14.4 100.088 14.4H97.9879V13.2H104.788V33.7C104.788 34.1 104.871 34.3833 105.038 34.55C105.205 34.7167 105.488 34.8 105.888 34.8H107.988V36H97.9879V34.8ZM128.928 4.9H128.628V30.4C128.628 31.6333 128.911 32.6167 129.478 33.35C130.078 34.05 130.845 34.4 131.778 34.4H133.578V36H121.678V34.4H123.478C124.411 34.4 125.161 34.05 125.728 33.35C126.328 32.6167 126.628 31.6333 126.628 30.4V3.35C126.628 2.88333 126.511 2.55 126.278 2.35C126.078 2.11667 125.745 2 125.278 2H121.678V0.399999H132.278L140.428 27.95L148.028 0.399999H158.378V2H154.778C154.311 2 153.961 2.11667 153.728 2.35C153.528 2.55 153.428 2.88333 153.428 3.35V33.05C153.428 33.95 153.878 34.4 154.778 34.4H158.378V36H143.878V34.4H147.478C148.378 34.4 148.828 33.95 148.828 33.05V3.55L139.678 36.6H138.478L128.928 4.9ZM166.773 36.6C165.006 36.6 163.473 36.1667 162.173 35.3C160.906 34.4333 160.273 32.9 160.273 30.7C160.273 29 160.706 27.6667 161.573 26.7C162.439 25.7333 163.439 25.05 164.573 24.65C165.739 24.2167 167.139 23.85 168.773 23.55L173.373 22.7V18.45C173.373 15.35 171.823 13.8 168.723 13.8C167.589 13.8 166.556 14.1 165.623 14.7C164.689 15.2667 164.223 15.9167 164.223 16.65C164.223 16.9833 164.273 17.2333 164.373 17.4C164.439 17.5 164.539 17.6 164.673 17.7C164.839 17.8 164.989 17.8667 165.123 17.9C165.723 18.0667 166.173 18.3 166.473 18.6C166.806 18.9 166.973 19.3167 166.973 19.85C166.973 20.55 166.756 21.05 166.323 21.35C165.923 21.65 165.406 21.8 164.773 21.8C164.039 21.8 163.373 21.5167 162.773 20.95C162.173 20.3833 161.873 19.5667 161.873 18.5C161.873 17.2667 162.206 16.2 162.873 15.3C163.573 14.4 164.456 13.7333 165.523 13.3C166.623 12.8333 167.739 12.6 168.873 12.6C171.073 12.6 172.973 13.1833 174.573 14.35C176.173 15.4833 176.973 17.2667 176.973 19.7V32C176.973 33.6667 177.489 34.5 178.523 34.5C179.356 34.5 179.956 34.0167 180.323 33.05C180.689 32.0833 180.873 30.9 180.873 29.5H181.773C181.773 31.5 181.473 33.1833 180.873 34.55C180.306 35.9167 179.273 36.6 177.773 36.6C176.339 36.6 175.256 36.1833 174.523 35.35C173.823 34.4833 173.439 33.3 173.373 31.8L173.123 31.7C172.623 32.8667 171.806 33.9833 170.673 35.05C169.573 36.0833 168.273 36.6 166.773 36.6ZM167.573 34.8C169.073 34.8 170.239 34.2167 171.073 33.05C171.939 31.85 172.706 30.3333 173.373 28.5V23.75L169.023 24.7C167.423 25.0333 166.256 25.7 165.523 26.7C164.823 27.6667 164.473 29.05 164.473 30.85C164.473 32.3833 164.789 33.4333 165.423 34C166.056 34.5333 166.773 34.8 167.573 34.8ZM182.08 34.8H184.18C184.58 34.8 184.863 34.7167 185.03 34.55C185.196 34.3833 185.28 34.1 185.28 33.7V15.5C185.28 15.1 185.196 14.8167 185.03 14.65C184.863 14.4833 184.58 14.4 184.18 14.4H182.08V13.2H188.88V18.2L189.08 18.25C189.78 16.5167 190.68 15.15 191.78 14.15C192.913 13.1167 194.113 12.6 195.38 12.6C196.646 12.6 197.68 12.9667 198.48 13.7C199.28 14.4333 199.68 15.4333 199.68 16.7C199.68 17.4333 199.413 18.15 198.88 18.85C198.38 19.55 197.73 19.9 196.93 19.9C196.296 19.9 195.763 19.7333 195.33 19.4C194.896 19.0667 194.68 18.6 194.68 18C194.68 17.3 195.013 16.7 195.68 16.2C195.98 16 196.196 15.8167 196.33 15.65C196.496 15.4833 196.58 15.2667 196.58 15C196.58 14.7 196.43 14.4667 196.13 14.3C195.863 14.1 195.48 14 194.98 14C193.946 14 192.946 14.5 191.98 15.5C191.046 16.5 190.296 17.8 189.73 19.4C189.163 21 188.88 22.6667 188.88 24.4V33.7C188.88 34.1 188.963 34.3833 189.13 34.55C189.296 34.7167 189.58 34.8 189.98 34.8H192.08V36H182.08V34.8ZM208.488 36.6C206.988 36.6 205.738 36.0667 204.738 35C203.771 33.9333 203.288 32.4833 203.288 30.65V14.6H199.588V13.2H200.688C202.188 13.2 203.354 12.4 204.188 10.8C205.054 9.16667 205.488 7.36666 205.488 5.4V3.6H206.888V13.2H213.088V14.6H206.888V30.9C206.888 31.9 207.088 32.7333 207.488 33.4C207.888 34.0667 208.571 34.4 209.538 34.4C211.904 34.4 213.088 32.4 213.088 28.4H213.988C213.988 30.6333 213.654 32.5667 212.988 34.2C212.354 35.8 210.854 36.6 208.488 36.6ZM218.518 10.05L223.118 3.4C223.551 2.8 223.951 2.38333 224.318 2.15C224.685 1.91667 225.101 1.8 225.568 1.8C226.001 1.8 226.335 1.95 226.568 2.25C226.835 2.51666 226.968 2.88333 226.968 3.35C226.968 4.11666 226.501 4.85 225.568 5.55L219.168 10.6L218.518 10.05ZM215.068 34.8H217.168C217.568 34.8 217.851 34.7167 218.018 34.55C218.185 34.3833 218.268 34.1 218.268 33.7V15.5C218.268 15.1 218.185 14.8167 218.018 14.65C217.851 14.4833 217.568 14.4 217.168 14.4H215.068V13.2H221.868V33.7C221.868 34.1 221.951 34.3833 222.118 34.55C222.285 34.7167 222.568 34.8 222.968 34.8H225.068V36H215.068V34.8ZM226.045 34.8H228.145C228.545 34.8 228.828 34.7167 228.995 34.55C229.161 34.3833 229.245 34.1 229.245 33.7V15.5C229.245 15.1 229.161 14.8167 228.995 14.65C228.828 14.4833 228.545 14.4 228.145 14.4H226.045V13.2H232.845V17.3L233.045 17.35C233.811 15.75 234.761 14.5667 235.895 13.8C237.028 13 238.278 12.6 239.645 12.6C242.078 12.6 243.795 13.35 244.795 14.85C245.828 16.35 246.345 18.15 246.345 20.25V33.7C246.345 34.1 246.428 34.3833 246.595 34.55C246.761 34.7167 247.045 34.8 247.445 34.8H249.545V36H239.545V34.8H241.645C242.045 34.8 242.328 34.7167 242.495 34.55C242.661 34.3833 242.745 34.1 242.745 33.7V19.3C242.745 17.8333 242.445 16.5833 241.845 15.55C241.278 14.5167 240.295 14 238.895 14C237.728 14 236.678 14.4167 235.745 15.25C234.845 16.05 234.128 17.1667 233.595 18.6C233.095 20 232.845 21.5667 232.845 23.3V33.7C232.845 34.1 232.928 34.3833 233.095 34.55C233.261 34.7167 233.545 34.8 233.945 34.8H236.045V36H226.045V34.8ZM261.346 36.6C258.246 36.6 255.746 35.55 253.846 33.45C251.98 31.35 251.046 28.4333 251.046 24.7C251.046 22.5667 251.463 20.5833 252.296 18.75C253.13 16.8833 254.28 15.4 255.746 14.3C257.246 13.1667 258.913 12.6 260.746 12.6C262.78 12.6 264.446 13.15 265.746 14.25C267.046 15.35 267.98 16.75 268.546 18.45C269.146 20.1167 269.446 21.8333 269.446 23.6C269.446 23.9667 269.33 24.2167 269.096 24.35C268.863 24.45 268.463 24.5 267.896 24.5H255.446C255.446 27.8333 255.913 30.4833 256.846 32.45C257.813 34.4167 259.38 35.4 261.546 35.4C263.08 35.4 264.513 34.8167 265.846 33.65C267.213 32.4833 268.08 30.6667 268.446 28.2H269.646C269.446 30.6333 268.596 32.65 267.096 34.25C265.63 35.8167 263.713 36.6 261.346 36.6ZM265.146 23.3C265.146 20.6333 264.796 18.3833 264.096 16.55C263.396 14.7167 262.246 13.8 260.646 13.8C258.946 13.8 257.646 14.7333 256.746 16.6C255.88 18.4333 255.446 20.6667 255.446 23.3H265.146ZM271.145 34.7L284.145 14.4H278.045C275.978 14.4 274.511 15.2333 273.645 16.9C273.145 17.9 272.761 18.95 272.495 20.05C272.261 21.1167 272.145 21.7667 272.145 22H271.145L271.445 13.2H288.245V14.8L275.295 34.8H281.645C282.711 34.8 283.611 34.5833 284.345 34.15C285.078 33.6833 285.645 33.0667 286.045 32.3C286.545 31.3 286.911 30.2667 287.145 29.2C287.411 28.1 287.545 27.4333 287.545 27.2H288.545L288.245 36H271.145V34.7Z" fill="#178A99"/>
<g clip-path="url(#clip0_351_1528)">
<path d="M4.87082 18.0995C5.08259 17.9032 4.53357 15.8084 6.51396 14.8799C8.86298 13.7777 9.9022 15.2611 10.6826 15.129C11.8826 14.9214 12.8042 11.3545 15.961 13.9287C18.6042 16.0839 18.2551 21.4965 17.2434 24.3727C13.7806 34.2543 -1.86643 26.2259 0.184549 19.6659C0.831608 17.5937 4.67082 18.2882 4.87082 18.1033V18.0995Z" fill="#178A99"/>
</g>
<g clip-path="url(#clip1_351_1528)">
<path d="M316.129 18.0995C315.917 17.9032 316.466 15.8084 314.486 14.8799C312.137 13.7777 311.098 15.2611 310.317 15.129C309.117 14.9214 308.196 11.3545 305.039 13.9287C302.396 16.0839 302.745 21.4965 303.757 24.3727C307.219 34.2543 322.866 26.2259 320.815 19.6659C320.168 17.5937 316.329 18.2882 316.129 18.1033V18.0995Z" fill="#178A99"/>
</g>
<g clip-path="url(#clip2_351_1528)">
<path d="M46 59.7449C119.355 58.7449 201.645 58.7449 275 59.7449C201.645 60.7449 119.355 60.7449 46 59.7449Z" fill="#55BDC3"/>
</g>
<defs>
<clipPath id="clip0_351_1528">
<rect width="18" height="16" fill="white" transform="translate(0 13)"/>
</clipPath>
<clipPath id="clip1_351_1528">
<rect width="18" height="16" fill="white" transform="matrix(-1 0 0 1 321 13)"/>
</clipPath>
<clipPath id="clip2_351_1528">
<rect width="229" height="1.5" fill="white" transform="translate(46 59)"/>
</clipPath>
</defs>
</svg>
