<svg width="15" height="18" viewBox="0 0 15 18" fill="none" xmlns="http://www.w3.org/2000/svg">
<g clip-path="url(#clip0_13_606)">
<path d="M11.1515 0C12.0038 1.60906 13.4123 3.1509 14.9957 4.06076V7.39542C13.6096 6.96066 12.4389 6.18526 11.3668 5.22161V13.0876C11.3668 13.5807 10.8824 14.7236 10.6267 15.1763C8.64401 18.6544 3.60663 18.9816 1.17541 15.7993C-1.69989 12.0388 1.01842 6.6245 5.70592 6.66932V9.53337L5.5848 9.63197C3.44964 9.69024 2.25645 12.0433 3.42721 13.8406C4.79533 15.9472 8.18199 15.1449 8.39282 12.6529C8.65298 9.63645 8.33451 6.02839 8.38833 2.93127C8.38833 2.7251 8.46459 2.54582 8.46907 2.35757C8.48253 1.59114 8.50944 0.744024 8.39282 0L11.1515 0Z" fill="#F4F4F4"/>
</g>
<defs>
<clipPath id="clip0_13_606">
<rect width="15" height="18" fill="white"/>
</clipPath>
</defs>
</svg>
