<svg width="1076" height="473" viewBox="0 0 1076 473" fill="none" xmlns="http://www.w3.org/2000/svg">
<path d="M407.858 434.065C402.047 435.749 401.911 445.345 408.495 447.852C421.93 452.961 422.903 429.71 407.858 434.065Z" fill="white" fill-opacity="0.45"/>
<g clip-path="url(#clip0_279_1591)">
<path d="M876.957 382.959C877.157 405.891 856.263 427.291 836.068 435.223C805.475 447.242 771.619 423.888 771.267 390.993C770.692 337.044 825.055 315.928 835.702 265.337C839.339 248.055 838.76 212.046 821.128 202.411C808.555 195.543 791.061 203.999 800.189 219.515C804.984 227.664 813.72 228.892 818.966 236.952C832.788 258.18 821.453 286.466 807.324 304.531C790.735 325.745 771.098 341.795 759.799 367.528C741.868 408.364 766.966 461.904 815.427 459.956C853.927 458.407 879.921 420.703 882.769 385.112C882.822 384.441 882.707 383.698 882.591 382.968H876.957V382.959Z" fill="#178A99"/>
<path d="M833.108 339.286C834.165 340.007 837.013 340.816 837.137 340.994C837.316 341.243 836.883 343.227 836.937 343.97C837.271 348.641 841.234 352.947 846.083 352.782C847.563 352.733 849.163 351.772 850.789 352.493C851.387 356.145 848.115 357.675 850.219 361.759C853.348 367.844 862.133 366.105 866.986 368.427C868.372 369.09 871.751 372.155 872.647 373.458C874.14 375.624 876.31 383.102 877.634 388.573C877.973 389.979 879.885 390.224 880.567 388.947C883.816 382.844 885.822 376.136 885.996 369.018C886.063 366.252 885.358 361.367 884.921 358.311C884.56 355.767 883.986 353.249 883.099 350.834C880.99 345.113 877.906 339.771 873.721 335.536C868.337 330.087 861.001 329.095 855.09 324.802C852.416 322.858 849.684 319.98 850.304 316.426C851.231 317.676 851.939 319.01 853.027 320.154C855.282 322.525 863.439 327.364 866.545 328.023C868.145 328.361 873.168 328.868 873.703 326.955C874.501 324.104 871.546 324.251 869.665 323.196C864.811 320.469 863.452 313.953 860.363 309.589C850.357 295.439 827.943 299.233 833.835 319.62C834.303 321.243 835.208 322.458 835.479 324.05C827.091 323.877 827.403 335.411 833.117 339.29L833.108 339.286ZM845.98 324.851C846.364 324.277 847.696 324.135 848.106 324.704C848.409 325.118 849.203 329.113 849.867 330.345C855.295 340.456 871.559 347.947 875.74 356.79C876.872 359.179 879.889 367.684 879.956 370.037C880.005 371.634 879.056 372.159 877.884 370.927C876.293 369.25 874.59 365.473 873.128 363.334C870.605 359.637 867.508 355.086 864.606 351.746C860.283 346.772 854.542 343.859 850.767 338.214C849.292 336.007 844.438 327.142 845.976 324.856L845.98 324.851Z" fill="#178A99"/>
</g>
<g clip-path="url(#clip1_279_1591)">
<path d="M314.39 297.478C315.168 297.623 316.018 297.894 316.892 298.237C316.143 297.836 315.211 297.609 314.39 297.478ZM308.718 311.082C309.966 310.617 311.278 310.289 312.507 309.781C312.545 309.767 312.579 309.752 312.617 309.733C310.586 310.245 309.001 310.946 308.718 311.082Z" fill="#178A99"/>
<path d="M302.863 313.948C303.473 313.532 304.107 313.17 304.727 312.836C305.606 312.372 306.513 311.961 307.435 311.584C305.778 312.111 304.222 312.919 302.863 313.948Z" fill="#178A99"/>
<path d="M406.234 314.402C384.253 314.605 379.801 344.722 371.79 360.592C364.591 374.863 346.399 396.674 329.623 381.103C314.668 367.215 337.269 345.495 337.231 330.007C337.226 328.89 337.11 327.725 336.899 326.522C336.539 322.727 335.401 317.912 332.596 312.42C329.301 305.957 323.735 300.944 317.021 298.29C316.978 298.271 316.935 298.257 316.892 298.237C316.018 297.894 315.167 297.623 314.389 297.478C312.944 297.241 311.417 297.135 309.952 297.203C307.536 297.309 305.14 298.334 302.743 298.02C301.869 297.908 301.811 297.338 301.879 296.966C301.941 296.598 301.994 296.226 301.97 295.859C301.47 288.54 290.689 288.385 286.568 293.674C285.766 294.708 284.738 297.57 284.551 297.686C284.282 297.855 282.289 297.27 281.53 297.275C276.737 297.29 272.074 301.06 271.906 306.039C271.853 307.562 272.722 309.269 271.877 310.888C268.112 311.246 266.772 307.785 262.459 309.655C256.038 312.445 257.205 321.571 254.501 326.381C253.728 327.754 250.366 331.003 248.978 331.834C246.663 333.217 238.883 334.923 233.211 335.895C233.134 335.909 233.067 335.934 233 335.958C233 335.977 233.005 336.001 233.01 336.025C233.029 336.141 233.053 336.257 233.086 336.373C233.096 336.427 233.158 336.615 233.163 336.635C233.231 336.804 233.298 336.973 233.379 337.137C233.423 337.224 233.471 337.311 233.519 337.398C233.547 337.451 233.581 337.505 233.61 337.553C233.62 337.567 233.624 337.577 233.629 337.587C233.898 337.974 234.201 338.336 234.537 338.67C234.594 338.728 234.657 338.786 234.715 338.844C234.715 338.844 234.911 339.013 234.95 339.047C235.094 339.168 235.248 339.288 235.396 339.4C235.8 339.699 236.218 339.965 236.645 340.221C236.842 340.342 237.092 340.487 237.337 340.613C237.351 340.623 237.428 340.661 237.462 340.681C237.51 340.705 237.558 340.729 237.61 340.753C237.889 340.893 238.168 341.024 238.451 341.15C240.886 342.237 243.479 342.962 246.077 343.552C246.226 343.586 246.375 343.615 246.524 343.649C246.563 343.658 246.788 343.707 246.841 343.716C247.187 343.789 247.533 343.861 247.883 343.929C248.556 344.06 249.228 344.181 249.9 344.297C251.139 344.509 252.383 344.693 253.627 344.862C255.601 345.123 257.584 345.321 259.568 345.534C259.755 345.558 262.814 345.524 263.905 345.442C266.311 345.268 268.698 344.877 271.017 344.21C277.121 342.455 282.908 339.636 287.601 335.566C293.172 330.737 294.853 323.868 298.997 318.279C299.093 318.043 299.199 317.815 299.319 317.593C300.116 316.09 301.432 314.9 302.863 313.948C304.222 312.918 305.778 312.111 307.435 311.584C308.905 311.11 310.456 310.854 312.027 310.854C319.61 310.854 325.81 316.839 326.213 324.37C325.738 338.133 314.37 355.691 311.1 365.185C300.524 395.838 327.673 411.989 354.419 398.555C378.091 386.658 380.809 367.66 392.105 346.921C395.222 341.198 400.553 329.475 408.333 335.141C414.034 339.293 413.001 354.806 411.147 360.969C402.238 390.641 363.208 411.331 342.662 434.491C332.894 445.499 322.948 458.754 318.582 473H338.186C347.215 453.47 363.914 437.324 379.527 422.972C397.085 406.835 416.003 396.065 426.573 373.084C435.828 352.95 435.736 314.127 406.234 314.402ZM294.536 311.478C283.845 316.341 275.08 332.492 265.773 336.166C263.251 337.157 254.372 339.661 251.961 339.569C250.328 339.506 249.862 338.5 251.197 337.384C253.017 335.871 256.994 334.382 259.275 333.033C263.223 330.708 268.078 327.851 271.69 325.105C277.059 321.015 280.426 315.335 286.448 311.86C288.801 310.501 298.181 306.136 300.414 307.876C300.971 308.307 301.024 309.684 300.414 310.066C299.972 310.347 295.842 310.883 294.536 311.478ZM312.507 309.781C311.277 310.289 309.966 310.617 308.718 311.081C309.001 310.946 310.586 310.245 312.617 309.733C312.579 309.752 312.545 309.767 312.507 309.781Z" fill="#178A99"/>
<g clip-path="url(#clip2_279_1591)">
<path d="M288.061 413.31C277.416 415.732 278.372 437.519 293.899 433.507C303.791 430.953 301.527 410.242 288.061 413.31Z" fill="#1C99A3"/>
</g>
</g>
<g clip-path="url(#clip3_279_1591)">
<path d="M259.572 412.261C267.294 377.679 242.869 344.926 205.969 354.778C187.583 359.688 171.951 378.81 167.269 396.816C167.243 396.908 167.223 397 167.197 397.097C166.866 398.518 166.412 399.903 165.826 401.238C164.132 405.109 163.112 409.265 163 413.626C162.949 415.704 163.479 419.382 163.811 421.679C164.081 423.594 164.515 425.489 165.178 427.308C166.764 431.612 169.085 435.631 172.231 438.814C176.281 442.91 181.794 443.658 186.242 446.888C188.251 448.35 190.306 450.52 189.837 453.194C189.144 452.246 188.608 451.248 187.792 450.387C186.094 448.599 179.963 444.962 177.627 444.468C176.424 444.214 172.65 443.832 172.247 445.273C171.65 447.418 173.868 447.306 175.281 448.1C178.933 450.153 179.958 455.058 182.279 458.339C189.796 468.985 206.652 466.132 202.226 450.79C201.874 449.572 201.19 448.655 200.986 447.458C207.295 447.591 207.06 438.911 202.761 435.992C201.97 435.452 199.828 434.841 199.732 434.709C199.599 434.515 199.925 433.023 199.885 432.467C199.635 428.953 196.656 425.718 193.004 425.841C191.898 425.876 190.694 426.599 189.465 426.06C189.021 423.309 191.474 422.158 189.898 419.086C187.542 414.507 180.937 415.816 177.291 414.064C176.25 413.57 173.71 411.262 173.032 410.279C172.369 409.311 171.517 406.927 170.732 404.289C170.298 402.822 170.247 401.263 170.63 399.781C170.64 399.735 170.655 399.689 170.666 399.654C175.674 381.938 200.762 364.868 218.99 368.852C245.786 374.715 253.666 400.071 244.098 423.89C244.042 424.027 243.955 424.221 243.838 424.46C240.905 430.45 239.365 437.037 239.452 443.699C239.635 458.517 243.879 472 243.879 472H256.716C252.61 464.629 251.106 457.254 250.636 450.851C250.035 442.655 252.549 429.87 255.961 422.392C257.649 418.694 258.991 414.889 259.577 412.261H259.572ZM185.42 435.819C185.645 435.514 186.043 435.356 186.456 435.631C186.961 435.962 187.435 436.323 187.904 436.7C188.96 437.475 189.965 438.315 190.908 439.222C193.489 441.697 195.713 444.657 196.977 448.019C198.222 451.325 198.237 454.911 196.697 458.125C196.595 458.334 196.396 458.461 196.177 458.507C195.692 458.751 194.927 458.517 194.891 457.799C194.805 456.23 195.126 454.681 195.31 453.128C195.463 451.814 195.524 450.494 195.106 449.221C194.713 448.008 194.096 446.873 193.423 445.793C192.219 443.852 190.776 442.079 189.378 440.281C188.644 439.538 187.889 438.819 187.083 438.162C186.593 437.796 186.094 437.444 185.579 437.113C185.068 436.782 185.114 436.176 185.42 435.819Z" fill="#1C99A3"/>
</g>
<g clip-path="url(#clip4_279_1591)">
<path d="M715.806 346.797C718.191 347.657 721.218 347.968 723.36 349.039C724.356 349.535 724.706 349.846 724.581 350.265C725.132 350.667 725.671 351.09 726.193 351.53C727.081 352.027 727.845 352.718 728.526 353.478C728.556 353.452 728.586 353.431 728.616 353.405C734.213 358.691 741.625 365.294 749.976 362.754C752.925 361.856 756.271 358.375 756.767 355.288C757.841 348.572 754.956 345.67 753.357 339.987C751.136 332.097 752.736 324.867 746.225 318.459C738.572 310.927 730.651 312.102 721.722 316.429C716.505 318.955 716.082 319.029 710.434 320.527C706.726 321.512 700.086 323.978 699.495 328.318C698.202 337.763 708.227 344.055 715.811 346.789L715.806 346.797ZM746.324 345.169C747.419 345.938 749.851 346.262 750.593 347.203C751.533 348.395 750.114 351.414 749.079 352.187C744.901 355.314 737.14 346.378 736.679 342.479C736.407 340.186 736.563 338.834 739.137 338.881C742.478 338.942 744.013 343.541 746.329 345.169H746.324ZM729.901 316.019C732.592 314.965 740.387 315.172 740.999 318.886C741.099 319.499 740.995 320.596 740.542 321.015C739.266 322.203 735.743 320.342 733.799 320.579C731.065 320.912 727.625 324.79 725.417 323.412C721.89 321.218 727.788 316.839 729.901 316.014V316.019ZM703.208 330.097C704.079 329.985 706.278 333.483 706.924 334.118C713.068 340.173 722.877 337.517 729.824 341.645C735.01 344.729 735.825 352.334 742.845 355.283C744.38 355.927 748.545 355.94 747.657 357.676C745.552 361.77 736.985 357.266 734.605 355.054C732.816 353.387 731.41 350.9 729.487 349.173C722.636 343.019 706.597 342.833 702.522 334.437C701.927 333.211 701.289 330.348 703.208 330.097Z" fill="#1C99A3"/>
<path d="M656.198 402.175C648.502 376.626 690.053 351.073 711.607 349.751C717.182 349.41 722.804 350.991 728.215 351.872C726.43 350.498 724.732 349.026 722.865 347.773C720.704 346.322 718.376 345.333 715.85 344.975C694.485 344.474 679.261 347.877 660.234 366.11C648.247 377.593 634.868 403.367 649.217 417.549C665.537 433.679 686.414 411.343 702.345 421.492C715.716 430.008 711.038 450.189 704.769 461.775C704.1 463.011 700.642 467.8 698.732 471.004H708.679C710.576 468.301 713.133 464.311 713.814 463.218C721.748 450.469 732.048 426.791 722.196 413.036C705.618 389.884 665.757 433.916 656.198 402.175Z" fill="#1C99A3"/>
</g>
<path d="M612.407 401.001C595.942 400.848 594.647 420.665 608.498 425.217C626.7 431.192 632.225 401.188 612.407 401.001Z" fill="#1C99A3"/>
<path d="M1023.84 354.574C1007.31 357.893 1010.92 385.869 1026.32 386.947C1050.66 388.649 1052.62 348.791 1023.84 354.574Z" fill="#1C99A3"/>
<path d="M1051.78 402.348C1041.45 404.359 1043.7 421.314 1053.33 421.968C1068.54 422.999 1069.76 398.843 1051.78 402.348Z" fill="#1C99A3"/>
<g clip-path="url(#clip5_279_1591)">
<path d="M931.584 333.641C930.933 333.724 928.237 329.699 926.988 328.764C922.031 325.032 913.418 320.115 909.22 327.297C939.251 350.606 954.62 407.454 925.965 437.103C921.766 441.449 913.83 446.314 908.054 448.056C905.443 448.845 891.282 449.018 893.392 453.056C895.5 457.08 908.683 455.127 912.503 454.139C915.491 453.366 918.61 451.066 921.549 450.375C925.557 449.427 930.984 450.069 935.496 448.953C947.426 446.002 968.299 435.652 975.268 425.495C981.732 416.065 961.811 420.677 958.703 417.095C967.665 415.401 979.407 415.625 983.309 405.682C986.528 397.482 987.278 368.394 981.239 361.848C977.817 358.138 971.411 360.074 968.248 363.03C962.837 368.085 962.726 376.759 957.001 380.321C961.855 368.165 968.296 357.851 958.492 346.315C954.225 341.292 942.503 332.864 936.318 331.23C933.129 330.393 932.172 333.563 931.583 333.634L931.584 333.641Z" fill="#178A99"/>
</g>
<path d="M59.9675 305.585C50.0409 307.792 55.4509 323.856 65.3825 317.871C70.7523 314.634 68.2782 303.743 59.9675 305.585Z" fill="#1C99A3"/>
<path d="M907.733 238.235C908.019 236.735 910.53 232.596 907.948 232.319C904.547 231.951 902.621 241.338 902.38 243.771C901.607 251.513 899.442 258.998 899.767 266.695C899.976 271.624 900.54 276.751 902.532 281.264C907.851 293.324 909.874 280.562 913.479 275.322C914.591 277.607 912.84 279.146 912.434 281.033C911.716 284.387 911.031 287.961 912.205 291.244C913.389 294.556 924.314 299.166 927.968 300.22C931.527 301.245 942.176 303.887 943.523 299.225C945.735 291.569 935.584 287.916 933.278 281.479C936.347 283.208 938.086 286.281 940.957 288.545C949.23 295.078 955.551 293.485 964.173 287.479C964.986 286.913 970.372 282.49 970.534 282.119C971.22 280.553 969.552 279.095 969.679 278.972C973.673 278.393 980.247 274.155 980.276 269.929C980.307 265.421 975.563 269.543 973.559 270.351C947.357 280.927 901.336 271.743 907.738 238.24L907.733 238.235Z" fill="#1C99A3"/>
<path d="M10.9983 206.546C10.3833 205.526 9.688 201.814 8.04302 202.997C5.87548 204.553 9.64319 211.011 10.77 212.55C14.351 217.45 16.9893 222.927 21.1855 227.23C23.8727 229.985 26.8696 232.67 30.3765 234.255C39.7451 238.494 34.2774 230.026 33.6438 225.104C35.4796 225.853 35.2631 227.659 36.0098 228.966C37.3382 231.289 38.8012 233.723 41.1926 235.019C43.6046 236.327 52.3525 233.318 55.0239 232.028C57.6256 230.771 65.1882 226.762 63.5445 223.352C60.8438 217.752 53.0445 220.914 48.3532 218.374C51.036 217.781 53.6463 218.662 56.4935 218.483C64.7016 217.972 67.5453 213.756 69.4278 205.777C69.606 205.025 70.4327 199.651 70.3339 199.351C69.9172 198.084 68.1888 198.105 68.1985 197.968C70.2178 195.553 71.8315 189.667 69.6485 187.197C67.3191 184.562 66.709 189.426 65.9652 190.939C56.2462 210.725 24.725 229.346 11.0037 206.547L10.9983 206.546Z" fill="#1C99A3"/>
<path d="M697.189 367.264C695.177 367.702 692.417 370.278 691.373 372.007C684.698 383.022 700.436 393.987 707.542 381.805C711.527 374.978 705.299 365.505 697.189 367.264Z" fill="white" fill-opacity="0.45"/>
<path d="M257.695 155.654C274.748 161.166 277.835 132.118 258.107 135.674C247.949 137.507 247.954 152.506 257.695 155.654Z" fill="#1C99A3"/>
<path d="M33.2569 285.283C50.3098 290.795 53.3962 261.746 33.6684 265.303C23.511 267.135 23.516 282.135 33.2569 285.283Z" fill="#1C99A3"/>
<path d="M143.102 219.842C144.944 220.033 150.081 222.531 150.338 219.551C150.68 215.626 139.148 214.273 136.167 214.219C126.683 214.037 117.468 212.238 108.073 213.309C102.057 213.996 95.8096 215.107 90.3585 217.796C75.7904 224.977 91.4484 226.135 97.9656 229.784C95.2093 231.264 93.2733 229.4 90.9546 229.107C86.8334 228.589 82.4438 228.13 78.4698 229.772C74.4602 231.427 69.1734 244.348 68.0015 248.624C66.8615 252.79 63.9714 265.216 69.7105 266.335C79.1362 268.171 83.2772 256.224 91.0704 253C89.0552 256.668 85.3553 258.938 82.6792 262.429C74.9586 272.489 77.1053 279.579 84.718 288.899C85.4352 289.779 91.0106 295.54 91.4692 295.693C93.4046 296.336 95.1338 294.294 95.2875 294.428C96.1214 298.946 101.509 306.085 106.673 305.734C112.183 305.36 106.996 300.306 105.945 298.086C92.1907 269.061 101.954 215.563 143.096 219.848L143.102 219.842Z" fill="white" fill-opacity="0.45"/>
<path d="M155.719 57.2923C166.524 54.5732 163.859 34.7117 149.05 37.7215C137.598 40.0515 139.033 61.4942 155.719 57.2923Z" fill="white" fill-opacity="0.45"/>
<path d="M192.45 115.025C183.136 119.527 193.68 132.098 200.43 125.886C205.398 121.31 200.876 110.951 192.45 115.025Z" fill="white" fill-opacity="0.45"/>
<path d="M131.385 102.345C139.073 104.749 140.518 89.6214 129.944 92.7346C126.175 93.843 126.145 100.71 131.385 102.345Z" fill="#1C99A3"/>
<g clip-path="url(#clip6_279_1591)">
<path d="M705.833 46.6092C723.593 48.0345 726.787 69.2254 712.639 78.1766C709.718 80.0252 703.175 80.3949 702.488 82.7008C700.838 88.2126 703.384 91.7493 708.861 92.2358C733.754 94.4492 753.535 65.3044 772.43 52.9577C792.181 40.0515 824.387 33.45 844.767 47.6259C845.687 48.2632 846.422 49.1632 847.644 48.9442C848.744 47.8399 842.819 41.5255 842.074 40.2314C835.906 29.5095 834.84 11.5537 845.716 3.38087C861.622 -8.56699 879.849 14.0882 867.698 25.3453C861.948 30.6722 848.822 26.2453 850.049 39.2098C851.208 51.4107 863.851 59.9727 871.232 68.2525C897.771 98.0151 900.19 137.045 888.618 174.076C889.202 174.694 894.966 171.634 897.702 169.79C899.158 171.293 900.662 172.748 902.196 174.163C900.366 175.584 898.068 177.705 896.592 178.571C893.905 180.152 887.22 182.696 885.502 184.481C883.564 186.495 883.16 190.485 881.802 193.141C879.723 197.203 873.399 205.736 870.385 209.54C854.772 229.281 827.921 244.342 805.497 225.068C782.006 204.879 808.072 179.646 825.619 191.832C831.028 195.588 830.414 202.369 838.043 203.352C845.692 204.335 853.511 200.924 859.246 196.094C860.03 195.432 865.536 190.28 864.645 189.521C841.364 188.855 821.495 174.533 815.56 151.678C813.856 145.111 809.329 124.669 820.327 124.09C830.56 123.55 827.732 137.206 828.671 143.214C831.948 164.2 849.737 182.803 872.259 179.349C884.387 153.756 884.684 116.579 871.237 91.4136C863.871 77.6269 845.39 62.1715 831.179 55.75C777.41 31.4603 752.863 108.766 702.04 103.692C663.214 99.8151 667.727 43.5395 705.838 46.6043L705.833 46.6092Z" fill="#178A99"/>
<path d="M925.278 110.605C924.917 111.953 925.107 115.178 924.966 115.373C924.771 115.645 922.566 115.918 921.821 116.239C917.118 118.267 914.095 123.906 916.018 128.843C916.602 130.346 918.17 131.65 918.014 133.586C914.455 135.518 911.694 132.701 908.233 136.345C903.077 141.769 908.043 150.19 907.391 156.028C907.206 157.691 905.253 162.284 904.236 163.68C902.537 166 895.594 170.938 890.419 174.275C889.09 175.131 889.528 177.194 891.091 177.433C898.569 178.576 906.222 178.221 913.637 175.832C916.519 174.903 921.31 172.412 924.314 170.86C926.811 169.566 929.207 168.068 931.378 166.282C936.529 162.045 940.935 156.937 943.798 151.095C947.483 143.579 945.867 135.664 948.17 128.021C949.211 124.562 951.203 120.709 955.097 120.067C954.138 121.473 953.019 122.689 952.23 124.217C950.594 127.398 948.535 137.546 948.978 140.981C949.207 142.752 950.492 148.113 952.663 147.972C955.896 147.762 954.679 144.77 955.093 142.455C956.159 136.471 962.4 132.716 965.799 127.958C976.806 112.541 964.805 90.8154 945.867 104.247C944.357 105.317 943.432 106.684 941.879 107.54C939.036 98.8325 927.23 103.323 925.282 110.61L925.278 110.605ZM944.835 118.656C945.565 118.846 946.193 120.165 945.755 120.797C945.433 121.259 941.597 123.521 940.56 124.645C932.069 133.888 930.2 153.352 922.571 160.849C920.506 162.877 912.814 169.055 910.404 169.98C908.768 170.607 907.887 169.819 908.739 168.165C909.898 165.922 913.184 162.799 914.869 160.523C917.775 156.592 921.358 151.756 923.763 147.558C927.342 141.307 928.281 134.34 932.756 128.415C934.504 126.1 941.909 117.898 944.83 118.656H944.835Z" fill="#178A99"/>
</g>
<g clip-path="url(#clip7_279_1591)">
<path d="M30.1817 127.414C14.992 114.69 20.2115 96.3989 21.7641 93.1128C25.6311 84.9293 32.5742 78.3767 39.859 73.2247C43.5551 70.6095 47.4855 68.3126 51.5771 66.3733C55.3221 64.6005 59.2525 63.0431 63.2904 62.093C67.1818 61.1821 75.5896 60.1635 75.9167 60.1047C78.5192 59.6395 80.9702 58.518 82.9232 56.7157C86.3459 53.5521 87.8156 48.7918 86.5412 44.2716C85.5745 40.8533 82.7426 38.7327 79.6714 37.1901C75.0232 35.7502 70.585 35.7502 64.4769 36.4457C30.2501 40.3586 -8.25878 95.5369 15.1922 127.757C24.0004 139.858 45.5325 140.171 50.7422 148.271C55.5125 155.691 51.7627 166.049 44.0433 169.781C35.8162 173.757 27.4572 168.111 19.4938 169.359C4.6898 171.681 7.82929 198.484 28.9074 196.936C53.2518 195.149 78.6363 165.442 60.3462 142.963C52.0068 132.713 39.2975 135.054 30.1817 127.419V127.414Z" fill="#1C99A3"/>
</g>
<path d="M792.54 155.654C775.488 161.166 772.401 132.118 792.129 135.674C802.286 137.507 802.281 152.506 792.54 155.654Z" fill="#1C99A3"/>
<path d="M960.448 240.282C958.24 241.361 952.981 246.819 951.3 243.223C949.082 238.489 962.832 231.539 966.521 230.11C978.254 225.554 988.913 219.105 1001.11 216.15C1008.92 214.258 1017.21 212.79 1025.23 213.652C1046.66 215.948 1027.68 224.539 1021.22 232.061C1025.33 232.647 1026.89 229.44 1029.65 228.016C1034.55 225.489 1039.81 222.913 1045.51 223.145C1051.26 223.376 1063.74 237.061 1067.16 241.854C1070.48 246.523 1079.75 260.685 1073.11 264.7C1062.21 271.291 1051.59 258.296 1040.41 257.838C1044.6 261.488 1050.24 262.626 1055.17 265.754C1069.39 274.764 1069.95 284.576 1064.72 299.665C1064.23 301.088 1059.91 310.812 1059.41 311.211C1057.29 312.896 1054.2 311.142 1054.07 311.378C1055.1 317.388 1051.64 328.742 1045.05 330.664C1038.01 332.713 1042.17 324.048 1042.47 320.802C1046.35 278.36 1009.76 216.165 960.459 240.287L960.448 240.282Z" fill="white" fill-opacity="0.45"/>
<path d="M894.516 57.2923C883.712 54.5732 886.376 34.7117 901.186 37.7215C912.638 40.0515 911.203 61.4942 894.516 57.2923Z" fill="white" fill-opacity="0.45"/>
<path d="M857.786 115.025C867.101 119.527 856.557 132.098 849.807 125.886C844.838 121.31 849.36 110.951 857.786 115.025Z" fill="white" fill-opacity="0.45"/>
<path d="M661.786 323.025C671.101 327.527 660.557 340.098 653.807 333.886C648.838 329.31 653.36 318.951 661.786 323.025Z" fill="white" fill-opacity="0.45"/>
<path d="M918.851 102.345C911.163 104.749 909.717 89.6214 920.291 92.7346C924.06 93.843 924.091 100.71 918.851 102.345Z" fill="#1C99A3"/>
<g clip-path="url(#clip8_279_1591)">
<path d="M1016.26 127.55C1031.83 114.668 1026.48 96.1495 1024.89 92.8225C1020.92 84.5374 1013.8 77.9034 1006.33 72.6874C1002.54 70.0397 998.515 67.7143 994.32 65.7509C990.48 63.956 986.45 62.3793 982.31 61.4175C978.32 60.4952 969.699 59.4639 969.364 59.4044C966.696 58.9334 964.182 57.798 962.18 55.9734C958.661 52.7754 957.159 47.961 958.465 43.3796C959.457 39.9188 962.36 37.7719 965.509 36.2101C970.275 34.7574 974.831 34.7574 981.088 35.4614C1016.19 39.4131 1055.67 95.2768 1031.63 127.902C1022.59 140.153 1000.52 140.471 995.176 148.671C990.285 156.183 994.129 166.67 1002.04 170.448C1010.48 174.474 1019.05 168.757 1027.22 170.021C1042.39 172.372 1039.18 199.508 1017.56 197.941C992.603 196.131 966.575 166.055 985.329 143.297C993.879 132.919 1006.91 135.289 1016.26 127.56V127.55Z" fill="#1C99A3"/>
</g>
<g clip-path="url(#clip9_279_1591)">
<path d="M220 296.499C220 307.727 215.952 318.571 208.6 327.033C205.246 330.899 201.306 334.144 196.968 336.683C197.032 336.718 197.096 336.752 197.16 336.787C194.023 338.508 190.595 339.952 186.892 341.077C186.892 341.077 186.882 341.077 186.877 341.077C184.449 341.816 181.908 342.418 179.234 342.867C150.529 347.675 121.454 330.164 95.1369 336.989C64.437 344.958 59.2711 395.981 86.1151 411.149C101.879 420.055 119.809 406.608 123.769 391.035C126.27 381.197 121.533 370.028 132.022 364.648C141.561 359.756 152.395 368.11 152.632 377.938C153.006 393.54 142.319 408.393 129.732 416.514C78.2997 449.687 31.3684 363.726 81.2397 331.456C115.54 309.261 147.766 339.509 178.983 333.083C181.229 332.625 183.469 331.969 185.705 331.096C185.74 331.081 185.769 331.071 185.804 331.057H185.809C191.693 328.956 197.002 325.356 201.168 320.558C206.96 313.891 210.151 305.345 210.151 296.499C210.151 289.314 208.117 282.455 204.241 276.513C201.922 274.358 199.263 272.666 196.431 271.764L190.802 271.443C188.005 271.29 185.213 271.872 182.755 273.214C175.418 277.232 164.396 278.727 157.783 274.136C154.178 271.636 151.331 266.497 151.908 262.104C147.244 263.825 150.795 268.194 151.469 271.808C152.833 279.092 151.056 296.666 145.634 301.923C137.139 310.163 130.082 307.278 126.132 296.676C122.956 288.155 127.048 270.176 131.741 262.537C140.96 247.527 157.492 241.535 173.793 243.296C180.584 244.026 187.104 246.442 192.92 250.066C195.471 251.669 197.908 253.464 200.124 255.515C202.7 257.887 205.709 260.688 207.895 263.726C209.644 266.157 211.288 268.174 212.643 270.625C212.544 270.718 212.451 270.812 212.352 270.906C217.365 278.5 220 287.292 220 296.499Z" fill="#178A99"/>
</g>
<g clip-path="url(#clip10_279_1591)">
<path d="M346.745 48.2069C328.743 49.6505 325.506 71.1131 339.846 80.179C342.807 82.0513 349.439 82.4258 350.135 84.7612C351.807 90.3437 349.227 93.9257 343.675 94.4184C318.445 96.6603 298.396 67.1418 279.245 54.6368C259.225 41.5651 226.583 34.879 205.927 49.2366C204.994 49.8821 204.249 50.7936 203.011 50.5719C201.895 49.4534 207.901 43.058 208.656 41.7474C214.908 30.888 215.988 12.7019 204.965 4.42436C188.843 -7.67668 170.368 15.269 182.685 26.6704C188.513 32.0656 201.816 27.5819 200.573 40.7127C199.398 53.0699 186.583 61.7417 179.103 70.1277C152.204 100.272 149.752 139.802 161.481 177.308C160.889 177.933 155.047 174.834 152.273 172.967C150.798 174.489 149.273 175.962 147.719 177.396C149.574 178.835 151.903 180.983 153.398 181.86C156.122 183.462 162.897 186.038 164.639 187.847C166.603 189.887 167.013 193.927 168.39 196.617C170.497 200.731 176.907 209.373 179.961 213.226C195.786 233.221 223 248.475 245.729 228.954C269.538 208.506 243.119 182.949 225.334 195.292C219.852 199.095 220.474 205.964 212.741 206.959C204.989 207.954 197.064 204.5 191.251 199.608C190.457 198.938 184.876 193.72 185.779 192.951C209.376 192.276 229.514 177.771 235.529 154.623C237.256 147.971 241.846 127.268 230.698 126.681C220.326 126.134 223.193 139.965 222.241 146.05C218.92 167.306 200.889 186.147 178.061 182.649C165.769 156.727 165.468 119.074 179.098 93.5857C186.564 79.6223 205.295 63.9688 219.699 57.4649C274.197 32.8638 299.077 111.161 350.589 106.022C389.942 102.095 385.367 45.0978 346.74 48.2019L346.745 48.2069Z" fill="#178A99"/>
<path d="M107.502 109.914C105.933 109.047 104.99 107.663 103.461 106.579C84.2652 92.9748 72.1015 114.979 83.2586 130.593C86.7029 135.412 93.029 139.216 94.1097 145.276C94.5291 147.627 93.2905 150.652 96.572 150.864C98.7728 151.007 100.08 145.582 100.307 143.783C100.752 140.305 98.6692 130.027 97.0112 126.804C96.2118 125.252 95.0768 124.021 94.1047 122.602C98.0524 123.252 100.071 127.159 101.127 130.657C103.461 138.398 101.822 146.414 105.558 154.027C108.459 159.944 112.925 165.118 118.146 169.409C120.347 171.218 122.775 172.74 125.306 174.046C128.351 175.618 133.206 178.145 136.127 179.081C143.643 181.501 151.4 181.86 158.979 180.702C160.563 180.461 161.008 178.377 159.66 177.505C154.42 174.125 147.378 169.129 145.656 166.773C144.62 165.359 142.646 160.713 142.459 159.023C141.797 153.11 146.831 144.577 141.605 139.088C138.096 135.402 135.298 138.255 131.691 136.294C131.533 134.333 133.122 133.013 133.714 131.49C135.659 126.489 132.599 120.779 127.832 118.724C127.077 118.399 124.842 118.123 124.645 117.847C124.502 117.65 124.694 114.383 124.329 113.018C122.355 105.638 110.389 101.09 107.507 109.909L107.502 109.914ZM116.745 131.062C121.279 137.063 122.227 144.118 125.859 150.45C128.296 154.702 131.928 159.599 134.874 163.581C136.581 165.886 139.912 169.05 141.087 171.321C141.95 172.991 141.057 173.79 139.399 173.159C136.956 172.223 129.16 165.965 127.068 163.911C119.335 156.318 117.44 136.605 108.834 127.243C107.788 126.1 103.895 123.809 103.569 123.346C103.125 122.71 103.762 121.37 104.502 121.178C107.463 120.409 114.968 128.716 116.74 131.062H116.745Z" fill="#178A99"/>
</g>
<defs>
<clipPath id="clip0_279_1591">
<rect width="132" height="260" fill="white" transform="translate(754 200)"/>
</clipPath>
<clipPath id="clip1_279_1591">
<rect width="199" height="183" fill="white" transform="translate(233 290)"/>
</clipPath>
<clipPath id="clip2_279_1591">
<rect width="19" height="21" fill="white" transform="translate(281 413)"/>
</clipPath>
<clipPath id="clip3_279_1591">
<rect width="98" height="119" fill="white" transform="translate(163 353)"/>
</clipPath>
<clipPath id="clip4_279_1591">
<rect width="114" height="158" fill="white" transform="translate(643 313)"/>
</clipPath>
<clipPath id="clip5_279_1591">
<rect width="106.067" height="127.459" fill="white" transform="translate(868.605 333.081) rotate(-11.6338)"/>
</clipPath>
<clipPath id="clip6_279_1591">
<rect width="295" height="234" fill="white" transform="translate(675)"/>
</clipPath>
<clipPath id="clip7_279_1591">
<rect width="79" height="161" fill="white" transform="translate(8 36)"/>
</clipPath>
<clipPath id="clip8_279_1591">
<rect width="81" height="163" fill="white" transform="translate(958 35)"/>
</clipPath>
<clipPath id="clip9_279_1591">
<rect width="160" height="181" fill="white" transform="translate(60 243)"/>
</clipPath>
<clipPath id="clip10_279_1591">
<rect width="299" height="237" fill="white" transform="translate(79 1)"/>
</clipPath>
</defs>
</svg>
