<svg width="337" height="464" viewBox="0 0 337 464" fill="none" xmlns="http://www.w3.org/2000/svg">
<path d="M11.7552 11.4208L9.57168 6.85974L14.1449 9.01292L15.825 4.24561L17.5354 9.00685L22.0904 6.82335L19.9372 11.3905L24.7046 13.0706L19.9433 14.781L22.1268 19.336L17.5597 17.1828L15.8796 21.9502L14.1692 17.195L9.61414 19.3785L11.7673 14.8053L7 13.1252L11.7552 11.4208Z" fill="#E45E4A"/>
<path d="M319.347 11.4208L317.164 6.85974L321.737 9.01292L323.411 4.24561L325.121 9.00685L329.682 6.82335L327.523 11.3905L332.29 13.0706L327.535 14.781L329.719 19.336L325.146 17.1828L323.466 21.9502L321.761 17.195L317.2 19.3785L319.359 14.8053L314.586 13.1252L319.347 11.4208Z" fill="#E45E4A"/>
<path d="M12.0405 452.634L9.85704 448.079L14.4303 450.233L16.1043 445.465L17.8147 450.227L22.3758 448.037L20.2165 452.61L24.9839 454.29L20.2287 456.001L22.4122 460.556L17.839 458.403L16.1589 463.17L14.4545 458.415L9.89343 460.598L12.0527 456.025L7.2793 454.345L12.0405 452.634Z" fill="#E45E4A"/>
<path d="M317.367 452.634L315.183 448.079L319.75 450.233L321.43 445.465L323.141 450.227L327.696 448.037L325.543 452.61L330.31 454.29L325.555 456.001L327.738 460.556L323.165 458.403L321.485 463.17L319.775 458.415L315.22 460.598L317.373 456.025L312.605 454.345L317.367 452.634Z" fill="#E45E4A"/>
<path d="M290.881 463.982C208.964 463.982 127.052 463.964 45.1345 463.951C44.9646 463.951 44.8312 463.897 44.6917 463.842C44.631 463.818 44.5704 463.794 44.4915 463.77L44.2611 463.697L44.2125 463.454C44.1458 463.127 44.0791 462.793 44.0124 462.453C43.8729 461.738 43.7212 460.992 43.5393 460.276C41.186 451.19 36.17 444.112 28.6308 439.229C24.4458 436.518 19.4662 434.602 12.9581 433.201C10.253 432.618 7.45693 432.206 4.75181 431.812C3.81776 431.672 2.87764 431.539 1.94359 431.393C0.378743 431.15 0.0390874 430.944 0.00269568 429.282C-0.0033696 428.973 0.00269568 428.664 0.00269568 428.354V427.972V350.458C0.00269568 283.443 0.00269582 216.421 0.0087611 149.406C0.0087611 123.119 0.0451527 96.8322 0.0694138 70.5453C0.0815444 58.6391 0.0936749 46.7269 0.105806 34.8208V33.7533V32.6676L0.506114 32.6433C0.736595 32.6312 0.954945 32.613 1.16116 32.5948C1.60393 32.5584 2.0285 32.5342 2.45307 32.5281C8.12411 32.5827 13.0612 31.9094 17.5435 30.478C26.3018 27.6759 33.3557 22.7873 38.5051 15.9396C41.1132 12.4702 42.7569 8.66729 43.3877 4.646C43.5272 3.74228 43.606 2.82036 43.6848 1.92876C43.7212 1.52845 43.7516 1.13421 43.788 0.752095L43.8062 0.594397L44.0366 0.376047C44.0973 0.32146 44.1215 0.291133 44.1519 0.266872C44.2125 0.212285 44.3035 0.133436 44.443 0.10311L44.5158 0.0849139C44.6492 0.0545875 44.8009 0.0121306 44.9646 0.0121306C126.882 0.00606528 208.794 0 290.712 0C290.912 0 291.112 0.0181958 291.355 0.0363917C291.476 0.0485222 291.603 0.0606528 291.755 0.0667181L292.046 0.0849139L292.131 0.363917C292.167 0.497353 292.216 0.624724 292.258 0.75816C292.361 1.07355 292.477 1.39501 292.531 1.74074C293.198 5.90758 294.757 9.97739 297.171 13.8349C298.948 16.6795 301.144 19.3179 303.867 21.8957C306.384 24.2793 309.368 25.8138 311.958 27.0026C316.92 29.2771 322.439 30.8844 328.838 31.9216C330.433 32.1763 332.01 32.3886 333.678 32.613C334.442 32.7161 335.213 32.8192 335.995 32.9284L336.304 32.9709L336.359 33.2741C336.377 33.3833 336.401 33.4864 336.42 33.5956C336.474 33.8564 336.529 34.1233 336.547 34.4083C336.571 34.7662 336.565 35.124 336.559 35.4698V35.8883C336.559 62.5755 336.565 89.2627 336.583 115.944C336.614 181.055 336.644 248.379 336.486 314.594C336.444 331.073 336.438 347.826 336.432 364.026C336.42 385.424 336.414 407.55 336.329 429.313V430.338V431.478H335.116C334.642 431.478 334.236 431.478 333.836 431.478C327.965 431.581 323.525 432.188 319.437 433.431C311.139 435.96 304.261 440.461 299.003 446.805C295.685 450.802 293.678 455.205 293.035 459.9C292.931 460.67 292.883 461.459 292.834 462.217C292.816 462.562 292.792 462.908 292.768 463.242L292.756 463.381L292.586 463.581C292.525 463.654 292.489 463.691 292.446 463.727C292.392 463.776 292.27 463.873 292.095 463.891L291.785 463.927C291.5 463.964 291.203 464 290.9 464L290.881 463.982ZM44.9889 463.042H45.001C45.0556 463.066 45.1223 463.09 45.1466 463.09C127.052 463.108 208.97 463.114 290.881 463.121C291.136 463.121 291.391 463.09 291.664 463.054L291.906 463.011C291.925 462.726 291.943 462.435 291.961 462.144C292.01 461.368 292.058 460.567 292.167 459.76C292.834 454.908 294.903 450.359 298.324 446.241C303.697 439.769 310.709 435.178 319.164 432.6C323.331 431.326 327.843 430.714 333.799 430.611C334.212 430.605 334.624 430.605 335.097 430.611H335.455V430.326V429.301C335.54 407.538 335.552 385.412 335.558 364.014C335.564 347.813 335.57 331.061 335.613 314.582C335.771 248.367 335.74 181.043 335.71 115.932C335.698 89.2445 335.686 62.5573 335.686 35.8761V35.4455C335.692 35.0998 335.698 34.7783 335.68 34.4508C335.661 34.2264 335.619 33.9959 335.57 33.7472C335.57 33.7351 335.57 33.723 335.564 33.7108C334.885 33.6199 334.218 33.5289 333.557 33.4379C331.883 33.2135 330.3 33.0012 328.698 32.7404C322.227 31.6911 316.629 30.0656 311.6 27.7547C308.944 26.5356 305.881 24.9586 303.279 22.4961C300.501 19.8638 298.263 17.1708 296.449 14.2655C293.975 10.311 292.374 6.13806 291.694 1.85598C291.652 1.57697 291.555 1.30404 291.458 1.0129C291.439 0.96438 291.427 0.915857 291.409 0.867335C291.367 0.867335 291.324 0.86127 291.288 0.855205C291.076 0.837009 290.894 0.818813 290.718 0.818813C208.8 0.818813 126.888 0.818813 44.9707 0.830943C44.91 0.830943 44.8191 0.855205 44.7281 0.8734L44.6856 0.885531H44.6917C44.6917 0.885531 44.6614 0.921923 44.625 0.958314C44.5946 1.2919 44.5643 1.6255 44.534 1.97122C44.4551 2.87494 44.3763 3.809 44.2307 4.74911C43.5757 8.9099 41.8774 12.8402 39.1844 16.4248C33.9258 23.418 26.7324 28.4098 17.8043 31.2605C13.2311 32.7222 8.19689 33.4076 2.447 33.353C2.05883 33.353 1.65852 33.3833 1.23395 33.4136C1.14297 33.4197 1.05199 33.4258 0.96101 33.4379V34.7965C0.94888 46.7027 0.936749 58.6149 0.924618 70.521C0.894292 96.8079 0.863966 123.095 0.863966 149.382C0.851835 216.397 0.857901 283.418 0.857901 350.434V427.948V428.336C0.857901 428.639 0.857901 428.943 0.857901 429.246C0.874075 429.982 1.28045 430.413 2.07702 430.538C3.01108 430.683 3.94513 430.817 4.87918 430.956C7.59643 431.357 10.4107 431.769 13.1401 432.357C19.7513 433.783 24.8158 435.736 29.0918 438.502C36.8129 443.505 41.9502 450.753 44.3642 460.052C44.5582 460.798 44.7038 461.55 44.8494 462.277C44.8979 462.532 44.9525 462.787 45.001 463.036L44.9889 463.042ZM44.6371 0.903727H44.631C44.631 0.903727 44.631 0.903727 44.6371 0.903727ZM44.625 0.837009L44.6735 0.897662C44.7099 0.885531 44.7281 0.867335 44.7341 0.867335L44.4127 0.582267L44.625 0.818813C44.625 0.818813 44.625 0.830943 44.625 0.843074V0.837009ZM286.842 460.058C286.721 460.058 286.593 460.058 286.472 460.058H286.108H246.805C181.294 460.058 115.789 460.058 50.2839 460.058H49.7319C47.8578 460.07 47.6091 460.009 47.2027 458.468C47.1421 458.226 47.0632 457.929 46.9601 457.583C44.6371 449.777 40.0881 443.069 33.4467 437.646C29.9531 434.796 25.8165 433.073 21.868 431.63C16.943 429.834 11.7087 428.579 5.86176 427.796C5.5221 427.754 5.19458 427.669 4.84886 427.578C4.67903 427.536 4.50313 427.487 4.30905 427.445L3.98152 427.366V177.058C3.98152 169.543 3.98152 162.028 3.98152 154.519C4.00578 124.09 4.03611 93.6601 4.06643 63.2305L4.09069 39.206C4.09069 36.6949 4.26052 36.5069 6.61992 36.3856H6.77762C17.4889 35.8094 27.0296 32.0793 35.1449 25.2922C40.2762 20.998 43.7576 16.2913 45.7834 10.8993C46.2869 9.55888 46.6386 8.12748 46.9722 6.73853C47.0632 6.37461 47.1481 6.01069 47.2391 5.64678C47.597 4.21537 47.7486 4.00915 49.2528 3.96063C49.5742 3.9485 49.8896 3.95456 50.2111 3.95456H50.5811H285.823C288.583 3.95456 288.753 4.08193 289.535 6.61116L289.559 6.68394C291.961 14.5021 296.546 21.18 303.194 26.5417C306.136 28.9132 309.605 30.4538 312.923 31.7699C318.145 33.8382 323.719 35.2696 329.972 36.143C330.397 36.2037 330.821 36.2886 331.276 36.3796C331.488 36.422 331.713 36.4705 331.949 36.513L332.222 36.5615L332.283 36.8284C332.307 36.9315 332.338 37.0407 332.368 37.1438C332.441 37.4107 332.52 37.6836 332.538 37.9747C332.574 38.5145 332.568 39.0665 332.568 39.5942V40.0369V114.512C332.568 179.684 332.574 244.849 332.556 310.021C332.55 336.374 332.495 363.165 332.447 389.076C332.423 401.061 332.398 413.046 332.38 425.031V425.2C332.38 425.34 332.38 425.479 332.38 425.619C332.344 427.281 332.15 427.475 330.512 427.56C319.249 428.124 309.381 431.933 301.18 438.878C295.534 443.663 291.876 448.964 290.014 455.084C289.772 455.891 289.59 456.74 289.42 457.559C289.347 457.898 289.274 458.238 289.201 458.578C288.934 459.772 288.674 459.991 287.455 460.045C287.254 460.052 287.06 460.058 286.86 460.058H286.842ZM246.805 459.202H286.478C286.787 459.202 287.091 459.208 287.4 459.202C287.918 459.182 288.235 458.913 288.352 458.396C288.425 458.062 288.498 457.722 288.571 457.389C288.746 456.552 288.928 455.678 289.183 454.841C291.1 448.558 294.836 443.129 300.616 438.235C308.962 431.163 319 427.287 330.451 426.717C330.852 426.699 331.349 426.674 331.422 426.595C331.495 426.517 331.507 426.031 331.513 425.601C331.513 425.467 331.513 425.334 331.513 425.2V425.031C331.531 413.046 331.555 401.061 331.579 389.076C331.628 363.165 331.683 336.374 331.689 310.021C331.707 244.849 331.701 179.684 331.701 114.512V40.0308V39.582C331.701 39.0665 331.701 38.5388 331.67 38.0232C331.658 37.817 331.598 37.5987 331.531 37.3621C331.525 37.3379 331.519 37.3075 331.507 37.2833C331.367 37.253 331.228 37.2287 331.088 37.1984C330.651 37.1074 330.245 37.0285 329.839 36.9739C323.519 36.0945 317.884 34.6449 312.595 32.5524C309.217 31.2119 305.675 29.641 302.648 27.1967C295.867 21.7258 291.185 14.9085 288.734 6.92655L288.71 6.85377C288.29 5.48301 287.323 4.79764 285.811 4.79764H50.205C49.8957 4.79764 49.5864 4.79764 49.277 4.79764C48.6341 4.81785 48.2277 5.1656 48.0579 5.84087C47.9669 6.20478 47.876 6.56263 47.791 6.92655C47.4453 8.33976 47.0935 9.80149 46.5719 11.1844C44.4915 16.722 40.9312 21.5439 35.6847 25.9291C27.4299 32.8374 17.7133 36.6282 6.82007 37.2105H6.66237C5.80717 37.2651 5.24916 37.2954 5.09753 37.4592C4.93377 37.6411 4.93377 38.2901 4.93377 39.1938L4.90951 63.2184C4.87918 93.6479 4.84886 124.077 4.82459 154.507C4.81853 162.022 4.82459 169.537 4.82459 177.046V187.326V426.686C4.90344 426.705 4.98229 426.729 5.05507 426.747C5.38867 426.832 5.6798 426.911 5.96487 426.947C11.8724 427.736 17.1674 429.003 22.147 430.823C26.1683 432.291 30.3837 434.05 33.9743 436.979C40.7553 442.511 45.3953 449.358 47.7668 457.328C47.876 457.686 47.9548 457.989 48.0215 458.244C48.1489 458.723 48.2277 459.039 48.343 459.111C48.5067 459.208 48.9859 459.208 49.7198 459.202H50.2717C115.777 459.202 181.288 459.202 246.793 459.202H246.805Z" fill="#E94B46"/>
</svg>
