<svg width="209" height="108" viewBox="0 0 209 108" fill="none" xmlns="http://www.w3.org/2000/svg">
<path d="M164.529 67.0925C166.256 67.2534 167.816 67.3978 169.363 67.5421C169.516 68.102 169.307 73.2191 169.095 74.168C167.391 73.9358 165.713 73.4796 163.917 73.3825C163.808 74.207 163.692 74.9652 163.61 75.7266C163.298 78.6124 163.071 81.5048 163.245 84.408C163.357 86.2843 163.603 88.1415 164.315 89.9116C165.046 91.729 166.145 93.2221 167.792 94.3287C171.03 96.5061 174.601 97.6914 178.468 98.0564C182.583 98.4446 186.579 97.9278 190.429 96.4364C194.267 94.9499 197.332 92.4325 199.821 89.1875C200.241 88.6401 200.623 88.0636 201.014 87.4945C201.219 87.1951 201.434 87.108 201.775 87.317C204.058 88.7197 206.349 90.1091 208.637 91.5026C208.756 91.5748 208.878 91.6411 209 91.7108C208.866 91.9762 208.807 92.1272 208.721 92.2599C204.994 98.0033 200.09 102.351 193.667 104.871C190.511 106.109 187.226 106.796 183.844 107.088C180.961 107.337 178.101 107.221 175.256 106.744C169.867 105.842 164.96 103.822 160.749 100.288C158.249 98.1891 156.6 95.4808 155.605 92.4076C154.211 88.0959 153.466 83.6772 153.729 79.1184C153.85 77.024 153.896 74.9245 153.973 72.8268C153.977 72.7198 153.951 72.6111 153.934 72.4551C153.071 72.0935 152.134 72.3639 151.267 72.159C151.128 71.5751 151.441 66.4862 151.688 65.4999C152.728 65.6277 153.782 65.7571 154.894 65.8931C155.226 63.3383 155.166 60.8332 155.175 58.3473C155.782 58.1897 164.812 58.3755 166.033 58.5696C165.538 61.3732 165.042 64.1786 164.528 67.09L164.529 67.0925Z" fill="white"/>
<path d="M113.058 76.8453C113.041 74.3154 111.075 72.5353 108.639 72.7991C107.301 72.9443 106.053 73.3607 104.874 73.9977C103.458 74.7633 102.15 75.6816 100.966 76.774C100.764 76.9598 100.56 77.1431 100.292 77.387C98.6905 74.8637 97.1137 72.3777 95.4937 69.8262C95.7309 69.5774 95.9416 69.3319 96.1789 69.1129C99.282 66.2512 102.976 64.6262 107.115 63.9892C109.427 63.6325 111.741 63.6897 114.019 64.2977C117.26 65.162 119.506 67.1636 120.775 70.2559C121.598 72.2624 122.057 74.3643 122.262 76.5169C122.622 80.2935 122.444 84.0776 122.396 87.8609C122.367 90.1785 122.459 92.4977 122.495 94.8161C122.497 94.9256 122.495 95.0351 122.495 95.2607C119.32 95.561 116.151 95.8604 112.893 96.169C113.075 94.3234 113.517 92.6138 113.552 90.8636C113.497 90.8387 113.441 90.8139 113.387 90.789C113.244 91.0312 113.101 91.2734 112.959 91.5156C111.011 94.8103 108.198 96.9827 104.509 98.0055C103.212 98.3647 101.882 98.4318 100.564 98.1963C97.7267 97.6895 95.9317 95.9791 95.1428 93.2351C94.315 90.356 94.7654 87.6577 96.4509 85.1783C97.7283 83.2987 99.3832 81.8065 101.293 80.5938C104.74 78.4039 108.487 77.1232 112.583 76.915C112.744 76.9067 112.903 76.8677 113.057 76.8437L113.058 76.8453ZM113.308 82.8599C112.899 82.8832 112.57 82.8749 112.251 82.9255C110.46 83.2116 108.772 83.8155 107.217 84.7371C106.488 85.1692 105.822 85.7233 105.175 86.2774C104.661 86.7179 104.365 87.3176 104.261 87.9986C104.116 88.9508 104.577 89.7886 105.501 90.0748C105.963 90.2175 106.488 90.2971 106.964 90.2382C109.63 89.9072 111.572 88.4921 112.783 86.1165C113.275 85.1501 113.455 84.0867 113.309 82.8608L113.308 82.8599Z" fill="white"/>
<path d="M83.6624 67.1411C83.4624 67.2904 83.3007 67.3833 83.1738 67.511C82.2904 68.4027 81.5546 69.3948 81.1092 70.5818C79.7903 74.0946 78.4524 77.6009 77.1567 81.1229C75.0415 86.872 72.9529 92.6303 70.8526 98.3853C70.7498 98.6673 70.6361 98.946 70.5167 99.2521C66.7467 99.588 63.009 99.9215 59.2075 100.261C58.5762 94.9495 57.5269 89.7653 56.4503 84.5876C55.3786 79.4307 54.3069 74.2713 52.6753 69.1252C56.8011 68.7635 60.8772 68.4069 65.0064 68.0452C65.0064 68.3629 65.028 68.6059 65.0031 68.8432C64.7269 71.4726 64.8704 74.098 65.3117 76.6851C66.0922 81.2531 67.0013 85.7987 67.8615 90.3525C67.8997 90.5566 67.9859 90.7515 68.1004 91.1099C68.2472 90.715 68.3426 90.4902 68.4156 90.258C70.0339 85.1268 71.6614 79.9981 72.9122 74.7607C73.4846 72.3643 74.1988 70.0219 75.3517 67.832C76.5628 65.5319 78.0957 63.4913 80.1918 61.9186C82.2705 60.3592 84.6519 59.6417 87.2167 59.5032C88.4004 59.4393 89.6006 59.3472 90.7735 59.4675C93.7887 59.7769 95.5953 62.1633 95.1897 65.152C94.7385 68.4707 91.7233 71.038 88.3788 70.9492C86.3466 70.8953 84.6702 69.7067 83.9303 67.7964C83.854 67.5981 83.7685 67.404 83.6607 67.1419L83.6624 67.1411Z" fill="white"/>
<path d="M25.0879 88.8663C25.1999 83.6604 26.3852 79.3538 29.0636 75.5232C31.2095 72.4533 34.0264 70.2825 37.7209 69.3941C39.9813 68.8508 42.2557 68.7787 44.5227 69.3999C46.8071 70.0262 48.5523 71.4056 49.9343 73.2844C51.2722 75.1035 52.0237 77.1813 52.3962 79.3745C53.4247 85.4264 52.2709 91.0669 48.9994 96.2611C47.761 98.2278 46.156 99.8594 44.1743 101.083C40.7834 103.177 37.1469 103.58 33.3454 102.487C31.3157 101.903 29.7197 100.647 28.4 99.0233C26.7892 97.0417 25.9306 94.7241 25.4852 92.2506C25.2513 90.9516 25.1733 89.6253 25.0879 88.8663ZM43.9388 83.0997C43.9379 81.3445 43.8807 79.4317 43.1914 77.6226C42.921 76.9134 42.5485 76.2042 42.0674 75.6227C41.2321 74.6116 40.1223 74.5311 39.0332 75.2694C38.3348 75.743 37.8122 76.3859 37.3775 77.0992C36.6974 78.2149 36.2171 79.4201 35.8612 80.6718C35.0392 83.5617 34.7132 86.5205 34.753 89.5158C34.7746 91.12 34.9679 92.7118 35.5328 94.2339C35.8231 95.0169 36.1889 95.7576 36.816 96.335C37.6637 97.1163 38.6815 97.2681 39.6138 96.5971C40.2285 96.155 40.8315 95.5992 41.218 94.9605C41.8128 93.9784 42.313 92.9125 42.6854 91.8251C43.6343 89.0546 43.8683 86.163 43.9388 83.0989V83.0997Z" fill="white"/>
<path d="M12.1415 89.8404C11.8428 91.9796 11.7259 94.0699 11.6637 96.1627C11.6006 98.2638 11.7723 100.35 12.1713 102.404C11.3651 102.664 2.03419 102.624 1.02637 102.379C1.28848 100.696 1.58959 99.0194 1.80359 97.3314C2.09474 95.0321 2.3494 92.727 2.56423 90.4185C2.84875 87.3677 3.10008 84.3135 3.32819 81.2577C3.48828 79.1102 3.59362 76.9585 3.70726 74.8076C3.7703 73.6223 3.81427 72.4345 3.84247 71.2475C3.89721 68.9606 3.95445 66.6729 3.59611 64.2914C11.2664 64.6265 18.876 64.5842 26.6052 64.1587C26.4998 66.9665 26.2734 69.6748 26.0959 72.4958C21.8929 71.8646 17.7388 71.41 13.4496 71.3487C12.9286 74.9777 12.5761 78.5826 12.4052 82.3194C15.5689 82.3816 18.6396 82.2 21.8357 81.9495C21.6731 84.8452 21.5155 87.6638 21.3529 90.5554C18.2382 90.2393 15.2271 89.9167 12.1423 89.8379L12.1415 89.8404Z" fill="white"/>
<path d="M195.324 78.0008C195.26 81.3776 194.549 84.5803 192.93 87.5548C191.912 89.4261 190.568 91.0104 188.781 92.2082C186.462 93.7627 183.902 94.2156 181.183 93.8813C176.203 93.27 173.031 90.3933 171.515 85.7407C169.669 80.0762 170.374 74.6198 173.358 69.4737C174.485 67.5294 176.032 65.9783 177.981 64.8219C181.903 62.4936 188.624 62.6553 192.241 67.6903C193.83 69.9017 194.677 72.3777 195.06 75.0354C195.201 76.0167 195.239 77.0121 195.324 78.0008ZM187.403 76.4936C187.398 74.8305 187.292 73.0148 186.668 71.2704C186.405 70.5354 186.064 69.8461 185.496 69.2929C184.691 68.5098 183.783 68.3854 182.876 69.0507C182.375 69.4181 181.912 69.8934 181.572 70.4127C181.139 71.0771 180.774 71.8079 180.507 72.5561C179.381 75.7222 179.047 79.0061 179.214 82.3448C179.278 83.6156 179.467 84.8847 179.991 86.0551C180.28 86.6996 180.651 87.3416 181.12 87.8617C181.905 88.731 182.956 88.8206 183.873 88.0998C184.424 87.666 184.948 87.1177 185.288 86.5105C185.782 85.6271 186.183 84.6707 186.476 83.7002C187.17 81.4108 187.349 79.041 187.402 76.4945L187.403 76.4936Z" fill="white"/>
<path d="M127.307 57.4577C130.84 57.1425 134.293 56.8356 137.865 56.5171C136.794 62.9265 136.2 69.2621 135.899 75.6234C135.6 81.9715 135.575 88.3162 136.403 94.7281C132.537 94.8658 128.748 95.0002 124.934 95.1362C125.139 93.8505 125.367 92.6602 125.515 91.46C125.796 89.1872 126.071 86.9119 126.277 84.6316C126.573 81.3602 126.823 78.0845 127.06 74.8081C127.201 72.853 127.313 70.8946 127.379 68.9361C127.493 65.5701 127.731 62.204 127.457 58.8355C127.424 58.4274 127.369 58.0201 127.308 57.4577H127.307Z" fill="white"/>
<path d="M164.717 36.2688C164.979 35.0925 164.973 33.9462 164.935 32.804C164.898 31.6494 164.794 30.4972 164.713 29.2463C167.089 29.146 169.441 29.3061 171.864 29.3334C171.2 33.451 170.857 37.5113 170.668 41.5874C170.478 45.666 170.393 49.7412 170.94 53.9119C168.629 53.7601 166.412 53.6141 164.193 53.4681C164.288 52.3525 164.378 51.2957 164.468 50.2389L164.29 50.1809C164.153 50.3982 164.009 50.6122 163.881 50.8345C163.309 51.8324 162.595 52.6984 161.586 53.284C160.041 54.1806 158.489 54.1757 156.943 53.2948C155.986 52.7498 155.252 51.9717 154.676 51.0386C153.771 49.572 153.312 47.9545 153.208 46.2557C153.028 43.3094 153.301 40.4087 154.345 37.6183C154.753 36.5251 155.303 35.5081 156.088 34.6313C158.512 31.9247 162.198 32.2341 164.145 35.3099C164.344 35.6242 164.526 35.9477 164.716 36.2679L164.717 36.2688ZM164.086 42.5919C164.032 41.4547 163.986 40.2893 163.281 39.2864C162.625 38.3541 161.721 38.2628 161.014 39.1446C160.611 39.6481 160.301 40.2694 160.102 40.8865C159.588 42.4824 159.498 44.1397 159.634 45.8037C159.692 46.5179 159.826 47.2271 160.226 47.8533C160.81 48.7683 161.607 48.9018 162.337 48.0914C162.787 47.5904 163.151 46.9733 163.415 46.3495C163.914 45.1666 164.02 43.8909 164.086 42.5919Z" fill="white"/>
<path d="M138.049 40.6131C138.016 39.0802 136.994 37.9977 135.545 37.9206C134.668 37.8741 133.822 38.0657 133.069 38.4796C132.203 38.9558 131.397 39.543 130.572 40.0905C130.392 40.2099 130.237 40.3667 130.002 40.5633C128.96 38.9242 127.944 37.3258 126.879 35.6503C127.091 35.4363 127.284 35.2148 127.504 35.024C129.248 33.5168 131.305 32.7122 133.552 32.3332C134.989 32.0909 136.414 32.1722 137.828 32.4891C140.303 33.0449 142.024 34.5023 142.961 36.8572C143.546 38.3278 143.912 39.8624 143.984 41.4426C144.079 43.537 144.098 45.6348 144.149 47.7317C144.187 49.3301 144.223 50.9277 144.262 52.6132C142.308 52.8305 140.315 52.809 138.279 52.9442C138.401 51.8119 138.512 50.7809 138.624 49.7498C138.568 49.7266 138.512 49.7034 138.454 49.681C138.312 49.8909 138.165 50.0982 138.027 50.3114C136.742 52.2964 134.937 53.5174 132.61 53.9155C130.386 54.2963 127.539 53.4618 126.809 49.9265C126.454 48.207 126.82 46.6401 127.852 45.2267C128.783 43.9509 130.002 43.0161 131.385 42.282C133.269 41.2816 135.289 40.7765 137.413 40.662C137.627 40.6504 137.84 40.6288 138.05 40.6122L138.049 40.6131ZM138.328 44.5672C136.86 44.3366 134.288 45.2789 133.219 46.3971C132.739 46.8981 132.521 47.4787 132.758 48.1382C133.012 48.8441 133.661 49.0265 134.313 49.0149C136.508 48.9776 138.702 46.9553 138.328 44.5672Z" fill="white"/>
<path d="M29.3415 46.7162C29.1996 44.9038 27.9902 43.8512 26.2558 43.9798C24.6449 44.0992 23.3169 44.8673 22.0578 45.793C21.8164 45.9705 21.5866 46.1654 21.2731 46.4143C20.2238 44.6956 19.196 43.0117 18.1061 41.2259C18.797 40.739 19.4075 40.2139 20.0985 39.8373C22.981 38.2638 26.0426 37.8432 29.2369 38.6271C31.7951 39.255 33.4897 40.8592 34.3706 43.341C34.9579 44.995 35.2598 46.7046 35.3295 48.4482C35.395 50.0756 35.3726 51.7064 35.405 53.3355C35.4357 54.8535 35.4888 56.3706 35.5294 57.8885C35.536 58.1341 35.5302 58.3804 35.5302 58.7255C33.5843 58.8773 31.6474 59.0009 29.6127 59.0075C29.5347 57.8869 29.9279 56.8293 29.8491 55.5685C29.6119 55.9318 29.4667 56.1524 29.324 56.3739C28.1271 58.232 26.4615 59.4223 24.2816 59.8304C20.9595 60.4525 18.2247 58.2909 17.9833 54.914C17.8523 53.0842 18.4594 51.5563 19.7286 50.2639C21.2241 48.7418 23.0664 47.8095 25.1028 47.3027C26.2724 47.0115 27.4959 46.9377 28.6961 46.771C28.9101 46.7411 29.1274 46.7345 29.3431 46.7171L29.3415 46.7162ZM29.5588 50.6148C27.977 50.4887 25.5582 51.3365 24.5354 52.3468C24.3803 52.5002 24.2327 52.6728 24.1273 52.861C23.6545 53.7079 23.9896 54.6295 24.9203 54.9066C25.3268 55.0277 25.7979 55.06 26.216 54.9895C27.4071 54.7879 28.3693 54.17 29.0412 53.1563C29.543 52.4007 29.7479 51.5679 29.558 50.614L29.5588 50.6148Z" fill="white"/>
<path d="M177.729 46.8311C177.789 48.539 178.969 49.7816 180.607 49.9143C182.046 50.0304 183.326 49.5576 184.547 48.8708C184.93 48.6552 185.288 48.3955 185.763 48.0878C186.789 49.9093 187.808 51.7193 188.856 53.5798C188.676 53.7449 188.533 53.9041 188.363 54.0261C187.22 54.8448 185.933 55.3002 184.556 55.5556C182.618 55.914 180.706 55.8319 178.823 55.2662C176.197 54.4773 174.195 52.864 173.062 50.3813C171.224 46.3567 171.314 42.3237 173.604 38.4873C175.734 34.9172 180.035 33.138 183.882 34.174C186.676 34.9264 188.504 36.6749 188.991 39.6279C189.27 41.3167 188.838 42.8015 187.665 44.0548C186.41 45.3961 184.798 46.0846 183.059 46.5201C181.489 46.9132 179.893 46.9589 178.287 46.8344C178.103 46.8203 177.917 46.8328 177.731 46.8328L177.729 46.8311ZM177.459 42.8703C179.046 43.2204 181.33 42.5767 182.23 41.9363C182.944 41.4287 183.216 40.8812 183.057 40.1977C182.878 39.4213 182.311 39.0655 181.596 38.9195C180.2 38.6366 178.619 39.3351 177.889 40.5552C177.471 41.257 177.308 42.0185 177.459 42.8695V42.8703Z" fill="white"/>
<path d="M89.8389 48.122C90.004 49.9685 91.2739 50.8253 92.9777 50.5848C93.8702 50.4587 94.6947 50.141 95.4371 49.6549C96.2865 49.0983 97.0903 48.4729 97.9994 47.8151C99.0105 49.3696 100.04 50.9522 101.132 52.6303C100.42 53.1902 99.7944 53.7808 99.0794 54.2279C96.3943 55.9076 93.4911 56.7138 90.3126 56.168C87.9825 55.7682 86.2837 54.456 85.144 52.4055C84.5468 51.3305 84.176 50.1642 84.064 48.9499C83.5614 43.4894 85.3904 39.0707 90.0596 36.0157C91.8736 34.8287 93.8943 34.1975 96.0982 34.3078C96.4001 34.3227 96.7054 34.3509 97.0007 34.4123C100.535 35.1447 102.26 38.5465 100.769 41.8486C100.224 43.0572 99.3772 44.0368 98.3527 44.8572C96.255 46.5361 93.8569 47.5215 91.1993 47.8848C90.7895 47.9412 90.3781 47.9901 89.9683 48.0449C89.9434 48.0482 89.9219 48.0723 89.8389 48.1229V48.122ZM89.6307 44.1787C89.7444 44.2052 89.8248 44.2467 89.8986 44.2367C91.6895 43.9987 93.3128 43.3691 94.6425 42.1149C94.8921 41.8793 95.0929 41.5459 95.2065 41.2191C95.4711 40.4626 95.073 39.7608 94.2924 39.5667C94.0054 39.4954 93.6861 39.4655 93.3966 39.5103C91.8504 39.7509 90.6966 40.5828 89.9633 41.9548C89.5967 42.6408 89.4408 43.3907 89.6307 44.1778V44.1787Z" fill="white"/>
<path d="M81.8281 98.4869C83.624 90.1133 84.1996 81.7645 84.1955 73.2499C87.3284 72.714 90.4821 72.276 93.7437 71.7634C93.5098 73.9831 93.2452 76.129 93.0668 78.2824C92.8893 80.4266 92.7649 82.5766 92.6803 84.7266C92.594 86.9048 92.5691 89.0864 92.5476 91.2663C92.526 93.4146 92.5426 95.563 92.5426 97.8167C88.9667 98.0398 85.453 98.2597 81.8281 98.4861V98.4869Z" fill="white"/>
<path d="M139.348 69.6454C142.617 69.4164 145.743 69.1974 148.948 68.9727C147.652 77.6723 147.607 86.3064 147.662 95.0317C144.077 94.9621 140.561 94.8932 136.955 94.8235C138.036 90.6579 138.483 86.4905 138.855 82.3182C139.227 78.1418 139.465 73.9545 139.348 69.6454Z" fill="white"/>
<path d="M69.6676 46.5452C69.525 48.784 69.0281 50.9207 68.0087 52.9214C67.2464 54.4186 66.241 55.7218 64.8691 56.7171C62.7439 58.2592 60.3849 58.6507 57.8624 58.0609C56.0118 57.6287 54.6755 56.4625 53.6909 54.879C52.7826 53.4175 52.3389 51.7875 52.2037 50.0962C51.9283 46.653 52.6715 43.4388 54.6938 40.6019C56.5253 38.0313 59.027 36.6503 62.2296 36.6453C64.7662 36.6411 66.6831 37.7576 68.031 39.8753C68.8929 41.229 69.3126 42.742 69.5092 44.318C69.6013 45.0562 69.617 45.8036 69.6676 46.546V46.5452ZM64.028 46.6961C64.0678 45.2603 64.0412 43.8228 63.585 42.445C63.4067 41.9067 63.1404 41.3667 62.7945 40.9204C62.2271 40.1888 61.4043 40.1357 60.686 40.7321C60.3732 40.9918 60.0829 41.3111 59.8772 41.6595C59.5711 42.1779 59.2916 42.7271 59.1016 43.2969C58.3418 45.5763 58.1303 47.9288 58.302 50.3144C58.3717 51.2774 58.5617 52.2263 58.9938 53.1064C59.8241 54.8002 61.1986 54.9479 62.296 53.4042C62.719 52.8086 63.0168 52.1044 63.2706 51.4126C63.8272 49.8963 63.94 48.2954 64.0271 46.6953L64.028 46.6961Z" fill="white"/>
<path d="M16.8733 58.8717C12.2356 58.632 7.69335 58.3981 3.11377 58.1617C3.89349 49.9813 4.24685 41.8955 3.78897 33.7748C4.19956 33.6604 9.4079 33.9457 10.8122 34.1896C10.0806 40.9184 9.54725 47.6687 10.0101 54.5659C12.5127 54.8039 14.9256 54.57 17.4298 53.8998C17.2449 55.5513 17.069 57.1223 16.8733 58.8726V58.8717Z" fill="white"/>
<path d="M81.6209 42.0856C80.4853 42.1445 79.4418 42.1984 78.3469 42.2548C78.288 42.5144 78.1967 42.7475 78.1885 42.9831C78.108 45.2426 77.9977 47.5021 77.9952 49.7625C77.9944 50.5156 78.2001 51.2962 78.4497 52.0162C78.8545 53.1824 79.6807 53.5092 80.8154 53.034C81.2932 52.834 81.7403 52.5612 82.2612 52.2899C82.6303 53.5192 82.9854 54.7004 83.352 55.9189C83.138 56.0616 82.9704 56.1993 82.7813 56.2947C81.2177 57.0794 79.5737 57.5115 77.8202 57.2336C74.6996 56.7393 72.5903 54.61 72.0594 51.4397C71.7102 49.3552 71.828 47.2583 71.9789 45.1646C72.0304 44.4521 72.0967 43.7412 72.1664 42.9101C71.4696 42.9798 70.8309 43.0436 70.0819 43.1183C70.0437 41.6601 70.2743 40.2508 70.2727 38.7419C70.9918 38.6797 71.6654 38.6225 72.3887 38.5603C72.6392 36.8897 72.5007 35.2349 72.5455 33.4863C74.8191 33.0782 77.0803 32.6734 79.4551 32.2471C79.1623 34.2403 78.8894 36.0992 78.6007 38.0684C79.7114 37.9622 80.6877 37.8693 81.7552 37.7673C81.81 39.223 81.7411 40.6116 81.6184 42.0856H81.6209Z" fill="white"/>
<path d="M112.92 40.7769C112.751 40.1781 112.654 39.6862 112.474 39.2275C112.014 38.0562 111.041 37.887 110.267 38.8924C109.857 39.4265 109.556 40.0752 109.332 40.7164C108.743 42.3994 108.543 44.1662 108.527 45.9322C108.506 48.2771 108.613 50.6229 108.662 52.9679C108.669 53.269 108.663 53.5709 108.663 53.9873C106.275 54.0902 103.898 54.1922 101.51 54.2942C102.521 47.7488 102.831 41.2547 102.761 34.6371C104.879 34.3376 106.967 34.0432 109.144 33.7354C108.954 35.1373 108.779 36.428 108.603 37.7195C108.662 37.741 108.72 37.7618 108.779 37.7833C108.879 37.6174 108.993 37.459 109.075 37.2848C109.559 36.2562 110.099 35.2609 110.902 34.4413C111.793 33.5314 112.799 32.8288 114.146 32.8313C115.674 32.8338 116.889 33.4592 117.68 34.7657C118.089 35.4417 118.357 36.2015 118.731 37.0111C116.767 38.2827 114.879 39.5062 112.921 40.7753L112.92 40.7769Z" fill="white"/>
<path d="M45.3771 34.5244C47.5479 34.3063 49.678 34.0923 51.8969 33.8691C50.8899 41.9599 50.5042 49.9819 51.4879 58.1332C49.0783 58.2518 46.7242 58.368 44.3428 58.4849C45.2104 50.4937 45.7131 42.5796 45.3771 34.5253V34.5244Z" fill="white"/>
<path d="M150.344 61.6615C150.367 65.6223 146.626 68.5479 142.78 67.5765C140.679 67.0465 139.075 65.1196 138.852 62.9613C138.481 59.3754 141.397 56.3578 144.758 56.2499C147.799 56.152 150.327 58.5858 150.345 61.6623L150.344 61.6615Z" fill="white"/>
<path d="M119.775 37.5158C121.807 37.2844 123.723 37.067 125.678 36.8447C125.536 39.626 125.34 42.3641 125.269 45.1056C125.199 47.8263 125.254 50.5511 125.254 53.388C123.084 53.4369 120.892 53.4858 118.615 53.5364C119.609 48.1879 119.864 42.8925 119.774 37.5158H119.775Z" fill="white"/>
<path d="M124.617 27.4644C126.352 27.8799 127.63 28.7102 128.618 30.1154C126.788 33.0849 124.175 34.9944 120.892 36.057C120.305 35.6215 119.976 35.0716 119.726 34.3748C121.905 32.4827 123.699 30.317 124.617 27.4644Z" fill="white"/>
<path d="M87.4448 7.38255C87.0674 7.38255 86.7945 7.36098 86.5266 7.38753C86.1243 7.42817 85.8555 7.26145 85.6117 6.95454C85.0982 6.31003 84.5574 5.68791 83.9577 4.97207C83.6499 5.79575 83.9494 6.57463 83.7221 7.33444H82.1751C81.9934 6.75463 81.937 3.37946 82.083 1.99422C83.1605 1.66325 83.4376 1.74289 84.1393 2.58066C84.5474 3.06757 84.9555 3.55448 85.3661 4.0389C85.4001 4.07954 85.4549 4.10277 85.5569 4.17328C85.8248 3.44748 85.5644 2.70094 85.7419 1.92537H87.4216C87.4963 3.693 87.4515 5.47225 87.4456 7.38172L87.4448 7.38255Z" fill="white"/>
<path d="M133.061 4.09064V1.90993H134.784V7.29826C133.915 7.4965 133.209 7.45337 132.678 6.62886C132.313 6.06315 131.816 5.58205 131.209 5.10842V7.3248H129.462C129.325 5.54556 129.437 3.75055 129.394 1.85352C129.792 1.85352 130.089 1.87758 130.381 1.84771C130.758 1.80956 131.002 1.97545 131.223 2.25333C131.634 2.77093 132.072 3.26862 132.484 3.78622C132.601 3.93304 132.668 4.11801 132.759 4.2864C132.86 4.2217 132.96 4.157 133.061 4.0923L133.061 4.09064Z" fill="white"/>
<path d="M77.0628 7.43321C75.0439 7.42989 73.7299 6.11433 73.8809 4.34006C73.8992 4.12357 73.9481 3.90292 74.0203 3.69804C74.4881 2.36008 75.8758 1.6235 77.5182 1.83004C78.925 2.00672 79.9702 3.0668 80.0938 4.44292C80.2215 5.86714 79.0702 7.20427 77.5398 7.40335C77.349 7.42823 77.1541 7.42823 77.0636 7.43404L77.0628 7.43321ZM78.2216 4.61047C78.2183 3.81583 77.7148 3.27086 76.9799 3.26671C76.2541 3.26173 75.7066 3.81997 75.6884 4.58476C75.6693 5.37775 76.2408 5.9841 76.9948 5.97C77.7289 5.95673 78.2241 5.40678 78.2216 4.61047Z" fill="white"/>
<path d="M122.832 1.89072H127.223V3.23863H124.759C124.638 3.87983 124.642 3.90803 125.108 3.92628C125.682 3.94867 126.257 3.93125 126.9 3.93125V5.21861H124.665V5.95769H127.35V7.24919C126.781 7.41343 123.931 7.45076 122.836 7.28735C122.814 5.53216 122.824 3.75789 122.832 1.88989V1.89072Z" fill="white"/>
<path d="M154.896 1.91357V3.22001H152.35C152.236 3.65052 152.228 3.91927 152.682 3.9259C153.285 3.93503 153.887 3.92839 154.542 3.92839V5.2058H152.331C152.313 5.4787 152.298 5.67778 152.28 5.95316H154.964V7.38237H150.475C150.454 5.53179 150.449 3.75337 150.485 1.91357H154.896Z" fill="white"/>
<path d="M34.4346 6.03248C34.4006 6.50529 34.3724 6.88685 34.3408 7.32482H32.7142C32.55 6.73754 32.4994 3.23463 32.647 1.87013C33.8879 1.88672 35.1479 1.69345 36.3864 2.05178C37.254 2.30312 37.7815 3.02892 37.8073 3.88992C37.833 4.7418 37.3336 5.48087 36.4676 5.77783C36.1093 5.90059 35.7153 5.9288 35.3346 5.97856C35.0658 6.0134 34.7921 6.01257 34.4346 6.03248ZM34.4362 4.5701C35.0136 4.63148 35.5154 4.7277 35.8248 4.269C35.9326 4.10891 35.9218 3.74061 35.8065 3.58218C35.4532 3.09528 34.9414 3.27776 34.4362 3.3126V4.5701Z" fill="white"/>
<path d="M140.653 6.43615H138.574C138.412 6.75219 138.263 7.04251 138.112 7.33614H136.324C137.145 5.46649 137.926 3.6889 138.714 1.89307H140.542C141.318 3.65987 142.1 5.43911 142.935 7.33697C142.514 7.35605 142.224 7.3743 141.933 7.38094C141.661 7.38757 141.388 7.3826 141.135 7.3826C140.954 7.02758 140.806 6.73643 140.653 6.43615ZM139.682 3.83904C139.632 3.83904 139.581 3.83904 139.531 3.83987C139.39 4.22807 139.249 4.61544 139.085 5.06916H140.154C139.978 4.60797 139.83 4.22309 139.681 3.83904H139.682Z" fill="white"/>
<path d="M105.125 7.33536H103.306C103.164 7.05914 103.016 6.76965 102.849 6.44532H100.762C100.62 6.72071 100.471 7.00937 100.301 7.33867H98.6836C98.7118 6.7796 100.349 2.89844 100.988 1.88232H102.72C103.49 3.62839 104.274 5.40929 105.124 7.33619L105.125 7.33536ZM102.333 5.07252C102.163 4.61216 102.02 4.22396 101.876 3.83493L101.727 3.83327C101.582 4.22147 101.436 4.60967 101.262 5.07252H102.333Z" fill="white"/>
<path d="M53.2025 1.85331C54.0013 3.66656 54.7843 5.44498 55.6097 7.31629H53.7898C53.6562 7.05584 53.5078 6.76718 53.3427 6.44534H51.254C51.1122 6.71824 50.9637 7.00441 50.7945 7.3304H49.0518C49.1521 7.05998 49.2168 6.85676 49.3014 6.66266C49.9078 5.27659 50.5382 3.89965 51.1172 2.50197C51.3129 2.02833 51.5576 1.78612 52.0893 1.84584C52.4394 1.88566 52.7977 1.85331 53.2025 1.85331ZM52.8375 5.07088C52.655 4.61881 52.6185 4.19163 52.2171 3.81753C52.0462 4.26379 51.906 4.63125 51.7376 5.07088H52.8375Z" fill="white"/>
<path d="M106.321 6.89782C106.531 6.43248 106.698 6.06253 106.877 5.6652C107.74 5.86428 108.548 6.34621 109.602 5.80124C109.294 5.60631 109.144 5.46281 108.967 5.40806C108.52 5.27037 108.053 5.1982 107.609 5.0547C106.816 4.79756 106.426 4.32392 106.403 3.65785C106.379 2.97684 106.779 2.34726 107.509 2.07021C108.668 1.63059 109.813 1.71768 111.007 2.26266C110.827 2.6832 110.669 3.0515 110.542 3.35094C109.814 3.30698 109.169 3.25721 108.523 3.23979C108.425 3.2373 108.322 3.38578 108.083 3.57241C108.528 3.73001 108.84 3.85278 109.161 3.95149C109.554 4.07342 109.974 4.12817 110.345 4.29406C111.413 4.77019 111.601 6.01276 110.728 6.79247C110.509 6.98823 110.23 7.15496 109.949 7.23956C108.74 7.60703 107.569 7.46435 106.321 6.89865V6.89782Z" fill="white"/>
<path d="M116.196 6.91577C116.404 6.44877 116.577 6.05809 116.745 5.68067C117.627 5.84823 118.431 6.36831 119.318 5.85403C119.169 5.36215 118.782 5.40113 118.491 5.30574C118.099 5.178 117.684 5.11994 117.297 4.98142C116.708 4.77073 116.322 4.37174 116.288 3.70484C116.254 3.02881 116.547 2.52448 117.12 2.19766C117.983 1.70329 118.92 1.73647 119.857 1.90569C120.172 1.96209 120.472 2.10393 120.863 2.23416C120.685 2.67545 120.534 3.04623 120.37 3.45019C119.95 3.35811 119.579 3.27516 119.208 3.19553C118.821 3.11259 118.454 3.13332 117.994 3.47175C118.239 3.62853 118.387 3.77286 118.562 3.82511C119.01 3.95949 119.479 4.02751 119.923 4.16935C120.562 4.37423 121.065 4.72925 121.115 5.48325C121.164 6.20656 120.828 6.81209 120.097 7.12397C118.796 7.67807 117.526 7.46738 116.197 6.91494L116.196 6.91577Z" fill="white"/>
<path d="M161.334 2.24011C161.146 2.69134 160.992 3.06129 160.841 3.42129C160.058 3.40387 159.324 2.8365 158.477 3.49926C158.715 3.6411 158.869 3.77797 159.048 3.83106C159.497 3.96377 159.966 4.03096 160.409 4.17612C161.048 4.38432 161.543 4.7493 161.584 5.50413C161.623 6.22329 161.282 6.83462 160.546 7.13323C159.247 7.65913 157.973 7.5065 156.676 6.88854C156.863 6.45886 157.027 6.08642 157.204 5.67915C158.059 5.8409 158.873 6.36015 159.902 5.81104C159.65 5.63104 159.51 5.47261 159.338 5.41869C158.865 5.27021 158.37 5.19307 157.9 5.03796C157.291 4.83722 156.822 4.48137 156.763 3.76884C156.701 3.02065 157.021 2.4649 157.679 2.15384C158.875 1.58896 160.066 1.72168 161.333 2.24011H161.334Z" fill="white"/>
<path d="M61.5039 2.23289C61.3123 2.6916 61.1671 3.03998 60.9987 3.44228C60.5773 3.3527 60.1842 3.26394 59.7885 3.1868C59.4028 3.11215 59.0395 3.13537 58.74 3.40578C58.8238 3.8338 59.1448 3.81389 59.3912 3.88357C59.815 4.00384 60.2563 4.06854 60.6702 4.2137C61.2476 4.4161 61.6822 4.77526 61.7386 5.44714C61.7975 6.15552 61.4956 6.67893 60.9033 7.03727C60.18 7.47441 59.3721 7.49348 58.5733 7.39312C58.0117 7.32261 57.4651 7.13846 56.8057 6.9792C57.0222 6.4699 57.1889 6.08004 57.3622 5.67111C58.2307 5.85857 59.042 6.34962 59.9295 5.87682C59.8573 5.40152 59.4998 5.41645 59.2327 5.33516C58.8122 5.20659 58.3709 5.14024 57.957 4.99508C57.373 4.79019 56.9641 4.41029 56.9185 3.74007C56.8695 3.02754 57.1798 2.50828 57.7861 2.17317C58.6289 1.707 59.5396 1.74101 60.4488 1.89446C60.7673 1.94838 61.0709 2.08939 61.5047 2.23123L61.5039 2.23289Z" fill="white"/>
<path d="M71.2881 5.44715C71.6025 5.71756 71.9335 6.00208 72.3026 6.31977C72.0595 6.78511 71.6672 7.02566 71.2384 7.19487C70.4412 7.51008 69.6192 7.53247 68.8022 7.27451C67.5745 6.88797 66.7923 5.84862 66.7857 4.62845C66.7791 3.41408 67.5621 2.36893 68.7814 1.96497C70.1003 1.52867 71.3984 1.85051 72.3034 2.88819C71.9658 3.18929 71.6266 3.49206 71.2558 3.82302C70.7846 3.468 70.3118 3.13704 69.727 3.29215C69.4492 3.36597 69.1547 3.52358 68.9589 3.72929C68.5251 4.18633 68.5682 5.10209 68.988 5.56411C69.4948 6.12152 70.1692 6.09581 71.2881 5.44715Z" fill="white"/>
<path d="M146.305 5.97507H148.739V7.32133H144.49V1.91309H146.253C146.325 3.21455 146.247 4.53011 146.305 5.97507Z" fill="white"/>
<path d="M94.9112 5.97239H97.3242V7.36095C95.9323 7.40325 94.5396 7.38168 93.0225 7.37256C92.9959 5.53027 93.0092 3.75352 93.0133 1.91455H94.8166C94.9485 3.21021 94.8017 4.52909 94.9112 5.97239Z" fill="white"/>
<path d="M45.3314 1.92944V5.94664H47.7809V7.33188H43.6683C43.4883 6.73133 43.4319 3.54196 43.5795 1.92944H45.3314Z" fill="white"/>
<path d="M39.6057 1.90308H41.4099V7.32791H39.6356C39.5709 5.52129 39.6182 3.72545 39.6057 1.90308Z" fill="white"/>
<path d="M164.718 5.2118H163.359C163.245 4.12517 163.131 3.05265 163.011 1.91211H165.027C165.031 3.00288 164.84 4.06711 164.718 5.2118Z" fill="white"/>
<path d="M30.4467 5.21045C30.4824 5.41616 30.5206 5.57293 30.5355 5.7322C30.6234 6.6297 30.7064 7.52803 30.7976 8.49936H28.7612C28.8716 7.40941 28.9802 6.3344 29.093 5.21128H30.4467V5.21045Z" fill="white"/>
<path d="M130.472 1.29942C130.52 0.120723 131.158 -0.289872 132.089 0.206989C132.46 0.405236 132.745 0.531318 133.113 0.195376C133.233 0.0850547 133.518 0.15639 133.736 0.143948C133.659 1.29942 133.072 1.65444 132.102 1.175C131.775 1.01325 131.502 0.81749 131.155 1.1891C131.033 1.31933 130.715 1.26624 130.471 1.29942H130.472Z" fill="white"/>
<path d="M164.074 7.42652C163.473 7.44145 163.026 7.05076 163.029 6.51575C163.032 6.00644 163.437 5.63732 164.008 5.62322C164.613 5.60829 165.056 5.994 165.05 6.53151C165.045 7.03583 164.635 7.41242 164.074 7.42652Z" fill="white"/>
<path d="M29.7938 4.77233C29.1866 4.77564 28.7561 4.38247 28.7761 3.84164C28.7943 3.34229 29.2173 2.97317 29.7756 2.96903C30.3712 2.96488 30.8116 3.3705 30.7934 3.90468C30.7759 4.41316 30.3662 4.76818 29.7938 4.7715V4.77233Z" fill="white"/>
<path d="M193.568 17.491H0V18.6514H193.568V17.491Z" fill="white"/>
<path d="M93.2882 17.3867L91.4641 12.931L95.3644 15.0824L96.8591 10.4727L98.2726 15.1152L102.21 13.0511L100.308 17.4647L104.383 19.1561L100.28 20.7556L102.104 25.2113L98.2029 23.0599L96.709 27.6696L95.2955 23.0271L91.358 25.0912L93.2592 20.6776L89.1855 18.9862L93.2882 17.3867Z" fill="white"/>
</svg>
