<svg width="19" height="19" viewBox="0 0 19 19" fill="none" xmlns="http://www.w3.org/2000/svg">
<g clip-path="url(#clip0_13_610)">
<path d="M6.64219 0.0274128C8.68643 -0.0154766 10.7355 -0.0107111 12.7749 0.0607712C14.6233 0.122723 16.2616 0.322873 17.5751 1.79064C18.879 3.24888 18.9124 4.90727 18.965 6.75628C19.0079 8.42897 19.0127 10.1064 18.965 11.7791C18.9172 13.671 18.9984 15.4342 17.7566 16.983C16.4956 18.5604 14.8335 18.8559 12.9134 18.9273C10.8214 19.0084 8.5527 19.0131 6.45592 18.9559C4.4069 18.9035 2.44385 18.5556 1.15426 16.8258C0.0700429 15.3723 0.0891479 13.8092 0.0413852 12.0603C-0.00160123 10.5258 -0.0207063 8.98653 0.0318327 7.45204C0.0987004 5.52679 -0.049364 3.8398 1.08739 2.22907C2.42474 0.327639 4.43078 0.0703022 6.64219 0.0274128ZM14.4084 3.31083C12.9899 3.47286 13.1809 5.66022 14.6233 5.56967C16.147 5.47437 15.9655 3.12975 14.4084 3.31083ZM9.10674 4.62611C5.472 4.87868 3.42298 9.02465 5.39558 12.0936C7.244 14.9672 11.4471 15.0959 13.4484 12.3176C15.8795 8.93888 13.2478 4.33541 9.10674 4.62611Z" fill="#F4F4F4"/>
<path d="M9.10834 6.33806C11.5586 6.10455 13.3544 8.46346 12.4326 10.6794C11.3389 13.3004 8.65937 13.6435 6.96379 11.3704C5.51181 9.42133 6.76797 6.5668 9.11311 6.34282L9.10834 6.33806Z" fill="#F4F4F4"/>
</g>
<defs>
<clipPath id="clip0_13_610">
<rect width="19" height="19" fill="white"/>
</clipPath>
</defs>
</svg>
