<?xml version="1.0" encoding="UTF-8"?>
<svg id="Capa_1" data-name="Capa 1" xmlns="http://www.w3.org/2000/svg" viewBox="0 0 434.68 500">
  <defs>
    <style>
      .cls-1 {
        fill: #f0f0f0;
      }
    </style>
  </defs>
  <path class="cls-1" d="M272.94,287.71c41.66,0,75.43-33.77,75.43-75.43,0-10.41-2.11-20.34-5.93-29.36-13.92-32.92-49.95-50.62-84.81-42.7-9.15,2.08-20.22,4.73-26.68,6.75-13.33,4.17-17.31-.13-18.43-4.25-.68-2.5-.03-5.15,1.5-7.23,8.17-11.09.6-17.29.6-17.29-11.66-11.66-48.99,10.11-48.99,10.11-24.88,11.66-42.38,10.11-42.38,10.11-17.19,0-31.16-13.77-31.49-30.88-.34-17.66,14.45-32.11,32.11-32.11h215.26c20.53,0,40.91,3.46,60.28,10.23l35.27,12.32V0S93.93,0,93.93,0C42.58,0,.18,41.24,0,92.6c-.18,51.47,41.49,93.25,92.92,93.25,0,0,1.79.1,4.89.06,32.66-.48,63.28-16.01,83.2-41.9l2.66-3.46c1.28-1.66,2.91-3.04,4.81-3.92.08-.04.17-.08.25-.11,4.11-1.81,8.7,1.48,8.27,5.95-.72,7.49.93,19.02,17.61,20.06h37.64c15.23-.45,27.94,11.52,28.4,26.75.46,15.23-11.51,27.94-26.74,28.4l-164.5,4.73c-43.37,0-78.53,35.16-78.53,78.53v195.18s80.47,0,80.47,0v-123.64s-.46-37.84-.46-37.84c-.38-30.75-8.08-60.96-22.48-88.13h0s30.33,41.21,73.87,41.21h130.64Z"/>
  <path class="cls-1" d="M328.95,84.75c56.45,0,103.88,49.14,103.88,105.94v78.1s0,227.34,0,227.34h-64.44s-28.27,0-28.27,0c-25.06,0-45.9-20.07-45.96-45.13,0-4.15.54-8.17,1.58-11.99,0,0,3.06-6.29-3.12-7.83-3.09-.77-5.22.58-6.57,2.13-5.49,6.27-10.85,12.66-16.59,18.7l-20.17,21.21c-15.49,16.29-36.72,26.18-59.19,26.76-.75.02-1.5.03-2.25.03-47.19,0-85.45-38.26-85.45-85.45,0,0-2.32-114.06,102.85-114.06,0,0,43.3,0,43.3,44.08,0,0,1.55,31.7-27.06,44.85l-23.48,12.39c-6.25,3.3-11.36,8.52-14.17,15.01-1.65,3.81-2.56,8.01-2.56,12.42,0,17.3,14.02,31.32,31.32,31.32,0,0,20.49,1.55,57.61-37.12,0,0,5.9-6.76,14.69-10.83,13.08-6.04,28.1,2.44,28.36,16.84.02,1.42-.21,4.25-.37,6.01-.11,1.24-.16,2.49-.05,3.73,1.12,12.41,11.55,22.14,24.26,22.14,10.21,0,18.96-6.29,22.58-15.2,0,0,8.74-16.5,8.74-48.98v-208.24c0-4.41,0-5.69,0-8.28,0-10.36-2.1-20.22-5.89-29.2-7.25-17.15-20.54-30.13-36.53-37.48-12.14-5.58-24.92-8.72-38-6.01-19.21,3.97-23.97,10.05-43.15,24.23-11.17,8.26-22.58-3.35-16.83-11.42,0,0,22.09-36,100.97-36Z"/>
</svg>