<svg width="268" height="89" viewBox="0 0 268 89" fill="none" xmlns="http://www.w3.org/2000/svg">
<g clip-path="url(#clip0_321_1616)">
<path d="M252.129 59.0995C251.917 58.9032 252.466 56.8084 250.486 55.8799C248.137 54.7777 247.098 56.2611 246.317 56.129C245.117 55.9214 244.196 52.3545 241.039 54.9287C238.396 57.0839 238.745 62.4965 239.757 65.3727C243.219 75.2542 258.866 67.2259 256.815 60.6659C256.168 58.5937 252.329 59.2882 252.129 59.1033V59.0995Z" fill="#7651A6"/>
</g>
<path d="M14.8708 59.1003C15.0826 58.9041 14.5336 56.8092 16.514 55.8807C18.863 54.7786 19.9022 56.2619 20.6826 56.1298C21.8826 55.9222 22.8042 52.3554 25.961 54.9295C28.6042 57.0848 28.2551 62.4974 27.2434 65.3735C23.7806 75.2551 8.13357 67.2268 10.1845 60.6668C10.8316 58.5946 14.6708 59.2891 14.8708 59.1041V59.1003Z" fill="#7651A6"/>
<path d="M76.5014 31.56H79.7414C80.5514 31.56 80.9564 31.155 80.9564 30.345V3.615C80.9564 3.195 80.8514 2.895 80.6414 2.715C80.4614 2.505 80.1614 2.4 79.7414 2.4H76.5014V0.959999H92.9714C95.4614 0.959999 97.7414 1.635 99.8114 2.985C101.881 4.305 103.516 6.165 104.716 8.565C105.946 10.935 106.561 13.65 106.561 16.71C106.561 19.77 105.946 22.545 104.716 25.035C103.516 27.525 101.866 29.475 99.7664 30.885C97.6964 32.295 95.4314 33 92.9714 33H76.5014V31.56ZM92.7914 31.56C94.8914 31.56 96.6164 30.855 97.9664 29.445C99.3164 28.005 100.291 26.175 100.891 23.955C101.491 21.705 101.791 19.29 101.791 16.71C101.791 12.69 101.056 9.3 99.5864 6.54C98.1464 3.78 95.8814 2.4 92.7914 2.4H86.3114C85.8914 2.4 85.5764 2.505 85.3664 2.715C85.1864 2.895 85.0964 3.195 85.0964 3.615V30.345C85.0964 31.155 85.5014 31.56 86.3114 31.56H92.7914ZM112.514 6.9C111.854 6.9 111.299 6.675 110.849 6.225C110.399 5.775 110.174 5.22 110.174 4.56C110.174 3.87 110.399 3.315 110.849 2.895C111.299 2.445 111.854 2.22 112.514 2.22C113.204 2.22 113.759 2.445 114.179 2.895C114.629 3.315 114.854 3.87 114.854 4.56C114.854 5.22 114.629 5.775 114.179 6.225C113.759 6.675 113.204 6.9 112.514 6.9ZM108.284 31.92H110.174C110.534 31.92 110.789 31.845 110.939 31.695C111.089 31.545 111.164 31.29 111.164 30.93V14.55C111.164 14.19 111.089 13.935 110.939 13.785C110.789 13.635 110.534 13.56 110.174 13.56H108.284V12.48H114.404V30.93C114.404 31.29 114.479 31.545 114.629 31.695C114.779 31.845 115.034 31.92 115.394 31.92H117.284V33H108.284V31.92ZM119.153 24.63H119.963L121.628 28.185C123.248 31.035 125.348 32.46 127.928 32.46C129.308 32.46 130.328 32.13 130.988 31.47C131.678 30.78 132.023 29.85 132.023 28.68C132.023 27.99 131.753 27.375 131.213 26.835C130.703 26.265 130.013 25.815 129.143 25.485L124.013 23.415C122.393 22.755 121.118 21.96 120.188 21.03C119.258 20.1 118.793 18.915 118.793 17.475C118.793 15.645 119.363 14.265 120.503 13.335C121.643 12.405 123.083 11.94 124.823 11.94C125.693 11.94 126.503 12.09 127.253 12.39C128.033 12.66 128.678 12.99 129.188 13.38C129.848 13.86 130.343 14.1 130.673 14.1C131.063 14.1 131.303 13.83 131.393 13.29L131.483 12.39H132.293V19.23H131.483L130.853 17.655C130.163 15.945 129.248 14.745 128.108 14.055C126.998 13.365 125.888 13.02 124.778 13.02C123.668 13.02 122.753 13.305 122.033 13.875C121.313 14.415 120.953 15.18 120.953 16.17C120.953 17.04 121.298 17.76 121.988 18.33C122.708 18.87 123.683 19.395 124.913 19.905L129.773 21.93C131.213 22.53 132.293 23.265 133.013 24.135C133.733 24.975 134.093 26.16 134.093 27.69C134.093 29.7 133.523 31.185 132.383 32.145C131.243 33.075 129.743 33.54 127.883 33.54C126.773 33.54 125.873 33.39 125.183 33.09C124.493 32.79 123.818 32.385 123.158 31.875C122.888 31.665 122.618 31.485 122.348 31.335C122.078 31.185 121.838 31.11 121.628 31.11C120.908 31.11 120.413 31.62 120.143 32.64L119.963 33.54H119.153V24.63ZM145.144 33.54C142.354 33.54 140.104 32.595 138.394 30.705C136.714 28.815 135.874 26.19 135.874 22.83C135.874 20.91 136.249 19.125 136.999 17.475C137.749 15.795 138.784 14.46 140.104 13.47C141.454 12.45 142.954 11.94 144.604 11.94C146.434 11.94 147.934 12.435 149.104 13.425C150.274 14.415 151.114 15.675 151.624 17.205C152.164 18.705 152.434 20.25 152.434 21.84C152.434 22.17 152.329 22.395 152.119 22.515C151.909 22.605 151.549 22.65 151.039 22.65H139.834C139.834 25.65 140.254 28.035 141.094 29.805C141.964 31.575 143.374 32.46 145.324 32.46C146.704 32.46 147.994 31.935 149.194 30.885C150.424 29.835 151.204 28.2 151.534 25.98H152.614C152.434 28.17 151.669 29.985 150.319 31.425C148.999 32.835 147.274 33.54 145.144 33.54ZM148.564 21.57C148.564 19.17 148.249 17.145 147.619 15.495C146.989 13.845 145.954 13.02 144.514 13.02C142.984 13.02 141.814 13.86 141.004 15.54C140.224 17.19 139.834 19.2 139.834 21.57H148.564ZM158.193 7.89C158.373 6.81 158.793 5.88 159.453 5.1C160.113 4.32 160.983 3.93 162.063 3.93C162.633 3.93 163.173 4.02 163.683 4.2C164.193 4.35 164.778 4.56 165.438 4.83C166.008 5.07 166.488 5.25 166.878 5.37C167.268 5.49 167.688 5.55 168.138 5.55C169.158 5.55 169.848 4.92 170.208 3.66L170.973 3.84C170.793 4.92 170.373 5.85 169.713 6.63C169.053 7.41 168.183 7.8 167.103 7.8C166.533 7.8 165.993 7.725 165.483 7.575C164.973 7.395 164.388 7.17 163.728 6.9C163.158 6.66 162.678 6.48 162.288 6.36C161.898 6.24 161.478 6.18 161.028 6.18C160.008 6.18 159.318 6.81 158.958 8.07L158.193 7.89ZM153.873 31.92H155.763C156.123 31.92 156.378 31.845 156.528 31.695C156.678 31.545 156.753 31.29 156.753 30.93V14.55C156.753 14.19 156.678 13.935 156.528 13.785C156.378 13.635 156.123 13.56 155.763 13.56H153.873V12.48H159.993V16.17L160.173 16.215C160.863 14.775 161.718 13.71 162.738 13.02C163.758 12.3 164.883 11.94 166.113 11.94C168.303 11.94 169.848 12.615 170.748 13.965C171.678 15.315 172.143 16.935 172.143 18.825V30.93C172.143 31.29 172.218 31.545 172.368 31.695C172.518 31.845 172.773 31.92 173.133 31.92H175.023V33H166.023V31.92H167.913C168.273 31.92 168.528 31.845 168.678 31.695C168.828 31.545 168.903 31.29 168.903 30.93V17.97C168.903 16.65 168.633 15.525 168.093 14.595C167.583 13.665 166.698 13.2 165.438 13.2C164.388 13.2 163.443 13.575 162.603 14.325C161.793 15.045 161.148 16.05 160.668 17.34C160.218 18.6 159.993 20.01 159.993 21.57V30.93C159.993 31.29 160.068 31.545 160.218 31.695C160.368 31.845 160.623 31.92 160.983 31.92H162.873V33H153.873V31.92ZM185.374 33.54C183.724 33.54 182.209 33.06 180.829 32.1C179.449 31.11 178.354 29.79 177.544 28.14C176.764 26.49 176.374 24.69 176.374 22.74C176.374 20.79 176.764 18.99 177.544 17.34C178.354 15.69 179.449 14.385 180.829 13.425C182.209 12.435 183.724 11.94 185.374 11.94C187.024 11.94 188.539 12.435 189.919 13.425C191.299 14.385 192.379 15.69 193.159 17.34C193.969 18.99 194.374 20.79 194.374 22.74C194.374 24.69 193.969 26.49 193.159 28.14C192.379 29.79 191.299 31.11 189.919 32.1C188.539 33.06 187.024 33.54 185.374 33.54ZM185.374 32.46C187.174 32.46 188.464 31.62 189.244 29.94C190.024 28.23 190.414 25.83 190.414 22.74C190.414 19.65 190.024 17.265 189.244 15.585C188.464 13.875 187.174 13.02 185.374 13.02C183.574 13.02 182.284 13.875 181.504 15.585C180.724 17.265 180.334 19.65 180.334 22.74C180.334 25.83 180.724 28.23 181.504 29.94C182.284 31.62 183.574 32.46 185.374 32.46ZM39.0242 80.27H41.3642C41.7242 80.27 41.9792 80.195 42.1292 80.045C42.2792 79.895 42.3542 79.64 42.3542 79.28V52.55C42.3542 52.19 42.2792 51.935 42.1292 51.785C41.9792 51.635 41.7242 51.56 41.3642 51.56H39.0242V50.48H45.5942V53.81L45.7742 53.855C46.3442 52.655 47.0642 51.71 47.9342 51.02C48.8342 50.3 49.8542 49.94 50.9942 49.94C52.4042 49.94 53.7092 50.42 54.9092 51.38C56.1392 52.31 57.1142 53.6 57.8342 55.25C58.5542 56.9 58.9142 58.73 58.9142 60.74C58.9142 62.75 58.5542 64.58 57.8342 66.23C57.1142 67.88 56.1392 69.185 54.9092 70.145C53.7092 71.075 52.4042 71.54 50.9942 71.54C49.8242 71.54 48.7742 71.165 47.8442 70.415C46.9142 69.635 46.2242 68.705 45.7742 67.625L45.5942 67.67V79.28C45.5942 79.64 45.6692 79.895 45.8192 80.045C45.9692 80.195 46.2242 80.27 46.5842 80.27H48.9242V81.35H39.0242V80.27ZM50.4992 70.28C51.9692 70.28 53.0792 69.455 53.8292 67.805C54.5792 66.155 54.9542 63.8 54.9542 60.74C54.9542 57.68 54.5792 55.325 53.8292 53.675C53.0792 52.025 51.9692 51.2 50.4992 51.2C49.5992 51.2 48.7742 51.53 48.0242 52.19C47.2742 52.85 46.6742 53.765 46.2242 54.935C45.8042 56.075 45.5942 57.32 45.5942 58.67V62.81C45.5942 64.16 45.8042 65.42 46.2242 66.59C46.6742 67.73 47.2742 68.63 48.0242 69.29C48.7742 69.95 49.5992 70.28 50.4992 70.28ZM69.1552 71.54C66.9652 71.54 65.4052 70.865 64.4752 69.515C63.5752 68.165 63.1252 66.545 63.1252 64.655V52.55C63.1252 52.19 63.0502 51.935 62.9002 51.785C62.7502 51.635 62.4952 51.56 62.1352 51.56H60.2452V50.48H66.3652V65.51C66.3652 66.83 66.6202 67.955 67.1302 68.885C67.6702 69.815 68.5702 70.28 69.8302 70.28C70.8802 70.28 71.8102 69.92 72.6202 69.2C73.4602 68.45 74.1052 67.445 74.5552 66.185C75.0352 64.895 75.2752 63.47 75.2752 61.91V52.55C75.2752 52.19 75.2002 51.935 75.0502 51.785C74.9002 51.635 74.6452 51.56 74.2852 51.56H72.3952V50.48H78.5152V68.93C78.5152 69.29 78.5902 69.545 78.7402 69.695C78.8902 69.845 79.1452 69.92 79.5052 69.92H81.3952V71H75.2752V67.31L75.0952 67.265C74.4052 68.705 73.5502 69.785 72.5302 70.505C71.5102 71.195 70.3852 71.54 69.1552 71.54ZM93.5533 71.54C92.3533 71.54 91.2433 71.135 90.2233 70.325C89.2033 69.515 88.3933 68.45 87.7933 67.13H87.6133L85.7233 71H84.9133V41.03C84.9133 40.67 84.8383 40.415 84.6883 40.265C84.5383 40.115 84.2833 40.04 83.9233 40.04H81.5833V38.96H88.1533V53.81L88.3333 53.855C88.7833 52.775 89.4733 51.86 90.4033 51.11C91.3333 50.33 92.3833 49.94 93.5533 49.94C94.9633 49.94 96.2683 50.42 97.4683 51.38C98.6983 52.31 99.6733 53.6 100.393 55.25C101.113 56.9 101.473 58.73 101.473 60.74C101.473 62.75 101.113 64.58 100.393 66.23C99.6733 67.88 98.6983 69.185 97.4683 70.145C96.2683 71.075 94.9633 71.54 93.5533 71.54ZM93.0583 70.28C94.5283 70.28 95.6383 69.455 96.3883 67.805C97.1383 66.155 97.5133 63.8 97.5133 60.74C97.5133 57.68 97.1383 55.325 96.3883 53.675C95.6383 52.025 94.5283 51.2 93.0583 51.2C92.1583 51.2 91.3333 51.53 90.5833 52.19C89.8333 52.85 89.2333 53.765 88.7833 54.935C88.3633 56.075 88.1533 57.32 88.1533 58.67V62.81C88.1533 64.16 88.3633 65.42 88.7833 66.59C89.2333 67.73 89.8333 68.63 90.5833 69.29C91.3333 69.95 92.1583 70.28 93.0583 70.28ZM102.631 69.92H104.971C105.331 69.92 105.586 69.845 105.736 69.695C105.886 69.545 105.961 69.29 105.961 68.93V41.03C105.961 40.67 105.886 40.415 105.736 40.265C105.586 40.115 105.331 40.04 104.971 40.04H102.631V38.96H109.201V68.93C109.201 69.29 109.276 69.545 109.426 69.695C109.576 69.845 109.831 69.92 110.191 69.92H112.531V71H102.631V69.92ZM117.19 44.9C116.53 44.9 115.975 44.675 115.525 44.225C115.075 43.775 114.85 43.22 114.85 42.56C114.85 41.87 115.075 41.315 115.525 40.895C115.975 40.445 116.53 40.22 117.19 40.22C117.88 40.22 118.435 40.445 118.855 40.895C119.305 41.315 119.53 41.87 119.53 42.56C119.53 43.22 119.305 43.775 118.855 44.225C118.435 44.675 117.88 44.9 117.19 44.9ZM112.96 69.92H114.85C115.21 69.92 115.465 69.845 115.615 69.695C115.765 69.545 115.84 69.29 115.84 68.93V52.55C115.84 52.19 115.765 51.935 115.615 51.785C115.465 51.635 115.21 51.56 114.85 51.56H112.96V50.48H119.08V68.93C119.08 69.29 119.155 69.545 119.305 69.695C119.455 69.845 119.71 69.92 120.07 69.92H121.96V71H112.96V69.92ZM132.108 71.54C130.368 71.54 128.823 71.06 127.473 70.1C126.153 69.14 125.118 67.835 124.368 66.185C123.648 64.535 123.288 62.72 123.288 60.74C123.288 58.76 123.663 56.945 124.413 55.295C125.163 53.645 126.198 52.34 127.518 51.38C128.868 50.42 130.398 49.94 132.108 49.94C133.488 49.94 134.688 50.24 135.708 50.84C136.728 51.41 137.508 52.16 138.048 53.09C138.588 53.99 138.858 54.905 138.858 55.835C138.858 56.765 138.618 57.5 138.138 58.04C137.658 58.55 137.073 58.805 136.383 58.805C135.783 58.805 135.273 58.61 134.853 58.22C134.463 57.83 134.268 57.365 134.268 56.825C134.268 56.285 134.418 55.835 134.718 55.475C135.018 55.115 135.378 54.875 135.798 54.755C136.278 54.605 136.518 54.335 136.518 53.945C136.518 53.585 136.353 53.18 136.023 52.73C135.723 52.28 135.243 51.89 134.583 51.56C133.923 51.2 133.098 51.02 132.108 51.02C130.218 51.02 128.928 51.83 128.238 53.45C127.578 55.07 127.248 57.5 127.248 60.74C127.248 63.98 127.578 66.41 128.238 68.03C128.898 69.65 130.188 70.46 132.108 70.46C133.938 70.46 135.348 69.815 136.338 68.525C137.328 67.235 137.928 65.72 138.138 63.98H139.218C139.128 65.21 138.813 66.41 138.273 67.58C137.733 68.72 136.938 69.665 135.888 70.415C134.838 71.165 133.578 71.54 132.108 71.54ZM144.418 44.9C143.758 44.9 143.203 44.675 142.753 44.225C142.303 43.775 142.078 43.22 142.078 42.56C142.078 41.87 142.303 41.315 142.753 40.895C143.203 40.445 143.758 40.22 144.418 40.22C145.108 40.22 145.663 40.445 146.083 40.895C146.533 41.315 146.758 41.87 146.758 42.56C146.758 43.22 146.533 43.775 146.083 44.225C145.663 44.675 145.108 44.9 144.418 44.9ZM140.188 69.92H142.078C142.438 69.92 142.693 69.845 142.843 69.695C142.993 69.545 143.068 69.29 143.068 68.93V52.55C143.068 52.19 142.993 51.935 142.843 51.785C142.693 51.635 142.438 51.56 142.078 51.56H140.188V50.48H146.308V68.93C146.308 69.29 146.383 69.545 146.533 69.695C146.683 69.845 146.938 69.92 147.298 69.92H149.188V71H140.188V69.92ZM157.627 71.54C156.277 71.54 155.152 71.06 154.252 70.1C153.382 69.14 152.947 67.835 152.947 66.185V51.74H149.617V50.48H150.607C151.957 50.48 153.007 49.76 153.757 48.32C154.537 46.85 154.927 45.23 154.927 43.46V41.84H156.187V50.48H161.767V51.74H156.187V66.41C156.187 67.31 156.367 68.06 156.727 68.66C157.087 69.26 157.702 69.56 158.572 69.56C160.702 69.56 161.767 67.76 161.767 64.16H162.577C162.577 66.17 162.277 67.91 161.677 69.38C161.107 70.82 159.757 71.54 157.627 71.54ZM169.759 71.54C168.169 71.54 166.789 71.15 165.619 70.37C164.479 69.59 163.909 68.21 163.909 66.23C163.909 64.7 164.299 63.5 165.079 62.63C165.859 61.76 166.759 61.145 167.779 60.785C168.829 60.395 170.089 60.065 171.559 59.795L175.699 59.03V55.205C175.699 52.415 174.304 51.02 171.514 51.02C170.494 51.02 169.564 51.29 168.724 51.83C167.884 52.34 167.464 52.925 167.464 53.585C167.464 53.885 167.509 54.11 167.599 54.26C167.659 54.35 167.749 54.44 167.869 54.53C168.019 54.62 168.154 54.68 168.274 54.71C168.814 54.86 169.219 55.07 169.489 55.34C169.789 55.61 169.939 55.985 169.939 56.465C169.939 57.095 169.744 57.545 169.354 57.815C168.994 58.085 168.529 58.22 167.959 58.22C167.299 58.22 166.699 57.965 166.159 57.455C165.619 56.945 165.349 56.21 165.349 55.25C165.349 54.14 165.649 53.18 166.249 52.37C166.879 51.56 167.674 50.96 168.634 50.57C169.624 50.15 170.629 49.94 171.649 49.94C173.629 49.94 175.339 50.465 176.779 51.515C178.219 52.535 178.939 54.14 178.939 56.33V67.4C178.939 68.9 179.404 69.65 180.334 69.65C181.084 69.65 181.624 69.215 181.954 68.345C182.284 67.475 182.449 66.41 182.449 65.15H183.259C183.259 66.95 182.989 68.465 182.449 69.695C181.939 70.925 181.009 71.54 179.659 71.54C178.369 71.54 177.394 71.165 176.734 70.415C176.104 69.635 175.759 68.57 175.699 67.22L175.474 67.13C175.024 68.18 174.289 69.185 173.269 70.145C172.279 71.075 171.109 71.54 169.759 71.54ZM170.479 69.92C171.829 69.92 172.879 69.395 173.629 68.345C174.409 67.265 175.099 65.9 175.699 64.25V59.975L171.784 60.83C170.344 61.13 169.294 61.73 168.634 62.63C168.004 63.5 167.689 64.745 167.689 66.365C167.689 67.745 167.974 68.69 168.544 69.2C169.114 69.68 169.759 69.92 170.479 69.92ZM183.536 69.92H185.426C185.786 69.92 186.041 69.845 186.191 69.695C186.341 69.545 186.416 69.29 186.416 68.93V52.55C186.416 52.19 186.341 51.935 186.191 51.785C186.041 51.635 185.786 51.56 185.426 51.56H183.536V50.48H189.656V54.98L189.836 55.025C190.466 53.465 191.276 52.235 192.266 51.335C193.286 50.405 194.366 49.94 195.506 49.94C196.646 49.94 197.576 50.27 198.296 50.93C199.016 51.59 199.376 52.49 199.376 53.63C199.376 54.29 199.136 54.935 198.656 55.565C198.206 56.195 197.621 56.51 196.901 56.51C196.331 56.51 195.851 56.36 195.461 56.06C195.071 55.76 194.876 55.34 194.876 54.8C194.876 54.17 195.176 53.63 195.776 53.18C196.046 53 196.241 52.835 196.361 52.685C196.511 52.535 196.586 52.34 196.586 52.1C196.586 51.83 196.451 51.62 196.181 51.47C195.941 51.29 195.596 51.2 195.146 51.2C194.216 51.2 193.316 51.65 192.446 52.55C191.606 53.45 190.931 54.62 190.421 56.06C189.911 57.5 189.656 59 189.656 60.56V68.93C189.656 69.29 189.731 69.545 189.881 69.695C190.031 69.845 190.286 69.92 190.646 69.92H192.536V71H183.536V69.92ZM203.973 44.9C203.313 44.9 202.758 44.675 202.308 44.225C201.858 43.775 201.633 43.22 201.633 42.56C201.633 41.87 201.858 41.315 202.308 40.895C202.758 40.445 203.313 40.22 203.973 40.22C204.663 40.22 205.218 40.445 205.638 40.895C206.088 41.315 206.313 41.87 206.313 42.56C206.313 43.22 206.088 43.775 205.638 44.225C205.218 44.675 204.663 44.9 203.973 44.9ZM199.743 69.92H201.633C201.993 69.92 202.248 69.845 202.398 69.695C202.548 69.545 202.623 69.29 202.623 68.93V52.55C202.623 52.19 202.548 51.935 202.398 51.785C202.248 51.635 201.993 51.56 201.633 51.56H199.743V50.48H205.863V68.93C205.863 69.29 205.938 69.545 206.088 69.695C206.238 69.845 206.493 69.92 206.853 69.92H208.743V71H199.743V69.92ZM219.072 71.54C217.422 71.54 215.907 71.06 214.527 70.1C213.147 69.11 212.052 67.79 211.242 66.14C210.462 64.49 210.072 62.69 210.072 60.74C210.072 58.79 210.462 56.99 211.242 55.34C212.052 53.69 213.147 52.385 214.527 51.425C215.907 50.435 217.422 49.94 219.072 49.94C220.722 49.94 222.237 50.435 223.617 51.425C224.997 52.385 226.077 53.69 226.857 55.34C227.667 56.99 228.072 58.79 228.072 60.74C228.072 62.69 227.667 64.49 226.857 66.14C226.077 67.79 224.997 69.11 223.617 70.1C222.237 71.06 220.722 71.54 219.072 71.54ZM219.072 70.46C220.872 70.46 222.162 69.62 222.942 67.94C223.722 66.23 224.112 63.83 224.112 60.74C224.112 57.65 223.722 55.265 222.942 53.585C222.162 51.875 220.872 51.02 219.072 51.02C217.272 51.02 215.982 51.875 215.202 53.585C214.422 55.265 214.032 57.65 214.032 60.74C214.032 63.83 214.422 66.23 215.202 67.94C215.982 69.62 217.272 70.46 219.072 70.46Z" fill="#7651A6"/>
<g clip-path="url(#clip1_321_1616)">
<path d="M83 83.9932C119.838 82.6598 161.162 82.6598 198 83.9932C161.162 85.3265 119.838 85.3265 83 83.9932Z" fill="#7651A6"/>
</g>
<defs>
<clipPath id="clip0_321_1616">
<rect width="18" height="16" fill="white" transform="matrix(-1 0 0 1 257 54)"/>
</clipPath>
<clipPath id="clip1_321_1616">
<rect width="115" height="2" fill="white" transform="translate(83 83)"/>
</clipPath>
</defs>
</svg>
